<svg xmlns="http://www.w3.org/2000/svg" width="35" height="41" viewBox="0 0 35 41">
    <g fill="#000" fill-rule="nonzero">
        <path d="M9.787 7.807h-.071v9.37c0 .78.646 1.42 1.437 1.42h1.239v3.266c0 .785.643 1.42 1.436 1.42a1.43 1.43 0 0 0 1.437-1.42v-3.266h1.936v3.266c0 .785.644 1.42 1.437 1.42a1.43 1.43 0 0 0 1.437-1.42v-3.266h1.207c.79 0 1.437-.64 1.437-1.42v-9.37H9.787zM12.65 4.43c0 .334.274.604.61.604.338 0 .612-.27.612-.604a.608.608 0 0 0-.611-.604c-.337 0-.61.27-.61.604zm5.915 0c0 .334.274.604.611.604.337 0 .61-.27.61-.604a.607.607 0 0 0-.61-.604c-.337 0-.61.27-.61.604zM9.732 7.31a4.997 4.997 0 0 1 .156-1.462c.403-1.572 1.54-2.899 3.077-3.686l-.997-1.82a.23.23 0 0 1 .094-.313.235.235 0 0 1 .317.093l1.009 1.841a7.2 7.2 0 0 1 2.841-.574c1.012 0 1.969.203 2.822.566L20.056.121a.235.235 0 0 1 .317-.093.23.23 0 0 1 .094.313l-.992 1.81c1.612.82 2.788 2.232 3.143 3.899.04.188.07.38.089.574v.685H9.732zM26.1 8.98c0-.784-.643-1.42-1.437-1.42a1.43 1.43 0 0 0-1.437 1.42v5.97a1.43 1.43 0 0 0 1.437 1.421 1.43 1.43 0 0 0 1.437-1.42V8.98zm-16.899 0v5.97a1.43 1.43 0 0 1-1.437 1.421 1.43 1.43 0 0 1-1.437-1.42V8.98c0-.785.644-1.422 1.437-1.422A1.43 1.43 0 0 1 9.201 8.98zM34.8 26.588h-1.85l-4.02 9.247h.822l-4.008-9.236H23.84l4.544 10.13-.361.79c-.405.872-1.172 1.25-1.906 1.25h-.602v1.59h.58c1.632 0 2.924-.842 3.614-2.44l5.092-11.33zm-11.947 10.53v-10.52h-1.642v1.2c-.92-.884-2.19-1.41-3.636-1.41-3.132 0-5.595 2.441-5.595 5.46 0 3.03 2.463 5.48 5.595 5.48 1.446 0 2.716-.536 3.636-1.409v1.2h1.642zm-5.157-1.325c-2.245 0-4.063-1.767-4.063-3.945 0-2.167 1.818-3.934 4.063-3.934 1.401 0 2.726.631 3.405 1.714.033.064.11.169.11.348v3.734a.619.619 0 0 1-.12.358c-.735 1.052-1.994 1.725-3.395 1.725zM1.643 40.274V35.92c.92.884 2.19 1.42 3.635 1.42 3.12 0 5.596-2.45 5.596-5.47 0-3.03-2.475-5.48-5.596-5.48-1.445 0-2.716.536-3.635 1.41v-1.2H0v13.675h1.643zm3.515-4.47c-1.402 0-2.705-.642-3.406-1.715a.57.57 0 0 1-.11-.347v-3.777a.604.604 0 0 1 .121-.347c.734-1.052 1.993-1.694 3.395-1.694 2.233 0 4.051 1.768 4.051 3.945 0 2.167-1.818 3.935-4.051 3.935z"/>
    </g>
</svg>
