<?xml version="1.0" encoding="utf-8"?>
<!-- Generator: Adobe Illustrator 21.1.0, SVG Export Plug-In . SVG Version: 6.00 Build 0)  -->
<svg version="1.1" id="svg" xmlns="http://www.w3.org/2000/svg" xmlns:xlink="http://www.w3.org/1999/xlink" x="0px" y="0px"
	 viewBox="0 0 337 345" style="enable-background:new 0 0 337 345;" xml:space="preserve">
<style type="text/css">
	.st0{fill:#005BC3;}
</style>
<g id="svgg">
	<path id="path0" class="st0" d="M153.7,12.7c-3.6,0.3-6.9,0.9-7.4,1.2c-0.5,0.3-3.7,0.9-7.2,1.4c-3.5,0.5-8.5,1.6-11,2.4
		c-2.6,0.9-5.4,1.6-6.3,1.6c-0.9,0-3,0.7-4.7,1.5c-1.7,0.8-4,1.8-5.3,2c-2.2,0.5-16.7,7.1-19.2,8.7c-0.7,0.4-2.3,1.3-3.7,1.9
		c-1.4,0.6-3,1.7-3.5,2.4c-0.6,0.7-1.5,1.3-2.1,1.3c-0.6,0-3.1,1.5-5.6,3.4c-2.5,1.9-5.8,4.4-7.5,5.5c-1.6,1.1-3.9,2.9-5.1,4
		C54.1,60.1,46,68.7,40.9,75.7c-1.6,2.1-3,4.1-3.2,4.3c-0.4,0.4-2.5,3.5-7.1,10.8c-1.4,2.1-4,7.1-5.8,10.9c-1.8,3.9-4.1,8.4-4.9,10
		c-0.9,1.6-1.6,3.6-1.6,4.5c0,0.8-0.7,2.8-1.6,4.4c-0.9,1.6-1.9,5-2.4,7.5c-0.5,2.5-1.2,5.3-1.7,6.1c-0.5,0.8-1.4,5.1-2.1,9.5
		c-0.7,4.4-1.6,9.4-2,11.2c-3.7,15.1,0.6,51,8.9,74.5c1.8,5.2,4.5,11.4,5.7,13.4c0.4,0.7,1,1.8,1.3,2.4c1.7,3.9,2.9,6.4,4.7,9.3
		c1.1,1.8,2.6,4.3,3.3,5.6c0.8,1.3,1.8,2.8,2.3,3.4s1.8,2.3,2.9,4c6.5,9.5,20.4,24.2,29.7,31.6c7.8,6.2,12.6,9.7,15.2,11.2
		c1.3,0.8,3.9,2.3,5.7,3.3c1.8,1.1,6,3.2,9.3,4.8c3.3,1.6,7.4,3.6,9.1,4.5c1.6,0.9,3.7,1.6,4.5,1.6c0.8,0,2.9,0.7,4.6,1.6
		c1.7,0.9,5.1,2,7.5,2.5c2.4,0.5,5.6,1.4,7,2c1.4,0.6,4.9,1.3,7.8,1.6c2.9,0.3,7.3,1.1,9.7,1.7c5.2,1.4,35.7,1.6,40.9,0.3
		c1.8-0.4,6.7-1.3,11-2c4.3-0.7,9.1-1.8,10.7-2.4c1.6-0.7,3.8-1.2,4.9-1.2c1.1,0,3.6-0.9,5.7-2c2.1-1.1,4.2-2,4.6-2
		c0.9,0,6-2.3,15.9-7.1c8.1-3.9,16.2-9.1,26.9-17.1c6.3-4.8,25.9-23.9,25.9-25.2c0-0.3,1.6-2.5,3.5-4.9c4.5-5.7,7.9-10.7,7.9-11.8
		c0-0.5,0.6-1.3,1.3-1.9s1.8-2.2,2.4-3.5c0.6-1.4,1.5-3,2-3.7c1.8-2.6,8-16.8,8.5-19.4c0.3-1.6,1.1-3.6,1.7-4.5
		c0.6-0.9,1.3-3.3,1.6-5.3c0.3-2,1.2-5.3,2-7.3c0.8-2,1.7-6,2-8.9c0.3-2.9,1.1-7.4,1.7-10.1c1.4-5.8,1.6-34.1,0.3-38.5
		c-0.5-1.6-1.4-6.6-2-11.2c-0.7-4.6-1.5-9-1.9-9.8c-0.4-0.8-1.3-3.6-2-6.2c-1.7-6.7-7.4-21.7-9.1-23.8c-0.5-0.7-1.2-2.1-1.6-3.2
		c-0.3-1.1-1.3-3-2.1-4.2c-0.8-1.2-1.5-2.5-1.5-3c0-0.5-0.5-1.3-1.1-1.9c-0.6-0.6-1.8-2.3-2.5-3.9c-0.8-1.5-1.8-3.2-2.3-3.8
		c-0.5-0.6-1.8-2.3-2.9-4c-8.7-12.6-25-29-37.6-37.6c-1.6-1.1-3.4-2.4-4-2.9s-2.3-1.6-3.8-2.3c-1.5-0.8-3-1.7-3.2-2
		c-0.2-0.3-1.5-1.1-2.8-1.8c-1.3-0.7-3.2-1.6-4-2.2c-0.9-0.5-2.5-1.3-3.6-1.8c-1.1-0.4-2.6-1.2-3.2-1.6c-2.2-1.4-10.1-4.7-12.6-5.3
		c-1.3-0.3-3-1.1-3.7-1.7c-0.7-0.6-3.1-1.5-5.3-1.9c-2.2-0.4-5.5-1.3-7.2-2c-1.7-0.7-6.1-1.6-9.7-2.1c-3.6-0.5-7.8-1.2-9.3-1.6
		C186.1,12.5,161.9,11.9,153.7,12.7 M156.9,97.5c4.1,1.4,67.3,63.4,71,69.7c2.5,4.2,2.5,9.4,0,13.5c-3.8,6.3-66,67.2-70.7,69.2
		c-12.3,5.2-23-4.4-20.5-18.1c0.5-2.7,4-6.5,27.2-29.8c14.7-14.7,26.6-27.4,26.6-28.2s-11.2-12.6-24.9-26.3
		c-28.6-28.5-28.7-28.7-29.2-35.4C135.8,101,146,93.8,156.9,97.5"/>
</g>
</svg>
