<?xml version="1.0" encoding="utf-8"?>
<!-- Generator: Adobe Illustrator 21.1.0, SVG Export Plug-In . SVG Version: 6.00 Build 0)  -->
<svg version="1.1" id="Capa_1" xmlns="http://www.w3.org/2000/svg" xmlns:xlink="http://www.w3.org/1999/xlink" x="0px" y="0px"
	 viewBox="0 0 213 213" style="enable-background:new 0 0 213 213;" xml:space="preserve">
<g id="Close">
	<path d="M128.9,106.5l67.3-67.3c6.2-6.2,6.2-16.2,0-22.4c-6.2-6.2-16.2-6.2-22.4,0L106.5,84L39.2,16.7c-6.2-6.2-16.2-6.2-22.4,0
		c-6.2,6.2-6.2,16.2,0,22.4L84,106.5l-67.3,67.3c-6.2,6.2-6.2,16.2,0,22.4c6.2,6.2,16.2,6.2,22.4,0l67.3-67.3l67.3,67.3
		c6.2,6.2,16.2,6.2,22.4,0c6.2-6.2,6.2-16.2,0-22.4L128.9,106.5z"/>
</g>
</svg>
