<svg xmlns="http://www.w3.org/2000/svg" width="38" height="24" viewBox="0 0 38 24">
    <g fill="#595858" fill-rule="evenodd">
        <path fill-rule="nonzero" d="M3.836 0h30.943a3.036 3.036 0 0 1 3.036 3.036v18.016a3.036 3.036 0 0 1-3.036 3.036H3.836A3.036 3.036 0 0 1 .8 21.052V3.036A3.036 3.036 0 0 1 3.836 0zm0 2C3.264 2 2.8 2.464 2.8 3.036v18.016c0 .572.464 1.036 1.036 1.036h30.943c.572 0 1.036-.464 1.036-1.036V3.036c0-.572-.464-1.036-1.036-1.036H3.836z"/>
        <path d="M1.681 4.353h35.015v3.6H1.681zM11.119 17.793h22.088v1.6H11.119zM17.694 14.125h15.513v1.6H17.694z"/>
    </g>
</svg>
