<svg xmlns="http://www.w3.org/2000/svg" width="20" height="18" viewBox="0 0 20 18">
    <path fill="#545457" fill-rule="nonzero" d="M11.714 18C6.042 18 1.216 14.447.217 9.501-.493 5.988.542 2.887 3.269.274c.385-.37.565-.362.967 0l7.95 7.164c2.486 2.24 4.974 4.478 7.46 6.717.468.422.475.564.001.968-1.872 1.596-4.087 2.53-6.645 2.809-.462.05-.923.059-1.288.068zm-.069-3.322c-.02.01-.035.013-.042.021-.08.11-.155.222-.238.329-.558.724-1.322 1.041-2.293.936-.713-.077-1.352-.33-1.961-.663-.809-.442-1.498-1.255-1.157-2.438.057-.194.016-.249-.228-.197-1.046.222-1.892-.077-2.524-.857a4.21 4.21 0 0 1-.757-1.412c-.384-1.23-.047-2.042 1.137-2.735.034-.02.057-.056.089-.088-.742-.36-1.264-.863-1.351-1.629-.112-.994.313-1.851.942-2.632.489-.603 1.176-.886 2.011-.87-.427-.397-.852-.757-1.229-1.155-.252-.266-.383-.2-.591.033C1.046 4.027.302 7.061 1.426 10.38c1.872 5.533 8.671 8.293 14.537 5.967a10.823 10.823 0 0 0 2.7-1.546c.08-.063.261-.109.08-.266-.444-.386-.873-.787-1.362-1.23.003.494-.086.908-.378 1.24-.875.996-2.047 1.472-3.439 1.419-.916-.036-1.52-.563-1.919-1.285zm.477-5.962c0 1.4-.018 2.84.009 4.279.009.503.15 1 .431 1.447.302.481.752.754 1.377.698a3.78 3.78 0 0 0 2.066-.82c.41-.33.512-.756.382-1.233a2.78 2.78 0 0 0-.824-1.338c-1.132-1.026-2.296-2.028-3.441-3.033zm-1.738-.696c-1.641 0-3.248-.018-4.854.01a3.453 3.453 0 0 0-1.564.403c-.453.241-.736.584-.727 1.068.015.817.373 1.519 1 2.093.325.297.755.37 1.22.273.56-.117 1.068-.344 1.468-.697 1.158-1.023 2.282-2.077 3.457-3.15zm.041-.87c-1.058-.963-2.07-1.887-3.085-2.805a4.463 4.463 0 0 0-1.57-.936c-.786-.266-1.391-.083-1.872.542-.154.2-.264.418-.377.637-.666 1.283-.197 2.164 1.325 2.483.024.005.05.004.073.01.357.095.723.069 1.088.069h4.418zm.666 1.586c-.078-.027-.102.022-.133.05-1.08.967-2.168 1.93-3.237 2.909a3.057 3.057 0 0 0-.834 1.26c-.226.651-.037 1.16.587 1.551.472.296.991.504 1.56.605.726.13 1.295-.103 1.651-.69.243-.4.378-.837.403-1.289.078-1.44.02-2.88.03-4.322 0-.027-.02-.055-.027-.074z"/>
</svg>
