<svg id="svg" xmlns="http://www.w3.org/2000/svg" xmlns:xlink="http://www.w3.org/1999/xlink" width="400" height="410.958904109589" viewBox="0, 0, 400,410.958904109589"><g id="svgg"><path id="path0" d="M143.205 99.952 C 131.530 105.028,123.311 118.904,123.298 133.562 L 123.288 145.205 107.045 145.205 C 84.096 145.205,82.192 147.805,82.192 179.133 C 82.192 204.085,82.310 204.536,90.411 210.526 L 98.630 216.602 98.672 265.151 C 98.695 291.852,99.882 315.548,101.310 317.808 C 105.322 324.160,288.036 325.474,297.581 319.220 C 304.057 314.977,304.110 314.546,304.110 265.886 C 304.110 214.732,303.714 216.667,316.343 206.056 C 319.543 203.368,320.548 196.701,320.548 178.170 C 320.548 147.912,318.507 145.205,295.695 145.205 L 279.452 145.205 279.452 133.282 C 279.452 96.143,240.572 84.862,213.563 114.163 C 200.385 128.459,200.557 128.442,190.974 116.432 C 176.973 98.885,159.515 92.862,143.205 99.952 M165.192 115.501 C 174.712 120.596,186.301 134.983,186.301 141.705 C 186.301 147.986,151.804 146.324,145.205 139.726 C 131.365 125.886,147.670 106.124,165.192 115.501 M256.673 118.286 C 270.534 131.307,261.727 143.134,236.998 144.709 C 216.565 146.010,212.712 142.481,220.907 129.973 C 231.461 113.867,246.676 108.895,256.673 118.286 M191.239 177.397 L 192.067 191.781 145.349 191.781 L 98.630 191.781 98.630 178.539 C 98.630 160.742,96.654 161.415,146.412 162.263 L 190.411 163.014 191.239 177.397 M302.740 176.712 L 302.740 190.411 256.849 191.162 L 210.959 191.913 210.959 178.605 C 210.959 160.732,208.964 161.415,258.741 162.263 L 302.740 163.014 302.740 176.712 M191.160 256.781 C 192.044 312.446,196.366 307.497,147.945 306.275 L 116.438 305.479 115.683 260.379 C 114.713 202.479,110.670 207.912,154.054 208.824 L 190.411 209.589 191.160 256.781 M287.051 256.781 C 287.935 312.446,292.256 307.497,243.836 306.275 L 212.329 305.479 211.573 260.379 C 210.603 202.479,206.560 207.912,249.945 208.824 L 286.301 209.589 287.051 256.781 " stroke="none" fill="#565657" fill-rule="evenodd"></path></g></svg>