<svg xmlns="http://www.w3.org/2000/svg" width="24" height="25" viewBox="0 0 24 25">
    <path fill="#565657" fill-rule="nonzero" d="M12 0C5.4 0 0 5.503 0 12.227c0 6.723 5.4 12.226 12 12.226s12-5.503 12-12.226C24 5.503 18.6 0 12 0zm0 23.23c-5.94 0-10.8-4.95-10.8-11.003S6.06 1.223 12 1.223s10.8 4.951 10.8 11.004c0 6.052-4.86 11.003-10.8 11.003zm.771-13.282v9.284c0 .593-1.2.594-1.2 0V9.948c0-.594 1.2-.593 1.2 0zm.086-3.537c0 .487-.385.884-.857.884s-.857-.397-.857-.884.385-.885.857-.885.857.398.857.885z"/>
</svg>
