<?xml version="1.0" encoding="UTF-8"?>
<svg width="20px" height="20px" viewBox="0 0 20 20" version="1.1" xmlns="http://www.w3.org/2000/svg" xmlns:xlink="http://www.w3.org/1999/xlink">
    <!-- Generator: Sketch 52.6 (67491) - http://www.bohemiancoding.com/sketch -->
    <title>Nutrition Info Icon</title>
    <desc>Created with Sketch.</desc>
    <g id="Page-2" stroke="none" stroke-width="1" fill="none" fill-rule="evenodd" opacity="0.300000012">
        <g id="2B" transform="translate(-33.000000, -745.000000)" fill="#000000">
            <g id="Group-4" transform="translate(33.000000, 745.000000)">
                <g id="Nutrition-Info-Icon">
                    <path d="M9.58333333,0.416666667 C4.3125,0.416666667 0,4.72916667 0,10 C0,15.2708333 4.3125,19.5833333 9.58333333,19.5833333 C14.8541667,19.5833333 19.1666667,15.2708333 19.1666667,10 C19.1666667,4.72916667 14.8541667,0.416666667 9.58333333,0.416666667 Z M9.58333333,17.7864583 C5.27083333,17.7864583 1.796875,14.3125 1.796875,10 C1.796875,5.6875 5.27083333,2.21354167 9.58333333,2.21354167 C13.8958333,2.21354167 17.3697917,5.6875 17.3697917,10 C17.3697917,14.3125 13.8958333,17.7864583 9.58333333,17.7864583 Z" id="Shape" fill-rule="nonzero"></path>
                    <polygon id="Path" points="8.33333333 8.75 10.8333333 8.75 10.8333333 14.5833333 8.33333333 14.5833333"></polygon>
                    <path d="M10.8333333,5.83333333 C10.8333333,6.52395333 10.2739533,7.08333333 9.58333333,7.08333333 C8.89271333,7.08333333 8.33333333,6.52395333 8.33333333,5.83333333 C8.33333333,5.14271333 8.89271333,4.58333333 9.58333333,4.58333333 C10.2739533,4.58333333 10.8333333,5.14271333 10.8333333,5.83333333" id="Path"></path>
                </g>
            </g>
        </g>
    </g>
</svg>