<svg xmlns="http://www.w3.org/2000/svg" width="23" height="23" viewBox="0 0 23 23">
    <path fill="#565657" fill-rule="nonzero" d="M11.476 4.807c-.294 0-.49-.196-.49-.49V.49c0-.295.196-.49.49-.49.295 0 .491.195.491.49v3.824c-.001.296-.197.492-.49.492zm4.07 3.187V.49c0-.294-.196-.49-.49-.49s-.49.196-.49.49v7.013h-3.09c-.294 0-.49.196-.49.49 0 .295.196.491.49.491h3.58c.294 0 .49-.245.49-.49zm-7.16 0V.49c0-.294-.196-.49-.49-.49s-.49.196-.49.49v7.504c0 .294.196.49.49.49s.49-.245.49-.49zm14.614 0c0-.295-.196-.49-.49-.49h-3.874c-.295 0-.49.195-.49.49 0 .294.195.49.49.49h3.824c.295 0 .54-.245.54-.49zm0 7.16v-3.58c0-.294-.196-.49-.49-.49h-3.874c-.295 0-.49.196-.49.49v3.58c0 .294.195.49.49.49.294 0 .49-.196.49-.49v-3.09h2.844v3.09c0 .294.196.49.49.49.295 0 .54-.245.54-.49zM4.807 7.994c0-.295-.196-.49-.49-.49H.49c-.294 0-.49.195-.49.49 0 .294.196.49.49.49h3.825a.492.492 0 0 0 .492-.49zm7.159 7.16v-3.58c0-.294-.196-.49-.49-.49H.49c-.294 0-.49.196-.49.49s.196.49.49.49h10.495v3.09c0 .294.196.49.49.49.295 0 .49-.245.49-.49zm-3.58 0c0-.295-.196-.49-.49-.49H.49c-.294 0-.49.195-.49.49 0 .294.196.49.49.49h7.406c.294 0 .49-.245.49-.49zm0 7.355v-3.775c0-.294-.196-.49-.49-.49s-.49.196-.49.49v3.775c0 .295.196.49.49.49a.493.493 0 0 0 .49-.49zm14.614 0c0-.294-.196-.49-.49-.49h-3.874c-.295 0-.49.196-.49.49 0 .295.195.49.49.49h3.824c.295 0 .54-.245.54-.49zm0-3.776c0-.294-.196-.49-.49-.49h-6.963v-6.67c0-.294-.197-.49-.49-.49-.295 0-.491.196-.491.49v7.16c0 .294.196.49.49.49h7.406c.293 0 .538-.245.538-.49zm-7.453 3.776c0-.294-.197-.49-.49-.49h-3.09v-3.285c0-.294-.196-.49-.49-.49-.295 0-.49.196-.49.49v3.776c0 .294.195.49.49.49h3.58a.493.493 0 0 0 .49-.49zm-10.74 0v-3.775c0-.294-.196-.49-.49-.49L.49 18.242c-.294 0-.49.197-.49.49v3.776c0 .295.196.49.49.49h3.825a.492.492 0 0 0 .492-.489zM.98 19.223h2.844v2.795L.98 22.02v-2.796zM4.807 4.267V.49c0-.294-.196-.49-.49-.49L.49.001c-.293 0-.489.196-.489.49v3.775c0 .294.196.49.49.49h3.825a.49.49 0 0 0 .49-.489zM.98.981h2.844v2.795H.98V.982zM23 4.267V.49c0-.294-.196-.49-.49-.49l-3.874.001c-.295 0-.49.196-.49.49v3.776c0 .294.195.49.49.49h3.824c.295 0 .54-.245.54-.49zM19.126.981h2.844v2.795h-2.844V.982z" opacity=".75"/>
</svg>
