<svg xmlns="http://www.w3.org/2000/svg" xmlns:xlink="http://www.w3.org/1999/xlink" width="128" height="151" viewBox="0 0 128 151">
    <defs>
        <linearGradient id="a" x1="50%" x2="50%" y1="0%" y2="100%">
            <stop offset="0%" stop-color="#EEE"/>
            <stop offset="100%" stop-color="#CBCFDA"/>
        </linearGradient>
        <radialGradient id="d" cy="12.688%" r="177.574%" fx="50%" fy="12.688%" gradientTransform="matrix(0 .42144 -1 0 .627 -.084)">
            <stop offset="1.782%" stop-color="#FFF" stop-opacity=".95"/>
            <stop offset="100%" stop-color="#FFF" stop-opacity=".9"/>
        </radialGradient>
        <rect id="c" width="41.723" height="99" x="43" y="11" rx="2.614"/>
        <filter id="b" width="356.5%" height="208.1%" x="-128.2%" y="-36.9%" filterUnits="objectBoundingBox">
            <feMorphology in="SourceAlpha" radius="2" result="shadowSpreadOuter1"/>
            <feOffset dy="4" in="shadowSpreadOuter1" result="shadowOffsetOuter1"/>
            <feGaussianBlur in="shadowOffsetOuter1" result="shadowBlurOuter1" stdDeviation="4.5"/>
            <feComposite in="shadowBlurOuter1" in2="SourceAlpha" operator="out" result="shadowBlurOuter1"/>
            <feColorMatrix in="shadowBlurOuter1" result="shadowMatrixOuter1" values="0 0 0 0 0.0676245133 0 0 0 0 0.0722260564 0 0 0 0 0.0808088861 0 0 0 0.1 0"/>
            <feMorphology in="SourceAlpha" radius="3.5" result="shadowSpreadOuter2"/>
            <feOffset dy="17" in="shadowSpreadOuter2" result="shadowOffsetOuter2"/>
            <feGaussianBlur in="shadowOffsetOuter2" result="shadowBlurOuter2" stdDeviation="17.5"/>
            <feComposite in="shadowBlurOuter2" in2="SourceAlpha" operator="out" result="shadowBlurOuter2"/>
            <feColorMatrix in="shadowBlurOuter2" result="shadowMatrixOuter2" values="0 0 0 0 0.2 0 0 0 0 0.219607843 0 0 0 0 0.28627451 0 0 0 0.15 0"/>
            <feMerge>
                <feMergeNode in="shadowMatrixOuter1"/>
                <feMergeNode in="shadowMatrixOuter2"/>
            </feMerge>
        </filter>
        <linearGradient id="g" x1="20.38%" x2="43.366%" y1="-29.802%" y2="79.37%">
            <stop offset="0%" stop-color="#FAC6BB"/>
            <stop offset="100%" stop-color="#EF373B"/>
        </linearGradient>
        <path id="f" d="M66.893 49.392L64 45.596l-2.894 3.796c-.973 1.27-.8 2.986.414 4.075l.014.012c1.36 1.233 3.574 1.233 4.947 0l.014-.012c1.2-1.089 1.373-2.805.4-4.075z"/>
        <filter id="e" width="277.4%" height="247.5%" x="-88.7%" y="-53.8%" filterUnits="objectBoundingBox">
            <feMorphology in="SourceAlpha" operator="dilate" radius=".75" result="shadowSpreadOuter1"/>
            <feOffset dy="2" in="shadowSpreadOuter1" result="shadowOffsetOuter1"/>
            <feMorphology in="SourceAlpha" radius="1" result="shadowInner"/>
            <feOffset dy="2" in="shadowInner" result="shadowInner"/>
            <feComposite in="shadowOffsetOuter1" in2="shadowInner" operator="out" result="shadowOffsetOuter1"/>
            <feGaussianBlur in="shadowOffsetOuter1" result="shadowBlurOuter1" stdDeviation="1.5"/>
            <feColorMatrix in="shadowBlurOuter1" values="0 0 0 0 0.988235294 0 0 0 0 0.866666667 0 0 0 0 0.807843137 0 0 0 1 0"/>
        </filter>
        <linearGradient id="j" x1="38.43%" x2="47.409%" y1="-29.802%" y2="79.37%">
            <stop offset="0%" stop-color="#FAC6BB"/>
            <stop offset="100%" stop-color="#EF373B"/>
        </linearGradient>
        <path id="i" d="M64 65c8.284 0 15-6.716 15-15 0-8.284-6.716-15-15-15"/>
        <filter id="h" width="183.3%" height="141.7%" x="-28.3%" y="-14.2%" filterUnits="objectBoundingBox">
            <feMorphology in="SourceAlpha" operator="dilate" radius=".75" result="shadowSpreadOuter1"/>
            <feOffset dx="2" dy="2" in="shadowSpreadOuter1" result="shadowOffsetOuter1"/>
            <feMorphology in="SourceAlpha" radius="1" result="shadowInner"/>
            <feOffset dx="2" dy="2" in="shadowInner" result="shadowInner"/>
            <feComposite in="shadowOffsetOuter1" in2="shadowInner" operator="out" result="shadowOffsetOuter1"/>
            <feGaussianBlur in="shadowOffsetOuter1" result="shadowBlurOuter1" stdDeviation="1.5"/>
            <feColorMatrix in="shadowBlurOuter1" values="0 0 0 0 0.988235294 0 0 0 0 0.866666667 0 0 0 0 0.807843137 0 0 0 1 0"/>
        </filter>
    </defs>
    <g fill="none" fill-rule="evenodd">
        <ellipse cx="63.888" cy="86.033" fill="url(#a)" opacity=".2" rx="63.888" ry="64.033"/>
        <use fill="#000" filter="url(#b)" xlink:href="#c"/>
        <use fill="url(#d)" xlink:href="#c"/>
        <g fill-rule="nonzero" stroke="#000" stroke-width=".5" opacity=".252">
            <path d="M84.97 119.19H43.091c-4.733 0-8.589-3.834-8.589-8.55V8.55c0-4.712 3.85-8.55 8.589-8.55h41.877c4.733 0 8.589 3.833 8.589 8.55v102.09c-.006 4.716-3.856 8.55-8.589 8.55z"/>
            <path d="M44.63 115.225c-3.335 0-6.051-2.703-6.051-6.024V9.534c0-3.321 2.716-6.025 6.051-6.025h5.579l.2.304c.341.517.336 1.197.336 1.647.01.36.61 1.48 1.597 1.6.257.032 1.113.068 3.713.068 3.347 0 7.728-.063 8.379-.073.678.01 5.053.073 8.4.073 2.6 0 3.456-.036 3.713-.068.988-.12 1.587-1.24 1.592-1.527 0-.518-.005-1.197.33-1.72l.2-.309h4.691c3.336 0 6.052 2.704 6.052 6.024v99.668c0 3.33-2.716 6.03-6.052 6.03H44.63z"/>
        </g>
        <g fill-rule="nonzero">
            <use fill="#000" filter="url(#e)" xlink:href="#f"/>
            <use stroke="url(#g)" stroke-width="1.5" xlink:href="#f"/>
        </g>
        <circle cx="64" cy="50" r="15" stroke="#000" stroke-width=".75" opacity=".172"/>
        <g fill-rule="nonzero">
            <use fill="#000" filter="url(#h)" xlink:href="#i"/>
            <use stroke="url(#j)" stroke-width="1.5" xlink:href="#i"/>
        </g>
    </g>
</svg>
