<?xml version="1.0" encoding="utf-8"?>
<!-- Generator: Adobe Illustrator 21.1.0, SVG Export Plug-In . SVG Version: 6.00 Build 0)  -->
<svg version="1.1" id="svg" xmlns="http://www.w3.org/2000/svg" xmlns:xlink="http://www.w3.org/1999/xlink" x="0px" y="0px"
	 viewBox="0 0 370 304" style="enable-background:new 0 0 370 304;" xml:space="preserve">
<style type="text/css">
	.st0{fill:#005BC3;}
</style>
<g id="svgg">
	<path id="path0" class="st0" d="M185.2,8.8C119.3,19.5,70.9,69.6,61.7,136.6l-0.9,6.4l-22.5,0.4l-22.5,0.4l28.6,31
		c15.7,17,29.1,31.1,29.7,31.2c0.6,0.1,14-13.8,29.8-31l28.7-31.2l-22.3-0.4c-25.9-0.4-24.1,1.2-19.6-17.5
		C120.8,2.3,297.8,4.4,325.4,128.7c22.4,100.7-95.1,180.7-182.1,124.1c-11.2-7.3-9.7-7.7-19,4.6l-7.5,10l6.5,4.6
		c77.7,55.2,192.7,18.2,223.1-71.8C381.4,96.2,293.1-8.7,185.2,8.8 M192.9,125.1l0.1,36l31.7,21.5c17.4,11.8,32.3,21.7,33.1,22
		c1.2,0.4,12.5-14.3,12.5-16.2c0-0.3-12.5-8.9-27.8-19.3l-27.8-18.8l-0.1-30.6l-0.1-30.6h-10.9h-10.9L192.9,125.1"/>
</g>
</svg>
