<?xml version="1.0" encoding="UTF-8"?>
<svg width="18px" height="16px" viewBox="0 0 18 16" version="1.1" xmlns="http://www.w3.org/2000/svg" xmlns:xlink="http://www.w3.org/1999/xlink">
    <!-- Generator: Sketch 52.6 (67491) - http://www.bohemiancoding.com/sketch -->
    <title>Sign-In Icon</title>
    <desc>Created with Sketch.</desc>
    <g id="Page-2" stroke="none" stroke-width="1" fill="none" fill-rule="evenodd" opacity="0.197544643">
        <g id="2B" transform="translate(-1209.000000, -737.000000)" fill="#000000">
            <g id="Sign-In-Icon" transform="translate(1209.000000, 737.000000)">
                <path d="M0,0 L0,4.8 L4.90909091,4.8 L4.90909091,0 L0,0 Z M3.50697442,3.42904166 L1.40295809,3.42904166 L1.40295809,1.37178124 L3.50697442,1.37178124 L3.50697442,3.42904166 Z" id="Shape" fill-rule="nonzero"></path>
                <path d="M0,11.2 L0,16 L4.90909091,16 L4.90909091,11.2 L0,11.2 Z M3.50697442,14.6292767 L1.40295809,14.6292767 L1.40295809,12.5723689 L3.50697442,12.5723689 L3.50697442,14.6292767 Z" id="Shape" fill-rule="nonzero"></path>
                <path d="M12.5454545,0 L12.5454545,4.8 L17.4545455,4.8 L17.4545455,0 L12.5454545,0 Z M16.0515874,3.42904166 L13.947571,3.42904166 L13.947571,1.37178124 L16.0515874,1.37178124 L16.0515874,3.42904166 Z" id="Shape" fill-rule="nonzero"></path>
                <polygon id="Path" points="16.0515874 5.86666667 16.0515874 9.8670517 12.5454545 9.8670517 12.5454545 11.2 17.4545455 11.2 17.4545455 5.86668667"></polygon>
                <polygon id="Path" points="12.5454545 12.8 12.5454545 16 13.9475861 16 13.9475861 14.0796928 16.0515934 14.0796928 16.0515934 16 17.4545455 16 17.4545455 12.8"></polygon>
                <polygon id="Path" points="6.54545455 0 6.54545455 1.37178124 9.45425455 1.37178124 9.45425455 4.8 10.9090909 4.8 10.9090909 0"></polygon>
                <polygon id="Path" points="9.92709403 5.86668693 9.92709403 8.56944419 7.09090909 8.56944419 7.09090909 12.6227694 9.92709403 12.6227694 9.92709403 16 11.345612 16 11.345612 11.2705801 8.50942703 11.2705801 8.50942703 9.91999189 11.345612 9.91999189 11.345612 7.2180453 12.7641299 7.2180453 12.7641299 8.56942393 14.1818182 8.56942393 14.1818182 5.86666667"></polygon>
                <polygon id="Path" points="6.54545455 14.4 8.18181818 14.4 8.18181818 16 6.54545455 16"></polygon>
                <polygon id="Path" points="3.81818182 8.53333333 5.45454545 8.53333333 5.45454545 10.1333333 3.81818182 10.1333333"></polygon>
                <polygon id="Path" points="6.24770669 2.66666667 6.24770669 6.06075415 0 6.06075415 0 10.1333333 1.38865694 10.1333333 1.38865694 7.41855205 7.63636364 7.41855205 7.63636364 2.66666667"></polygon>
            </g>
        </g>
    </g>
</svg>