<?xml version="1.0" encoding="utf-8"?>
<!-- Generator: Adobe Illustrator 21.1.0, SVG Export Plug-In . SVG Version: 6.00 Build 0)  -->
<svg version="1.1" id="Livello_1" xmlns="http://www.w3.org/2000/svg" xmlns:xlink="http://www.w3.org/1999/xlink" x="0px" y="0px"
	 viewBox="0 0 986 1366" style="enable-background:new 0 0 986 1366;" xml:space="preserve">
<style type="text/css">
	.st0{fill:#256BC0;}
</style>
<g transform="translate(0.000000,1366.000000) scale(0.100000,-0.100000)">
	<path class="st0" d="M2795,12901c-668-8-685-10-840-112c-118-78-224-236-245-365c-13-79-13-11095,0-11184c11-78,64-190,124-260
		c47-55,151-140,171-140c7,0,18-7,25-15s28-17,49-21c20-4,50-14,66-23c27-15,261-16,2706-16c2005,0,2679,3,2690,12c8,6,33,16,57,22
		c109,30,286,176,312,258c7,21,18,48,26,59c7,12,22,58,34,102l20,80v5536c0,5527,0,5536-20,5612c-11,41-27,85-34,97
		c-8,12-17,33-21,47c-12,41-78,122-137,167c-92,72-160,102-276,124c-104,19-157,20-2127,23C4264,12906,3103,12904,2795,12901z
		 M3315,12755c22-21,25-33,25-97c1-156,35-217,164-293l51-30h1290h1290l50,27c59,31,115,87,144,144c16,30,22,64,25,135
		c2,52,4,97,5,101s14,14,31,23c25,13,97,15,502,15c625-1,678-9,812-120c64-53,100-100,139-179l32-66V6830V1245l-38-76
		c-33-66-87-133-157-193c-23-20-119-62-181-80c-50-14-301-16-2652-16c-2190,0-2603,2-2639,14c-24,8-55,16-69,20
		c-48,11-124,60-185,121c-78,77-123,168-135,274c-6,45-8,2357-7,5586l3,5510l27,58c78,167,212,274,377,302c54,9,220,13,574,14l498,1
		L3315,12755z"/>
	<path class="st0" d="M4510,10424c-45-17-78-35-97-56c-21-22-22-33-25-245c-3-213-4-223-26-253c-28-38-22-70,14-70c31,0,74-42,74-71
		c0-14-44-65-132-153c-168-166-321-363-351-451c-6-16-17-41-26-55c-14-22-16-154-19-1285c-2-1284-2-1315,34-1315c13,0,34-30,34-49
		c0-6-11-11-25-11s-29-8-35-19c-11-21-14-318-4-345c3-9,14-16,23-16c10,0,25-6,35-13c16-12,14-16-23-49l-41-37v-160
		c0-160,9-211,36-211c16,0,45-40,38-52c-3-4-16-8-28-8c-43,0-47-17-44-196l3-169l33-14c35-16,41-33,16-53c-61-50-56-10-51-441l3-392
		l27-72c41-113,83-163,174-209c44-22,73-27,195-36c188-13,1083-4,1158,12c150,32,241,145,263,330c7,55,12,236,12,427v332l-37,38
		c-41,42-46,53-24,53c7,0,25,9,40,21l26,21l-2,161l-3,162l-41,20l-41,20l43,43l44,43v158c0,149-1,160-22,187c-13,16-32,36-43,46
		c-23,18-23,18,28,41l37,17l-2,167l-3,168l-37,18l-38,19l40,47l40,47v1235c0,1188-1,1236-19,1297c-11,35-24,69-29,75
		c-5,7-13,23-17,36c-20,64-169,245-376,457c-58,59-89,99-89,113c0,38,18,61,49,61c15,0,36,9,46,20c18,20,18,22-1,53
		c-17,28-20,58-24,247c-4,152-10,223-19,242c-8,15-34,37-60,50c-45,22-54,23-371,25C4671,10428,4518,10427,4510,10424z M5202,10331
		c33-29,33-29,36-140l4-110l-31-30l-32-31h-340h-340l-24,25c-24,23-25,31-25,134c0,117,9,153,44,169c13,7,145,11,348,11l328,1
		L5202,10331z M5211,9982c31-26,31-78,0-104c-22-17-48-18-377-18h-353l-15,22c-21,29-20,77,1,100c15,17,40,18,368,18
		S5189,9999,5211,9982z M5149,9781c5-7,11-36,14-65c6-46,12-56,59-100c114-104,145-135,203-201c155-177,219-276,254-389
		c21-68,21-76,21-1263V6568l-45-44c-66-63-62-120,10-163l35-20v-116c0-110-1-117-25-140c-13-14-28-25-32-25c-5,0-17-16-27-35
		c-16-30-17-38-6-65c7-17,27-38,44-47s34-21,38-27s8-62,8-125c0-93-3-118-17-133c-9-10-22-18-29-18c-17,0-54-53-54-79
		c0-13,21-41,50-69l51-48l-3-118l-3-117l-30-17c-75-42-77-116-4-165l34-23l3-324c2-268,0-338-13-400c-29-137-73-203-169-253l-61-32
		h-625h-625l-60,41c-76,52-88,66-121,137c-36,79-46,214-42,555l3,270l43,40c39,36,43,44,40,78c-2,31-10,43-38,62
		c-43,28-48,44-49,153c-1,85,12,149,30,149c6,0,21,11,34,25c43,42,29,111-27,139c-28,14-36,42-37,136c-1,105,7,148,31,156
		c33,10,58,46,58,83c0,30-7,42-42,73l-43,36l-3,94c-4,110,6,159,37,174c33,17,50,45,51,82c0,31-11,47-64,90c-15,12-16,124-14,1260
		l3,1247l29,55c82,155,223,329,387,476c87,77,98,95,99,151c0,23,5,45,12,49c30,19,93,22,346,21C5085,9795,5142,9792,5149,9781z"/>
	<path class="st0" d="M3498,1707c-53-40-68-68-68-128c0-75,15-103,73-135l52-29h1290c1233,0,1292,1,1327,18c78,39,105,93,91,179
		c-6,41-59,103-100,119c-14,5-545,9-1323,9H3542L3498,1707z"/>
</g>
</svg>
