<svg xmlns="http://www.w3.org/2000/svg" width="15" height="24" viewBox="0 0 15 24">
    <path fill="#545457" fill-rule="nonzero" d="M7.232 0C5.135 0 3.314 1.171 2.436 2.886a.512.512 0 0 0-.06.418c.04.14.14.258.275.325a.55.55 0 0 0 .433.02.528.528 0 0 0 .306-.298c.702-1.371 2.157-2.308 3.842-2.308 2.373 0 4.286 1.863 4.286 4.174 0 2.311-1.913 4.174-4.286 4.174-2.373 0-4.285-1.863-4.285-4.174a.516.516 0 0 0-.154-.374.548.548 0 0 0-.764 0c-.1.1-.156.235-.154.374 0 2.876 2.405 5.218 5.357 5.218 2.953 0 5.357-2.342 5.357-5.218C12.59 2.342 10.185 0 7.232 0zM2.411 10.696C1.086 10.696 0 11.753 0 13.044c0 1.29 1.086 2.347 2.41 2.347 1.325 0 2.411-1.057 2.411-2.347s-1.086-2.348-2.41-2.348zm0 1.043c.746 0 1.339.578 1.339 1.305 0 .726-.593 1.304-1.34 1.304-.745 0-1.339-.578-1.339-1.304 0-.727.594-1.305 1.34-1.305zm8.571 1.565c-2.213 0-4.018 1.758-4.018 3.913 0 2.156 1.805 3.913 4.018 3.913S15 19.373 15 17.217c0-2.155-1.805-3.913-4.018-3.913zm0 1.044c1.633 0 2.947 1.279 2.947 2.87 0 1.59-1.314 2.869-2.947 2.869s-2.946-1.279-2.946-2.87c0-1.59 1.313-2.87 2.946-2.87zM3.75 19.304c-1.325 0-2.41 1.058-2.41 2.348C1.34 22.942 2.424 24 3.75 24c1.325 0 2.41-1.058 2.41-2.348 0-1.29-1.085-2.348-2.41-2.348zm0 1.044c.746 0 1.34.578 1.34 1.304 0 .727-.594 1.305-1.34 1.305-.746 0-1.34-.578-1.34-1.305 0-.726.594-1.304 1.34-1.304z"/>
</svg>
