<?xml version="1.0" encoding="UTF-8"?>
<svg width="13px" height="21px" viewBox="0 0 13 21" version="1.1" xmlns="http://www.w3.org/2000/svg" xmlns:xlink="http://www.w3.org/1999/xlink">
    <!-- Generator: Sketch 52.6 (67491) - http://www.bohemiancoding.com/sketch -->
    <title>sparkling_icon</title>
    <desc>Created with Sketch.</desc>
    <g id="Page-1" stroke="none" stroke-width="1" fill="none" fill-rule="evenodd">
        <g id="Bobcat-Dispenser" transform="translate(-447.000000, -261.000000)" fill="#000000" fill-rule="nonzero">
            <g id="sparkling_icon" transform="translate(447.000000, 260.298990)">
                <path d="M6.26785714,0.70111992 C4.45061964,0.70111992 2.87183929,1.72561782 2.11110714,3.22612846 C2.04218857,3.33490789 2.02314589,3.46776415 2.05851286,3.59170915 C2.0938775,3.71475482 2.18093107,3.81818612 2.29789857,3.87614354 C2.41487768,3.93320846 2.55088786,3.93944908 2.67241464,3.89308474 C2.79483286,3.84672064 2.89095625,3.75220515 2.93810214,3.63273176 C3.54657179,2.43347824 4.80703786,1.61404883 6.26795929,1.61404883 C8.32460571,1.61404883 9.982245,3.24395988 9.982245,5.26620365 C9.982245,7.28844743 8.32460571,8.91835847 6.26795929,8.91835847 C4.21131286,8.91835847 2.55367357,7.28844743 2.55367357,5.26620365 C2.55548707,5.1440482 2.50742607,5.02634838 2.4203725,4.93897058 C2.33241125,4.8524807 2.21362143,4.8034414 2.08938321,4.8034414 C1.965145,4.8034414 1.84635286,4.8524807 1.75839393,4.93897058 C1.67134036,5.02635066 1.62327982,5.1440482 1.62509286,5.26620365 C1.62509286,7.78231006 3.70894643,9.83139717 6.26795,9.83139717 C8.82695357,9.83139717 10.9108071,7.78240136 10.9108071,5.26620365 C10.9108071,2.75000594 8.82695357,0.701010127 6.26795,0.701010127 L6.26785714,0.70111992 Z M2.08928571,10.0597666 C0.941269643,10.0597666 0,10.9852912 0,12.1141037 C0,13.2429163 0.941269643,14.1684408 2.08928571,14.1684408 C3.23730179,14.1684408 4.17857143,13.2429163 4.17857143,12.1141037 C4.17857143,10.9852912 3.23730179,10.0597666 2.08928571,10.0597666 Z M2.08928571,10.9728053 C2.73585,10.9728053 3.25,11.4783549 3.25,12.1141037 C3.25,12.7498526 2.73585,13.2554021 2.08928571,13.2554021 C1.44272143,13.2554021 0.928571429,12.7498526 0.928571429,12.1141037 C0.928571429,11.4783549 1.44272143,10.9728053 2.08928571,10.9728053 Z M9.51785714,12.3423634 C7.5999625,12.3423634 6.03571429,13.8804456 6.03571429,15.7662585 C6.03571429,17.6520715 7.5999625,19.1901537 9.51785714,19.1901537 C11.4357518,19.1901537 13,17.6520715 13,15.7662585 C13,13.8804456 11.4357518,12.3423634 9.51785714,12.3423634 Z M9.51785714,13.2554021 C10.9333946,13.2554021 12.0714286,14.3743995 12.0714286,15.7662585 C12.0714286,17.1581176 10.9333946,18.277115 9.51785714,18.277115 C8.10231964,18.277115 6.96428571,17.1581176 6.96428571,15.7662585 C6.96428571,14.3743995 8.10231964,13.2554021 9.51785714,13.2554021 Z M3.25,17.592336 C2.10198393,17.592336 1.16071429,18.5178605 1.16071429,19.646673 C1.16071429,20.7754856 2.10198393,21.7010101 3.25,21.7010101 C4.39801607,21.7010101 5.33928571,20.7754856 5.33928571,19.646673 C5.33928571,18.5178605 4.39801607,17.592336 3.25,17.592336 Z M3.25,18.5053747 C3.89656429,18.5053747 4.41071429,19.0109242 4.41071429,19.646673 C4.41071429,20.2824219 3.89656429,20.7879714 3.25,20.7879714 C2.60343571,20.7879714 2.08928571,20.2824219 2.08928571,19.646673 C2.08928571,19.0109242 2.60343571,18.5053747 3.25,18.5053747 Z" id="Shape"></path>
            </g>
        </g>
    </g>
</svg>