<svg xmlns="http://www.w3.org/2000/svg" width="17" height="20" viewBox="0 0 17 20">
    <g fill="none" fill-rule="evenodd">
        <path fill="#CBAD5C" d="M16.451 12.742c0 4.009-3.683 7.258-8.226 7.258C3.682 20 0 16.75 0 12.742 0 8.72 2.573 4.607 7.72.407a.8.8 0 0 1 1.011 0c5.147 4.2 7.72 8.312 7.72 12.335z"/>
        <path fill="#FFF" fill-rule="nonzero" d="M6.136 15.49c-.42.216-.91-.133-.83-.592l.399-2.28-1.69-1.615a.558.558 0 0 1 .317-.958l2.336-.332 1.044-2.075a.578.578 0 0 1 1.027 0l1.044 2.075 2.336.332c.47.067.657.633.317.958l-1.69 1.615.4 2.28c.08.459-.412.808-.831.592l-2.09-1.077-2.089 1.077z"/>
    </g>
</svg>
