<?xml version="1.0" encoding="UTF-8"?>
<svg width="17px" height="19px" viewBox="0 0 17 19" version="1.1" xmlns="http://www.w3.org/2000/svg" xmlns:xlink="http://www.w3.org/1999/xlink">
    <!-- Generator: Sketch 52.6 (67491) - http://www.bohemiancoding.com/sketch -->
    <title>temperature_icon</title>
    <desc>Created with Sketch.</desc>
    <g id="Page-1" stroke="none" stroke-width="1" fill="none" fill-rule="evenodd" opacity="0.800000012">
        <g id="Bobcat-Dispenser" transform="translate(-448.000000, -429.000000)" fill="#000000">
            <g id="temperature_icon" transform="translate(448.000000, 429.500000)">
                <path d="M16.7580493,11.0719772 C16.7369196,10.9936557 16.6864437,10.9283853 16.6171851,10.8880382 C16.5479265,10.8476912 16.4657549,10.8381976 16.3882804,10.8595574 L14.4924807,11.3733968 L14.4924807,11.3722102 C14.3058367,11.4113725 14.1121548,11.3852637 13.9419457,11.2998219 L10.2642999,9.15189781 C10.1997383,9.12935043 10.1574775,9.06882802 10.1574775,9.00000015 C10.1574775,8.93117228 10.1997353,8.87065018 10.2642999,8.84810249 L13.9419457,6.70017844 C14.1121578,6.61473601 14.3058337,6.58862784 14.4924807,6.62779009 L16.3882804,7.1416295 L16.3882804,7.14044287 C16.4657549,7.16180363 16.5479265,7.15231003 16.6171851,7.11196206 C16.6864437,7.071615 16.7369205,7.00634458 16.7580493,6.92802311 L16.9893011,6.04750275 C17.0104306,5.96918128 16.9998658,5.88611149 16.9611282,5.81609578 C16.9212174,5.74608007 16.8554808,5.69505157 16.7791782,5.67369173 L15.3071583,5.27614517 L15.3059845,5.27495824 C15.1463384,5.23223854 15.0512539,5.0672868 15.0935146,4.90469251 L15.4867625,3.41658151 C15.507892,3.33826004 15.4973272,3.25519025 15.4585897,3.18517454 C15.4186789,3.11515883 15.3529422,3.06413033 15.2766396,3.04277048 L14.4056404,2.80899087 L14.4044666,2.80899087 C14.328164,2.78763011 14.2459955,2.79712371 14.1767369,2.83747168 C14.1074782,2.87781874 14.0558295,2.94308916 14.0358726,3.02141063 L13.5275894,4.94148819 C13.4688967,5.12305451 13.3503364,5.27970352 13.1906872,5.38530278 L9.51304146,7.53322683 C9.36865525,7.61510878 9.25126989,7.53322683 9.25126989,7.38132917 L9.25126989,3.08778991 C9.26183464,2.89554519 9.33696343,2.71160017 9.46491473,2.5680265 L10.8536032,1.16415794 L10.8524294,1.16534487 C10.90995,1.10838325 10.9416449,1.03006178 10.9416449,0.949364628 C10.9416449,0.868667477 10.90995,0.790346006 10.8524294,0.733384383 L10.2150168,0.0890041301 L10.2161909,0.0901907546 C10.1598452,0.0320412924 10.0823707,0 10.0025461,0 C9.92272153,0 9.84524695,0.0320412924 9.78890126,0.0901907546 L8.71364514,1.18075519 C8.65729945,1.23771682 8.57982487,1.26975811 8.5000003,1.26975811 C8.42017574,1.26975811 8.34270116,1.23771682 8.28635547,1.18075519 L7.21109935,0.0901907546 C7.15475366,0.0320412924 7.07727908,0 6.99745452,0 C6.91762995,0 6.84015537,0.0320412924 6.78380968,0.0901907546 L6.14639716,0.734571008 L6.14757095,0.73338408 C6.09005026,0.790345702 6.05835543,0.868667173 6.05835543,0.949364324 C6.05835543,1.03006148 6.09005026,1.10838295 6.14757095,1.16534457 L7.53625937,2.56921312 L7.53508528,2.5680265 C7.66303658,2.71161839 7.73816417,2.89554823 7.74873011,3.08778991 L7.74873011,7.38132917 C7.74873011,7.54865355 7.63134476,7.61510878 7.48695854,7.53322683 L3.80931276,5.38530278 C3.64966663,5.2796853 3.53110628,5.12304235 3.4724106,4.94148819 L2.96412737,3.02141063 C2.94417168,2.94308916 2.89252176,2.87781874 2.82326314,2.83747168 C2.75400452,2.79712462 2.67183297,2.78763102 2.59553339,2.80899087 L1.72453416,3.04277048 L1.72336037,3.04277048 C1.64705778,3.06413124 1.58132114,3.11515883 1.54141036,3.18517454 C1.50267157,3.25519025 1.49210863,3.33826004 1.51323751,3.41658151 L1.90648537,4.90469251 C1.94874314,5.06727161 1.85366166,5.23221424 1.69401553,5.27495824 L0.221995582,5.6725048 L0.220821788,5.67369142 C0.144519203,5.69505218 0.0787825615,5.74607977 0.0388717806,5.81609548 C0.000132990104,5.88611119 -0.010429949,5.96918098 0.0106989344,6.04750245 L0.241950672,6.9280228 C0.263080457,7.00634428 0.31355628,7.0716147 0.382814903,7.11196176 C0.452073525,7.15230881 0.534245078,7.16180242 0.611719654,7.14044257 L2.50751931,6.62660316 L2.50751931,6.62778979 C2.69416329,6.58862753 2.88784522,6.61473631 3.05805429,6.70017814 L6.73570007,8.84810219 C6.80026172,8.87064957 6.84252249,8.93117198 6.84252249,8.99999985 C6.84252249,9.06882772 6.80026473,9.12934982 6.73570007,9.15189751 L3.05805429,11.2998216 C2.88784222,11.385264 2.6941663,11.4113722 2.50751931,11.3722099 L0.611719654,10.8583705 L0.611719654,10.8595571 C0.534245078,10.8381964 0.452073525,10.84769 0.382814903,10.8880379 C0.31355628,10.928385 0.263079555,10.9936554 0.241950672,11.0719769 L0.0106989344,11.9524972 C-0.0104305501,12.0308187 0.000134192145,12.1138885 0.0388717806,12.1839042 C0.0787825615,12.2539199 0.144519203,12.3049484 0.220821788,12.3263083 L1.69284174,12.7238548 L1.69401553,12.7250418 C1.85366166,12.7677615 1.94874614,12.9327132 1.90648537,13.0953075 L1.51323751,14.5834185 C1.49210803,14.66174 1.50267277,14.7448098 1.54141036,14.8148255 C1.58132114,14.8848412 1.64705778,14.9358697 1.72336037,14.9572295 L2.59435959,15.1910091 L2.59553339,15.1910091 C2.67183597,15.2123699 2.75400452,15.2028763 2.82326314,15.1625283 C2.89252176,15.1221813 2.94417048,15.0569108 2.96412737,14.9785894 L3.4724106,13.0585118 C3.53110327,12.8769455 3.64966363,12.7202965 3.80931276,12.6146972 L7.48695854,10.4667732 C7.63134476,10.3848912 7.74873011,10.4667732 7.74873011,10.6186708 L7.74873011,14.9122101 C7.73816537,15.1044548 7.66303658,15.2883998 7.53508528,15.4319735 L6.14639685,16.8358421 L6.14757065,16.8346551 C6.09004996,16.8916167 6.05835513,16.9699382 6.05835513,17.0506354 C6.05835513,17.1313325 6.09004996,17.209654 6.14757065,17.2666156 L6.78498317,17.9109959 L6.78380908,17.9098092 C6.84015477,17.9679587 6.91762935,18 6.99745391,18 C7.07727848,18 7.15475306,17.9679587 7.21109875,17.9098092 L8.28635487,16.8192448 C8.34270056,16.7622832 8.42017514,16.7302419 8.4999997,16.7302419 C8.57982427,16.7302419 8.65729885,16.7622832 8.71364454,16.8192448 L9.78890066,17.9098092 C9.84524635,17.9679587 9.92272093,18 10.0025455,18 C10.0823701,18 10.1598446,17.9679587 10.2161903,17.9098092 L10.8536029,17.265429 L10.8524291,17.2666159 C10.9099497,17.2096543 10.9416446,17.1313328 10.9416446,17.0506357 C10.9416446,16.9699385 10.9099497,16.8916171 10.8524291,16.8346554 L9.46374063,15.4307869 L9.46491473,15.4319735 C9.33696343,15.2883816 9.26183584,15.1044518 9.25126989,14.9122101 L9.25126989,10.6186708 C9.25126989,10.4513464 9.36865525,10.3848912 9.51304146,10.4667732 L13.1906872,12.6146972 C13.3503334,12.7203147 13.4688937,12.8769576 13.5275894,13.0585118 L14.0358726,14.9785894 C14.0558283,15.0569108 14.1074782,15.1221813 14.1767369,15.1625283 C14.2459955,15.2028754 14.328167,15.212369 14.4044666,15.1910091 L15.2754658,14.9572295 L15.2766396,14.9572295 C15.3529422,14.9358688 15.4186789,14.8848412 15.4585897,14.8148255 C15.4973284,14.7448098 15.5078914,14.66174 15.4867625,14.5834185 L15.0935146,13.0953075 C15.0512569,12.9327284 15.1463384,12.7677858 15.3059845,12.7250418 L16.7791764,12.3417432 C16.855479,12.3203827 16.9212156,12.2693549 16.9611264,12.1993391 C16.9998652,12.1293234 17.0104282,12.0462536 16.9892993,11.9679322 L16.7580493,11.0719772 Z" id="Path"></path>
            </g>
        </g>
    </g>
</svg>