<svg xmlns="http://www.w3.org/2000/svg" width="25" height="25" viewBox="0 0 25 25">
    <path fill="#545457" fill-rule="nonzero" d="M21.73 14.687a.323.323 0 0 0-.158-.194.349.349 0 0 0-.256-.03l-2.119.542v-.001a.99.99 0 0 1-.615-.076l-4.11-2.268a.17.17 0 0 1-.12-.16.17.17 0 0 1 .12-.16l4.11-2.268a.99.99 0 0 1 .615-.076l2.12.542a.349.349 0 0 0 .255-.03.323.323 0 0 0 .158-.195l.258-.93a.312.312 0 0 0-.031-.244.338.338 0 0 0-.204-.15l-1.645-.42-.001-.001a.318.318 0 0 1-.238-.39l.44-1.572a.312.312 0 0 0-.032-.244.338.338 0 0 0-.203-.15l-.974-.247a.346.346 0 0 0-.255.03.319.319 0 0 0-.158.194l-.568 2.027a.897.897 0 0 1-.376.468l-4.11 2.268c-.162.086-.293 0-.293-.16V6.258a.874.874 0 0 1 .238-.548l1.552-1.482v.001a.312.312 0 0 0 0-.456l-.713-.68.001.001A.343.343 0 0 0 14.18 3a.343.343 0 0 0-.238.095l-1.202 1.151a.347.347 0 0 1-.239.094.347.347 0 0 1-.239-.094l-1.202-1.15A.343.343 0 0 0 10.821 3a.343.343 0 0 0-.24.095l-.711.68a.312.312 0 0 0 0 .455l1.553 1.482-.001-.001a.874.874 0 0 1 .238.548v4.532c0 .177-.13.247-.292.16l-4.11-2.267a.897.897 0 0 1-.377-.468l-.568-2.027a.319.319 0 0 0-.158-.194.346.346 0 0 0-.254-.03l-.974.247a.338.338 0 0 0-.204.15.312.312 0 0 0-.032.244l.44 1.571a.318.318 0 0 1-.238.391l-1.645.42h-.001a.338.338 0 0 0-.204.151.312.312 0 0 0-.031.244l.258.93c.024.083.08.151.158.194.077.043.17.053.256.03l2.119-.542v.001a.99.99 0 0 1 .615.076l4.11 2.268a.17.17 0 0 1 .12.16.17.17 0 0 1-.12.16l-4.11 2.268a.99.99 0 0 1-.615.076l-2.12-.542a.349.349 0 0 0-.255.03.323.323 0 0 0-.158.195l-.258.93a.312.312 0 0 0 .031.244.338.338 0 0 0 .204.15l1.645.42.001.001c.179.045.285.22.238.39l-.44 1.572a.312.312 0 0 0 .032.244.338.338 0 0 0 .203.15l.974.247a.346.346 0 0 0 .255-.03.319.319 0 0 0 .158-.194l.568-2.027a.897.897 0 0 1 .376-.468l4.11-2.268c.162-.086.293 0 .293.16v4.533a.874.874 0 0 1-.238.548L9.87 20.771v-.001a.312.312 0 0 0 0 .456l.713.68-.001-.001c.063.061.15.095.239.095s.175-.034.238-.095l1.202-1.151a.347.347 0 0 1 .239-.094c.09 0 .176.034.239.094l1.202 1.15a.343.343 0 0 0 .478 0l.711-.68v.002a.312.312 0 0 0 0-.456l-1.553-1.482.001.001a.874.874 0 0 1-.238-.548v-4.532c0-.177.13-.247.292-.16l4.11 2.267c.179.111.311.276.377.468l.568 2.027c.022.082.08.151.158.194.077.042.169.053.254.03l.974-.247a.338.338 0 0 0 .204-.15.312.312 0 0 0 .032-.244l-.44-1.571a.318.318 0 0 1 .238-.391l1.646-.405a.338.338 0 0 0 .204-.15.312.312 0 0 0 .031-.244l-.258-.946z"/>
</svg>
