<svg xmlns="http://www.w3.org/2000/svg" xmlns:xlink="http://www.w3.org/1999/xlink" width="190" height="356" viewBox="0 0 190 356">
    <defs>
        <linearGradient id="a" x1="50%" x2="50%" y1="0%" y2="100%">
            <stop offset="0%" stop-color="#EEE"/>
            <stop offset="100%" stop-color="#CBCFDA"/>
        </linearGradient>
        <linearGradient id="b" x1="50%" x2="50%" y1="0%" y2="99.894%">
            <stop offset="0%" stop-color="#FFF"/>
            <stop offset="100%" stop-color="#F5F5F5"/>
        </linearGradient>
        <filter id="c" width="247.2%" height="314.5%" x="-73.6%" y="-107.3%" filterUnits="objectBoundingBox">
            <feGaussianBlur in="SourceGraphic" stdDeviation="11.44"/>
        </filter>
        <radialGradient id="f" cy="12.688%" r="78.581%" fx="50%" fy="12.688%" gradientTransform="matrix(0 .95235 -1 0 .627 -.35)">
            <stop offset="1.782%" stop-color="#FFF" stop-opacity=".95"/>
            <stop offset="100%" stop-color="#FFF" stop-opacity=".9"/>
        </radialGradient>
        <rect id="e" width="58.577" height="61.507" rx="6.692"/>
        <filter id="d" width="448.3%" height="431.7%" x="-174.1%" y="-112.2%" filterUnits="objectBoundingBox">
            <feMorphology in="SourceAlpha" radius="5" result="shadowSpreadOuter1"/>
            <feOffset dy="10" in="shadowSpreadOuter1" result="shadowOffsetOuter1"/>
            <feGaussianBlur in="shadowOffsetOuter1" result="shadowBlurOuter1" stdDeviation="8.5"/>
            <feComposite in="shadowBlurOuter1" in2="SourceAlpha" operator="out" result="shadowBlurOuter1"/>
            <feColorMatrix in="shadowBlurOuter1" result="shadowMatrixOuter1" values="0 0 0 0 0.0676245133 0 0 0 0 0.0722260564 0 0 0 0 0.0808088861 0 0 0 0.1 0"/>
            <feMorphology in="SourceAlpha" radius="6.5" result="shadowSpreadOuter2"/>
            <feOffset dy="33" in="shadowSpreadOuter2" result="shadowOffsetOuter2"/>
            <feGaussianBlur in="shadowOffsetOuter2" result="shadowBlurOuter2" stdDeviation="34"/>
            <feComposite in="shadowBlurOuter2" in2="SourceAlpha" operator="out" result="shadowBlurOuter2"/>
            <feColorMatrix in="shadowBlurOuter2" result="shadowMatrixOuter2" values="0 0 0 0 0.2 0 0 0 0 0.219607843 0 0 0 0 0.28627451 0 0 0 0.15 0"/>
            <feMerge>
                <feMergeNode in="shadowMatrixOuter1"/>
                <feMergeNode in="shadowMatrixOuter2"/>
            </feMerge>
        </filter>
        <path id="h" d="M29.01 19.594c-.487 0-.812-.325-.812-.812v-6.333c0-.488.325-.812.811-.812.487 0 .81.324.81.812v6.331c-.001.489-.325.814-.81.814zm6.726 5.276V12.448c0-.487-.324-.811-.81-.811-.487 0-.811.324-.811.811v11.61h-5.106c-.486 0-.81.324-.81.812 0 .487.324.812.81.812h5.916c.487 0 .81-.406.81-.812zm-11.834 0V12.448c0-.487-.324-.811-.81-.811-.487 0-.811.324-.811.811V24.87c0 .487.324.812.81.812.487 0 .811-.406.811-.812zm24.152 0c0-.487-.324-.812-.81-.812H40.84c-.486 0-.81.325-.81.812 0 .487.324.812.81.812h6.321c.487 0 .892-.406.892-.812zm0 11.852v-5.925c0-.487-.324-.812-.81-.812H40.84c-.486 0-.81.325-.81.812v5.925c0 .488.324.812.81.812.486 0 .81-.324.81-.812V31.61h4.7v5.113c0 .488.325.812.811.812.487 0 .892-.406.892-.812zM17.986 24.87c0-.487-.324-.812-.81-.812h-6.324c-.486 0-.81.325-.81.812 0 .487.324.812.81.812h6.322a.813.813 0 0 0 .812-.812zm11.832 11.852v-5.925c0-.487-.324-.812-.81-.812H10.851c-.486 0-.81.325-.81.812 0 .487.324.812.81.812h17.345v5.113c0 .488.324.812.81.812.487 0 .81-.406.81-.812h.001zm-5.916 0c0-.487-.324-.812-.81-.812h-12.24c-.486 0-.81.325-.81.812 0 .488.324.812.81.812h12.24c.486 0 .81-.406.81-.812zm0 12.178v-6.25c0-.487-.324-.812-.81-.812-.487 0-.811.325-.811.812v6.25c0 .487.324.812.81.812a.815.815 0 0 0 .811-.812zm24.152 0c0-.487-.324-.812-.81-.812H40.84c-.486 0-.81.325-.81.812 0 .487.324.812.81.812h6.321c.487-.002.892-.408.892-.812zm0-6.252c0-.487-.324-.812-.81-.812H35.736v-11.04c0-.488-.324-.813-.81-.813-.487 0-.811.325-.811.812v11.853c0 .487.324.812.81.812h12.24c.484 0 .89-.406.89-.812zM35.736 48.9c0-.487-.324-.812-.81-.812H29.82V42.65c0-.487-.324-.812-.81-.812-.487 0-.811.325-.811.812v6.25c0 .487.324.812.81.812h5.916a.815.815 0 0 0 .81-.812zm-17.75 0v-6.25c0-.487-.324-.812-.81-.812l-6.324-.002c-.486 0-.81.325-.81.812v6.25c0 .487.324.812.81.812h6.322a.813.813 0 0 0 .812-.81zm-6.323-5.44h4.7v4.626l-4.7.002V43.46zm6.323-24.76v-6.252c0-.487-.324-.811-.81-.811l-6.324.001c-.484 0-.808.325-.808.81v6.25c0 .488.324.813.81.813h6.321a.81.81 0 0 0 .811-.81zm-6.323-5.44h4.7v4.627l-4.7.002V13.26zm36.391 5.44v-6.252c0-.487-.324-.811-.81-.811l-6.403.001c-.486 0-.81.325-.81.812v6.25c0 .488.324.812.81.812h6.321c.487 0 .892-.406.892-.812zm-6.402-5.44h4.7v4.627l-4.7.002V13.26z"/>
        <filter id="g" width="264%" height="263.7%" x="-55.7%" y="-55.6%" filterUnits="objectBoundingBox">
            <feMorphology in="SourceAlpha" operator="dilate" radius=".669" result="shadowSpreadOuter1"/>
            <feOffset dx="10" dy="10" in="shadowSpreadOuter1" result="shadowOffsetOuter1"/>
            <feGaussianBlur in="shadowOffsetOuter1" result="shadowBlurOuter1" stdDeviation="8.5"/>
            <feComposite in="shadowBlurOuter1" in2="SourceAlpha" operator="out" result="shadowBlurOuter1"/>
            <feColorMatrix in="shadowBlurOuter1" values="0 0 0 0 0.705882353 0 0 0 0 0.858823529 0 0 0 0 1 0 0 0 1 0"/>
        </filter>
    </defs>
    <g fill="none" fill-rule="evenodd">
        <ellipse cx="94.814" cy="260.073" fill="url(#a)" opacity=".2" rx="94.814" ry="94.927"/>
        <g transform="translate(51.953)">
            <g stroke="#9C9C9C" stroke-width="2.288" opacity=".5">
                <path fill="url(#b)" d="M88.223 303.022c0 20.436-85.551 20.436-85.551 0S-.688 200.425 4.04 128.99C8.147 92.073 19.782 72.956 24.9 60.431c.634-5.713.852-12.073.655-19.08h38.231" opacity=".57" transform="matrix(-1 0 0 1 89.737 0)"/>
                <path fill="url(#b)" d="M86.847 303.022c0 20.436-85.551 20.436-85.551 0s-3.36-102.597 1.368-174.033c4.107-36.916 15.742-56.033 20.861-68.558.633-5.713 1.126-12.073 1.477-19.08h37.339" opacity=".57"/>
                <path d="M66.202 34.353H23.58c-3.437 0-3.922 6.96-.242 6.96h42.068"/>
                <path d="M66.202 34.39H23.58c-3.437 0-3.922 6.96-.242 6.96h.242"/>
                <path d="M21.56 34.39h42.622c3.437 0 3.922 6.96.243 6.96h-.243"/>
                <path fill="#E5E5E5" d="M41.887.133l-.009-.014h12.913c4.663 0 8.763 4.808 10.32 12.73.672 3.421.709 9.993.11 19.717l.98 1.823-45.208-.1c-.675-10.468-.675-17.478 0-21.027C22.47 5.492 26.388 1.296 30.782.776c4.23-.5 7.932-.715 11.105-.643z"/>
            </g>
            <path stroke="#FFF" stroke-width="2.288" d="M53.728 7.08v3.797M53.728 14.719v17.627"/>
            <ellipse cx="44.007" cy="276" fill="#BEDFFC" filter="url(#c)" rx="23.316" ry="16"/>
        </g>
        <g transform="translate(66.24 213.13)">
            <use fill="#000" filter="url(#d)" xlink:href="#e"/>
            <use fill="url(#f)" xlink:href="#e"/>
        </g>
        <g fill-rule="nonzero" transform="translate(66.24 213.13)">
            <use fill="#000" filter="url(#g)" xlink:href="#h"/>
            <use fill="#5EB2FC" stroke="#34A0FF" stroke-width="1.338" xlink:href="#h"/>
        </g>
    </g>
</svg>
