<svg xmlns="http://www.w3.org/2000/svg" xmlns:xlink="http://www.w3.org/1999/xlink" width="190" height="355" viewBox="0 0 190 355">
    <defs>
        <linearGradient id="a" x1="50%" x2="50%" y1="0%" y2="100%">
            <stop offset="0%" stop-color="#EEE"/>
            <stop offset="100%" stop-color="#CBCFDA"/>
        </linearGradient>
        <filter id="b" width="247.2%" height="314.5%" x="-73.6%" y="-107.3%" filterUnits="objectBoundingBox">
            <feGaussianBlur in="SourceGraphic" stdDeviation="11.44"/>
        </filter>
        <radialGradient id="e" cy="12.688%" r="78.581%" fx="50%" fy="12.688%" gradientTransform="matrix(0 .95235 -1 0 .627 -.35)">
            <stop offset="1.782%" stop-color="#FFF" stop-opacity=".95"/>
            <stop offset="100%" stop-color="#FFF" stop-opacity=".9"/>
        </radialGradient>
        <rect id="d" width="58.577" height="61.507" rx="6.692"/>
        <filter id="c" width="448.3%" height="431.7%" x="-174.1%" y="-112.2%" filterUnits="objectBoundingBox">
            <feMorphology in="SourceAlpha" radius="5" result="shadowSpreadOuter1"/>
            <feOffset dy="10" in="shadowSpreadOuter1" result="shadowOffsetOuter1"/>
            <feGaussianBlur in="shadowOffsetOuter1" result="shadowBlurOuter1" stdDeviation="8.5"/>
            <feComposite in="shadowBlurOuter1" in2="SourceAlpha" operator="out" result="shadowBlurOuter1"/>
            <feColorMatrix in="shadowBlurOuter1" result="shadowMatrixOuter1" values="0 0 0 0 0.0676245133 0 0 0 0 0.0722260564 0 0 0 0 0.0808088861 0 0 0 0.1 0"/>
            <feMorphology in="SourceAlpha" radius="6.5" result="shadowSpreadOuter2"/>
            <feOffset dy="33" in="shadowSpreadOuter2" result="shadowOffsetOuter2"/>
            <feGaussianBlur in="shadowOffsetOuter2" result="shadowBlurOuter2" stdDeviation="34"/>
            <feComposite in="shadowBlurOuter2" in2="SourceAlpha" operator="out" result="shadowBlurOuter2"/>
            <feColorMatrix in="shadowBlurOuter2" result="shadowMatrixOuter2" values="0 0 0 0 0.2 0 0 0 0 0.219607843 0 0 0 0 0.28627451 0 0 0 0.15 0"/>
            <feMerge>
                <feMergeNode in="shadowMatrixOuter1"/>
                <feMergeNode in="shadowMatrixOuter2"/>
            </feMerge>
        </filter>
        <path id="g" d="M29.01 19.594c-.487 0-.812-.325-.812-.812v-6.333c0-.488.325-.812.811-.812.487 0 .81.324.81.812v6.331c-.001.489-.325.814-.81.814zm6.726 5.276V12.448c0-.487-.324-.811-.81-.811-.487 0-.811.324-.811.811v11.61h-5.106c-.486 0-.81.324-.81.812 0 .487.324.812.81.812h5.916c.487 0 .81-.406.81-.812zm-11.834 0V12.448c0-.487-.324-.811-.81-.811-.487 0-.811.324-.811.811V24.87c0 .487.324.812.81.812.487 0 .811-.406.811-.812zm24.152 0c0-.487-.324-.812-.81-.812H40.84c-.486 0-.81.325-.81.812 0 .487.324.812.81.812h6.321c.487 0 .892-.406.892-.812zm0 11.852v-5.925c0-.487-.324-.812-.81-.812H40.84c-.486 0-.81.325-.81.812v5.925c0 .488.324.812.81.812.486 0 .81-.324.81-.812V31.61h4.7v5.113c0 .488.325.812.811.812.487 0 .892-.406.892-.812zM17.986 24.87c0-.487-.324-.812-.81-.812h-6.324c-.486 0-.81.325-.81.812 0 .487.324.812.81.812h6.322a.813.813 0 0 0 .812-.812zm11.832 11.852v-5.925c0-.487-.324-.812-.81-.812H10.851c-.486 0-.81.325-.81.812 0 .487.324.812.81.812h17.345v5.113c0 .488.324.812.81.812.487 0 .811-.406.811-.812zm-5.916 0c0-.487-.324-.812-.81-.812h-12.24c-.486 0-.81.325-.81.812 0 .488.324.812.81.812h12.24c.486 0 .81-.406.81-.812zm0 12.178v-6.25c0-.487-.324-.812-.81-.812-.487 0-.811.325-.811.812v6.25c0 .487.324.812.81.812a.815.815 0 0 0 .811-.812zm24.152 0c0-.487-.324-.812-.81-.812H40.84c-.486 0-.81.325-.81.812 0 .487.324.812.81.812h6.321c.487-.002.892-.408.892-.812zm0-6.252c0-.487-.324-.812-.81-.812H35.736v-11.04c0-.488-.324-.813-.81-.813-.487 0-.811.325-.811.812v11.853c0 .487.324.812.81.812h12.24c.484 0 .89-.406.89-.812zM35.736 48.9c0-.487-.324-.812-.81-.812H29.82V42.65c0-.487-.324-.812-.81-.812-.487 0-.811.325-.811.812v6.25c0 .487.324.812.81.812h5.916a.815.815 0 0 0 .81-.812zm-17.75 0v-6.25c0-.487-.324-.812-.81-.812l-6.324-.002c-.486 0-.81.325-.81.812v6.25c0 .487.324.812.81.812h6.322a.813.813 0 0 0 .812-.81zm-6.323-5.44h4.7v4.626l-4.7.002V43.46zm6.323-24.76v-6.252c0-.487-.324-.811-.81-.811l-6.324.001c-.484 0-.808.325-.808.81v6.25c0 .488.324.813.81.813h6.321a.81.81 0 0 0 .811-.81zm-6.323-5.44h4.7v4.627l-4.7.002V13.26zm36.391 5.44v-6.252c0-.487-.324-.811-.81-.811l-6.403.001c-.486 0-.81.325-.81.812v6.25c0 .488.324.812.81.812h6.321c.487 0 .892-.406.892-.812zm-6.402-5.44h4.7v4.627l-4.7.002V13.26z"/>
        <filter id="f" width="264%" height="263.7%" x="-55.7%" y="-55.6%" filterUnits="objectBoundingBox">
            <feMorphology in="SourceAlpha" operator="dilate" radius=".669" result="shadowSpreadOuter1"/>
            <feOffset dx="10" dy="10" in="shadowSpreadOuter1" result="shadowOffsetOuter1"/>
            <feGaussianBlur in="shadowOffsetOuter1" result="shadowBlurOuter1" stdDeviation="8.5"/>
            <feComposite in="shadowBlurOuter1" in2="SourceAlpha" operator="out" result="shadowBlurOuter1"/>
            <feColorMatrix in="shadowBlurOuter1" values="0 0 0 0 0.705882353 0 0 0 0 0.858823529 0 0 0 0 1 0 0 0 1 0"/>
        </filter>
    </defs>
    <g fill="none" fill-rule="evenodd">
        <path fill="#F3F3F5" stroke="#CFCFD0" stroke-width="2" d="M75 34h41V15.14c0-7.002-5.546-12.746-12.544-12.992A241.115 241.115 0 0 0 95 2c-2.513 0-4.986.04-7.42.118C80.568 2.344 75 8.095 75 15.11V34z"/>
        <ellipse cx="94.814" cy="260.073" fill="url(#a)" opacity=".2" rx="94.814" ry="94.927"/>
        <path fill="#CFCFD0" fill-rule="nonzero" d="M77.89 40.206h39.409l-.033 1.176c-.194 6.888.016 13.14.628 18.755.76 1.737 7.504 16.548 9.879 22.69 5.34 13.808 9.043 28.436 11 46.036.682 10.274 1.214 21.028 1.612 32.282 1.207 34.09 1.16 68.01.343 109.79-.09 4.616-.37 17.97-.398 19.356-.124 6.213-.18 10.019-.18 12.731 0 10.351-19.214 16.47-43.92 16.47a147.596 147.596 0 0 1-.206 0c-24.707 0-43.92-6.119-43.92-16.47 0-2.712-.056-6.518-.18-12.731-.028-1.386-.308-14.74-.398-19.356-.817-41.78-.864-75.7.342-109.79.399-11.254.93-22.008 1.612-32.282 1.958-17.6 5.66-32.228 11.001-46.037 2.375-6.142 9.12-20.954 9.879-22.69.621-5.645 1.105-11.926 1.452-18.843l.055-1.087h2.023zM54.392 303h.108c0 8.369 18.26 14.188 41.627 14.205 23.366-.017 41.528-5.814 41.528-14.183h.207c0-2.732.056-6.55.18-12.777.028-1.387.308-14.741.399-19.355.816-41.742.863-75.624-.342-109.664-.398-11.232-.929-21.963-1.604-32.161-1.93-17.347-5.585-31.783-10.856-45.414-2.434-6.292-9.587-21.967-9.922-22.787l-.06-.148-.018-.159c-.604-5.446-.833-11.467-.69-18.063H78.042c-.349 6.602-.824 12.623-1.427 18.063l-.018.159-.06.148c-.335.82-7.488 16.495-9.922 22.787-5.271 13.63-8.926 28.067-10.856 45.414-.675 10.198-1.206 20.93-1.604 32.161-1.205 34.04-1.158 67.922-.342 109.664.09 4.614.37 17.968.398 19.355.124 6.211.18 10.024.181 12.755z"/>
        <path stroke="#FFF" stroke-linecap="round" stroke-width="2" d="M105.68 12.947V15M105.68 18.89v11.1"/>
        <ellipse cx="95.96" cy="276" fill="#BEDFFC" filter="url(#b)" rx="23.316" ry="16"/>
        <g transform="translate(66.24 213.13)">
            <use fill="#000" filter="url(#c)" xlink:href="#d"/>
            <use fill="url(#e)" xlink:href="#d"/>
        </g>
        <g fill-rule="nonzero" transform="translate(66.24 213.13)">
            <use fill="#000" filter="url(#f)" xlink:href="#g"/>
            <use fill="#5EB2FC" stroke="#34A0FF" stroke-width="1.338" xlink:href="#g"/>
        </g>
        <rect width="45" height="8" x="73" y="34" fill="#FFF" stroke="#CFCFD0" stroke-linejoin="round" stroke-width="2" rx="3"/>
    </g>
</svg>
