<svg xmlns="http://www.w3.org/2000/svg" xmlns:xlink="http://www.w3.org/1999/xlink" width="260" height="261" viewBox="0 0 260 261">
    <defs>
        <linearGradient id="a" x1="50%" x2="50%" y1="0%" y2="100%">
            <stop offset="0%" stop-color="#EEE"/>
            <stop offset="100%" stop-color="#CBCFDA"/>
        </linearGradient>
        <path id="c" d="M171.875 112.295c-1.432-16.797-15.357-29.72-32.41-29.72a32.481 32.481 0 0 0-30.359 20.843 26.65 26.65 0 0 0-5.814-.641c-14.696 0-26.645 11.961-26.645 26.652v.28h-.73C62.73 129.708 52 140.448 52 153.645c0 13.196 10.729 23.93 23.918 23.93h98.405c18.014 0 32.677-14.662 32.677-32.695 0-18.01-14.668-32.68-32.677-32.68a28.542 28.542 0 0 0-2.448.094z"/>
        <filter id="b" width="192.9%" height="251.6%" x="-41.3%" y="-50.5%" filterUnits="objectBoundingBox">
            <feOffset dx="8" dy="24" in="SourceAlpha" result="shadowOffsetOuter1"/>
            <feGaussianBlur in="shadowOffsetOuter1" result="shadowBlurOuter1" stdDeviation="20"/>
            <feComposite in="shadowBlurOuter1" in2="SourceAlpha" operator="out" result="shadowBlurOuter1"/>
            <feColorMatrix in="shadowBlurOuter1" values="0 0 0 0 0.639884361 0 0 0 0 0.646707329 0 0 0 0 0.651466259 0 0 0 0.2 0"/>
        </filter>
        <linearGradient id="f" x1="8.719%" x2="50%" y1="0%" y2="100%">
            <stop offset="0%" stop-color="#FF3950"/>
            <stop offset="100%" stop-color="#FF313E"/>
        </linearGradient>
        <path id="e" d="M18 0C8.07 0 0 8.07 0 18c0 9.931 8.07 18 18 18s18-8.07 18-18c.078-9.93-7.991-18-18-18z"/>
        <filter id="d" width="213.9%" height="213.9%" x="-48.6%" y="-34.7%" filterUnits="objectBoundingBox">
            <feOffset dx="3" dy="8" in="SourceAlpha" result="shadowOffsetOuter1"/>
            <feGaussianBlur in="shadowOffsetOuter1" result="shadowBlurOuter1" stdDeviation="5.5"/>
            <feColorMatrix in="shadowBlurOuter1" values="0 0 0 0 1 0 0 0 0 0.192156863 0 0 0 0 0.243137255 0 0 0 0.5 0"/>
        </filter>
    </defs>
    <g fill="none" fill-rule="evenodd">
        <ellipse cx="129.921" cy="130.076" fill="url(#a)" opacity=".2" rx="129.921" ry="130.076"/>
        <use fill="#000" filter="url(#b)" xlink:href="#c"/>
        <path fill="#FFF" fill-opacity=".98" stroke="#CCC" stroke-linejoin="square" stroke-width=".81" d="M171.909 112.699l-.404.034-.034-.403c-1.418-16.646-15.222-29.35-32.007-29.35a32.076 32.076 0 0 0-29.98 20.583l-.125.326-.341-.076a26.244 26.244 0 0 0-5.726-.631c-14.469 0-26.24 11.777-26.24 26.247v.684h-1.134c-12.964 0-23.513 10.559-23.513 23.533 0 12.972 10.547 23.525 23.513 23.525h98.405c17.793 0 32.272-14.484 32.272-32.29 0-17.786-14.487-32.275-32.273-32.275a28.08 28.08 0 0 0-2.413.093z"/>
        <g>
            <g fill-rule="nonzero">
                <g transform="translate(26.921 17.927)">
                    <use fill="#000" filter="url(#d)" xlink:href="#e"/>
                    <use fill="url(#f)" xlink:href="#e"/>
                </g>
                <path fill="#FFF" d="M46.468 44.271h-3.094v-3.094h3.094zM46.468 38.177h-3.092l-.002-11.25h3.093z"/>
            </g>
        </g>
    </g>
</svg>
