<svg xmlns="http://www.w3.org/2000/svg" xmlns:xlink="http://www.w3.org/1999/xlink" width="432" height="459" viewBox="0 0 432 459">
    <defs>
        <linearGradient id="a" x1="50%" x2="50%" y1="0%" y2="100%">
            <stop offset="0%" stop-color="#EEE"/>
            <stop offset="100%" stop-color="#CBCFDA"/>
        </linearGradient>
        <filter id="b" width="149.3%" height="149.3%" x="-24.7%" y="-24.7%" filterUnits="objectBoundingBox">
            <feOffset dx="5" dy="5" in="SourceAlpha" result="shadowOffsetOuter1"/>
            <feGaussianBlur in="shadowOffsetOuter1" result="shadowBlurOuter1" stdDeviation="7"/>
            <feColorMatrix in="shadowBlurOuter1" result="shadowMatrixOuter1" values="0 0 0 0 0.822256098 0 0 0 0 0.914831047 0 0 0 0 1 0 0 0 1 0"/>
            <feMerge>
                <feMergeNode in="shadowMatrixOuter1"/>
                <feMergeNode in="SourceGraphic"/>
            </feMerge>
        </filter>
        <linearGradient id="e" x1="50%" x2="50%" y1="0%" y2="100%">
            <stop offset="0%" stop-color="#A2DCFF"/>
            <stop offset="100%" stop-color="#69B6FF"/>
        </linearGradient>
        <path id="d" d="M60.825.322c1.091 0 2.193.146 3.275.435.435.118.775.453.893.888.113.435-.01.898-.326 1.22L58.31 9.215l1.555 4.66 4.665 1.55 6.347-6.351c.322-.317.785-.44 1.22-.322.434.114.775.454.888.889a12.556 12.556 0 0 1-3.237 12.131h-.005c-3.053 3.049-7.278 3.97-11.215 3.219L49 34.52l24.448 24.443c1.654 1.65 1.654 4.367 0 6.021l-8.47 8.47c-1.653 1.654-4.366 1.654-6.015 0L34.514 49.004l-9.528 9.528c.752 3.942-.17 8.167-3.218 11.22A12.581 12.581 0 0 1 9.636 72.99a1.243 1.243 0 0 1-.888-.888 1.264 1.264 0 0 1 .321-1.22l6.352-6.347-1.55-4.665-4.66-1.554-6.352 6.356c-.321.317-.784.44-1.22.326a1.266 1.266 0 0 1-.888-.893A12.556 12.556 0 0 1 3.99 51.973c3.053-3.048 7.278-3.965 11.215-3.218l11.683-11.683c-1.324-1.664-1.234-4.107.302-5.643l1.224-1.229-16.22-16.22-.694.7c-.284.279-.68.411-1.073.354l-3.71-.529a1.266 1.266 0 0 1-.846-.515L.577 6.575a1.264 1.264 0 0 1 .137-1.626L4.948.719a1.29 1.29 0 0 1 .917-.373c.255.009.501.094.704.245l7.416 5.289c.278.203.468.506.515.846l.53 3.71c.056.392-.076.79-.355 1.068l-.7.7 16.22 16.22 1.233-1.23a4.257 4.257 0 0 1 3.006-1.247c.931 0 1.867.33 2.637.945L48.75 15.218c-.752-3.936.17-8.166 3.218-11.22A12.554 12.554 0 0 1 57.602.758c1.049-.284 2.131-.43 3.223-.435zM59.5 3.1c-.42-.029-.841-.024-1.247.08a10.053 10.053 0 0 0-4.504 2.595c-2.623 2.628-3.446 6.319-2.557 9.674.113.435-.01.898-.331 1.22L16.658 50.867c-.316.317-.78.444-1.214.331-3.351-.889-7.047-.066-9.675 2.562-1.88 1.88-2.57 4.433-2.594 7.027l4.802-4.802a1.263 1.263 0 0 1 1.29-.302l5.997 2c.374.122.671.42.799.793l1.994 5.998c.152.453.033.954-.302 1.29l-4.797 4.797c2.595-.024 5.137-.714 7.028-2.595 2.623-2.628 3.445-6.314 2.557-9.67a1.268 1.268 0 0 1 .33-1.214l34.204-34.204c.317-.316.78-.444 1.214-.33 3.351.888 7.042.066 9.67-2.557 1.881-1.886 2.571-4.434 2.595-7.028l-4.797 4.797a1.263 1.263 0 0 1-1.29.302L58.47 16.07a1.27 1.27 0 0 1-.794-.799l-1.999-5.997a1.263 1.263 0 0 1 .298-1.29l4.802-4.802c-.426 0-.851-.052-1.276-.08zm-53.528.146L3.246 5.974 7.61 12.08l2.552.364 1.139-1.143 1.144-1.14-.364-2.551-6.107-4.363zm28.46 25.21v.004c-.448 0-.878.166-1.223.51l-4.24 4.24c-.576.577-.647 1.39-.27 2.051l6.56-6.56c-.26-.142-.533-.246-.826-.246zm12.784 7.84l-2.453 2.448 24.449 24.448-1.782 1.782-24.448-24.443-2.453 2.453 24.448 24.448-1.786 1.782-24.444-24.448-2.453 2.452 24.449 24.449a1.698 1.698 0 0 0 2.448 0l8.474-8.474a1.704 1.704 0 0 0 0-2.453L47.217 36.297z"/>
        <filter id="c" width="203.5%" height="203.5%" x="-51.8%" y="-37%" filterUnits="objectBoundingBox">
            <feOffset dy="11" in="SourceAlpha" result="shadowOffsetOuter1"/>
            <feGaussianBlur in="shadowOffsetOuter1" result="shadowBlurOuter1" stdDeviation="11"/>
            <feColorMatrix in="shadowBlurOuter1" values="0 0 0 0 0.815720274 0 0 0 0 0.929424786 0 0 0 0 1 0 0 0 1 0"/>
        </filter>
    </defs>
    <g fill="none" fill-rule="evenodd">
        <g transform="translate(0 1)">
            <ellipse cx="215.6" cy="228.454" fill="url(#a)" opacity=".2" rx="215.6" ry="215.854"/>
            <path fill="#727478" fill-rule="nonzero" d="M130.88 150c-1.78-.038-2.71 1.46-3.2 2.376l-4.647 16.005c-3.498 1.097-6.828 2.556-10.017 4.234l-14.663-8.158c-1.252-.671-2.93-.4-3.924.62l-14.353 14.25c-1.033 1.032-1.252 2.775-.516 4.027l8.157 14.663c-1.678 3.188-3.136 6.505-4.233 10.016l-16.109 4.543c-1.368.4-2.388 1.769-2.375 3.202v20.342c-.013 1.42 1.007 2.8 2.375 3.2l16.212 4.647a59.862 59.862 0 0 0 4.13 9.913l-8.157 14.767c-.697 1.239-.478 2.917.516 3.924l14.353 14.353c1.007.981 2.685 1.213 3.924.516l14.663-8.157c3.176 1.665 6.532 3.033 10.017 4.13l4.646 16.109c.362 1.407 1.743 2.478 3.201 2.478h20.24c1.458 0 2.84-1.071 3.2-2.478l4.647-16.109c3.485-1.097 6.841-2.465 10.017-4.13l14.663 8.157c1.239.697 2.917.478 3.924-.516l14.353-14.353c.994-1.007 1.213-2.685.516-3.924l-8.157-14.767a59.864 59.864 0 0 0 4.13-9.913l16.212-4.646c1.368-.4 2.388-1.769 2.375-3.201v-20.342c.013-1.42-1.007-2.801-2.375-3.202l-16.109-4.543c-1.097-3.51-2.556-6.828-4.233-10.016l8.157-14.663c.736-1.252.517-2.995-.516-4.027l-14.353-14.25c-.994-1.02-2.672-1.291-3.924-.62l-14.663 8.158c-3.189-1.678-6.519-3.137-10.017-4.234l-4.646-16.005c-.4-1.368-1.782-2.388-3.201-2.375h-20.24zM141 206.175a19.782 19.782 0 0 1 19.826 19.827A19.782 19.782 0 0 1 141 245.827 19.782 19.782 0 0 1 121.174 226 19.782 19.782 0 0 1 141 206.174z" opacity=".1"/>
            <path fill="#FFF" stroke="#CBCBCC" stroke-width=".9" d="M140.451 175.95h150.87l-2.977-163.748a8.55 8.55 0 0 0-8.549-8.394H152.54a8.55 8.55 0 0 0-8.548 8.365l-3.541 163.777z"/>
            <path stroke="#CBCBCC" stroke-width=".9" d="M151.043.45c-5.65 0-10.256 4.532-10.348 10.182l-7.043 433.742-.002.226c0 7.704 6.246 13.95 13.95 13.95h137.461c.083 0 .166 0 .25-.002 7.703-.138 13.836-6.494 13.698-14.197l-7.75-433.736A10.35 10.35 0 0 0 280.913.45H151.043z"/>
            <path fill="#FFF" stroke="#CBCBCC" stroke-width=".9" d="M141.25 185.85l-4.867 255.802c-.002.083-.002.165-.002.248 0 7.207 5.842 13.05 13.05 13.05h133.128c.072 0 .145 0 .218-.002 7.206-.12 12.95-6.06 12.83-13.266l-4.27-255.832H141.249z"/>
            <path stroke="#000" stroke-linecap="round" stroke-linejoin="round" stroke-width=".594" d="M291.261 188.028a.859.859 0 0 0 .493-.578.894.894 0 0 0 .026-.146M291.095 188.04a.355.355 0 0 1-.034.002c-.028.001-.057-.001-.085-.001"/>
            <path stroke="#000" stroke-linecap="round" stroke-linejoin="round" stroke-width=".594" d="M291.78 187.305a.824.824 0 0 1-.201.457.788.788 0 0 1-.321.22.754.754 0 0 1-.172.044"/>
            <path stroke="#000" stroke-linecap="round" stroke-linejoin="round" stroke-width=".594" d="M208.754 85.61h.002" opacity=".2"/>
            <path stroke="#000" stroke-linecap="round" stroke-linejoin="round" stroke-width=".594" d="M270.054 188.043h-.001M291.1 188.037a.51.51 0 0 1-.019.003M291.07 188.04c.064.008.126.01.189 0"/>
            <path stroke="#000" stroke-linecap="round" stroke-linejoin="round" stroke-width=".594" d="M223.873 85.598l-.366 4.183-.09 1.045c-.031.35-.044.694-.158 1.035-.123.366-.3.602-.52.906-.273.377-.303.518-.303.976M208.743 85.599c.523.115 1.045.23 1.567.347M222.436 93.755H210.18M210.179 93.743c0-.458-.03-.6-.302-.976-.221-.304-.398-.54-.52-.906-.115-.34-.128-.685-.158-1.034l-.092-1.045-.365-4.182" opacity=".2"/>
            <path stroke="#000" stroke-linecap="round" stroke-linejoin="round" stroke-width=".594" d="M269.356 188.043h-.001"/>
            <path stroke="#CBCBCC" stroke-linecap="round" stroke-linejoin="round" stroke-width=".594" d="M138.6 189.056l-.01-.004"/>
            <path stroke="#000" stroke-linecap="round" stroke-linejoin="round" stroke-width=".594" d="M210.31 85.946c.948.21 1.926.37 2.913.477a28.208 28.208 0 0 0 3.052.167h.065a28.043 28.043 0 0 0 5.965-.644M250.962 33.8a2.694 2.694 0 0 0-2.693-2.696M184.46 31.104a2.694 2.694 0 0 0-2.692 2.696M250.974 33.8l-.007 41.712M216.365 31.106l31.904.01M181.78 35.212V33.8M216.365 31.106l-31.905.01M181.78 35.212c0 6.708.002 13.416.003 20.123l.003 16.59v3.586M193.718 82.256l.93.206 15.72 3.484M239.012 82.256l-.93.206-15.72 3.484M245.669 35.803H187.06M245.68 71.997V35.79" opacity=".2"/>
            <path stroke="#000" stroke-linecap="round" stroke-linejoin="round" stroke-width=".5" d="M187.06 72.009h58.609" opacity=".2"/>
            <path stroke="#000" stroke-linecap="round" stroke-linejoin="round" stroke-width=".594" d="M187.073 35.791v36.206M250.974 34.485v-.328M250.973 35.212v-.488M183.844 32.011c.2-.102.395-.148.619-.148M181.774 75.512v.072c0 .166 0 .333.005.5.006.233.02.468.053.7.046.327.126.641.264.944.06.133.13.26.21.383.153.235.337.444.543.632a4.467 4.467 0 0 0 .667.503 9.4 9.4 0 0 0 1.546.76c.576.23 1.18.424 1.773.6l.078.023a46.93 46.93 0 0 0 1.704.457c.547.138 1.102.27 1.65.398.547.126 1.094.25 1.64.372l1.81.4M250.956 75.512v.072c0 .166 0 .333-.005.5-.007.233-.021.468-.054.7-.045.327-.125.641-.263.944-.06.133-.13.26-.21.383a3.295 3.295 0 0 1-.544.632 4.48 4.48 0 0 1-.666.503 9.4 9.4 0 0 1-1.546.76c-.577.23-1.18.424-1.773.6l-.078.023c-.554.162-1.146.317-1.705.457-.546.138-1.102.27-1.65.398-.546.126-1.093.25-1.64.372l-1.81.4" opacity=".2"/>
            <rect width="4.323" height="4.317" x="232.136" y="74.694" fill="#D8D8D8" opacity=".4" rx=".9"/>
            <rect width="32" height="32" x="235" y="247" fill="#D8D8D8" opacity=".3" rx="2"/>
            <g opacity=".8" transform="translate(232.136 197.994)">
                <rect width="13.5" height="3.6" fill="#D8D8D8" rx="1.782"/>
                <ellipse cx="18.52" cy="1.8" fill="#D8D8D8" rx="1.831" ry="1.8"/>
                <ellipse cx="24.13" cy="1.8" fill="#D8D8D8" rx="1.831" ry="1.8"/>
                <ellipse cx="30.564" cy="1.8" fill="#AFAFAF" rx="1.831" ry="1.8"/>
            </g>
            <path stroke="#979797" stroke-width=".9" d="M230.4 208.95a3.15 3.15 0 0 0-3.15 3.15v70.8a3.15 3.15 0 0 0 3.15 3.15H284.395a3.15 3.15 0 0 0 3.12-3.18l-.83-85.8a3.15 3.15 0 0 0-3.15-3.12h-9.818a3.15 3.15 0 0 0-3.15 3.15l-.002 7.8a4.05 4.05 0 0 1-4.05 4.05H230.4z" opacity=".3"/>
            <path fill="#F3F3F5" d="M186.236 35.094h60.3v37.8h-60.3z"/>
            <path fill="#FFF" stroke="#CBCBCC" stroke-width=".9" d="M141.225 175.95l-.749 9.9H291.33v-9.9H141.225z"/>
            <rect width="5.4" height="82.1" x="276.05" y="198.65" fill="#D8D8D8" stroke="#979797" stroke-width=".9" opacity=".3" rx="2.7"/>
            <rect width="2.7" height="78" x="277.4" y="201.2" fill="#B8B8B8" opacity=".3" rx="1.35"/>
        </g>
        <g filter="url(#b)" transform="translate(266 40)">
            <g fill-rule="nonzero" transform="translate(37.506 36.52)">
                <use fill="#000" filter="url(#c)" xlink:href="#d"/>
                <use fill="url(#e)" xlink:href="#d"/>
            </g>
            <path stroke="#AADEFE" stroke-width="1.98" d="M76 0C34.026 0 0 34.026 0 76s34.026 76 76 76 76-34.026 76-76"/>
            <path stroke="#AADEFE" stroke-dasharray="0,8.910000612735757" stroke-linecap="round" stroke-width="1.98" d="M151.013 76c0-41.974-34.026-76-76-76"/>
        </g>
    </g>
</svg>
