<svg xmlns="http://www.w3.org/2000/svg" xmlns:xlink="http://www.w3.org/1999/xlink" width="190" height="238" viewBox="0 0 190 238">
    <defs>
        <linearGradient id="a" x1="50%" x2="50%" y1="0%" y2="100%">
            <stop offset="0%" stop-color="#EEE"/>
            <stop offset="100%" stop-color="#CBCFDA"/>
        </linearGradient>
        <radialGradient id="d" cy="14.022%" r="162.721%" fx="50%" fy="14.022%" gradientTransform="matrix(0 .45172 -1 0 .64 -.086)">
            <stop offset="0%" stop-color="#FFFDFD" stop-opacity=".95"/>
            <stop offset="100%" stop-color="#FFF" stop-opacity=".9"/>
        </radialGradient>
        <path id="c" d="M16.792 181.618c-5.22 0-9.47-4.261-9.47-9.495V15.027c0-5.234 4.25-9.496 9.47-9.496h8.73l.312.479c.534.816.526 1.887.526 2.596.016.569.953 2.333 2.499 2.522.402.05 1.742.107 5.811.107 5.236 0 12.092-.099 13.111-.115 1.06.016 7.908.115 13.144.115 4.069 0 5.409-.057 5.812-.107 1.545-.19 2.482-1.953 2.49-2.407 0-.816-.008-1.887.518-2.711l.312-.487h7.341c5.22 0 9.47 4.262 9.47 9.496v157.095c0 5.251-4.25 9.504-9.47 9.504H16.792z"/>
        <filter id="b" width="366.5%" height="220.4%" x="-133.3%" y="-45.4%" filterUnits="objectBoundingBox">
            <feMorphology in="SourceAlpha" operator="dilate" radius="5" result="shadowSpreadOuter1"/>
            <feOffset dy="26" in="shadowSpreadOuter1" result="shadowOffsetOuter1"/>
            <feGaussianBlur in="shadowOffsetOuter1" result="shadowBlurOuter1" stdDeviation="26"/>
            <feComposite in="shadowBlurOuter1" in2="SourceAlpha" operator="out" result="shadowBlurOuter1"/>
            <feColorMatrix in="shadowBlurOuter1" values="0 0 0 0 0.348998738 0 0 0 0 0.374664528 0 0 0 0 0.461928216 0 0 0 0.15 0"/>
        </filter>
        <filter id="e" width="247.2%" height="412%" x="-73.6%" y="-156%" filterUnits="objectBoundingBox">
            <feGaussianBlur in="SourceGraphic" stdDeviation="11.44"/>
        </filter>
        <radialGradient id="h" cy="12.688%" r="78.581%" fx="50%" fy="12.688%" gradientTransform="matrix(0 .95235 -1 0 .627 -.35)">
            <stop offset="1.782%" stop-color="#FFF" stop-opacity=".95"/>
            <stop offset="100%" stop-color="#FFF" stop-opacity=".9"/>
        </radialGradient>
        <rect id="g" width="58.577" height="61.507" rx="6.692"/>
        <filter id="f" width="448.3%" height="431.7%" x="-174.1%" y="-112.2%" filterUnits="objectBoundingBox">
            <feMorphology in="SourceAlpha" radius="5" result="shadowSpreadOuter1"/>
            <feOffset dy="10" in="shadowSpreadOuter1" result="shadowOffsetOuter1"/>
            <feGaussianBlur in="shadowOffsetOuter1" result="shadowBlurOuter1" stdDeviation="8.5"/>
            <feComposite in="shadowBlurOuter1" in2="SourceAlpha" operator="out" result="shadowBlurOuter1"/>
            <feColorMatrix in="shadowBlurOuter1" result="shadowMatrixOuter1" values="0 0 0 0 0.0676245133 0 0 0 0 0.0722260564 0 0 0 0 0.0808088861 0 0 0 0.1 0"/>
            <feMorphology in="SourceAlpha" radius="6.5" result="shadowSpreadOuter2"/>
            <feOffset dy="33" in="shadowSpreadOuter2" result="shadowOffsetOuter2"/>
            <feGaussianBlur in="shadowOffsetOuter2" result="shadowBlurOuter2" stdDeviation="34"/>
            <feComposite in="shadowBlurOuter2" in2="SourceAlpha" operator="out" result="shadowBlurOuter2"/>
            <feColorMatrix in="shadowBlurOuter2" result="shadowMatrixOuter2" values="0 0 0 0 0.2 0 0 0 0 0.219607843 0 0 0 0 0.28627451 0 0 0 0.15 0"/>
            <feMerge>
                <feMergeNode in="shadowMatrixOuter1"/>
                <feMergeNode in="shadowMatrixOuter2"/>
            </feMerge>
        </filter>
        <path id="j" d="M29.01 19.594c-.487 0-.812-.325-.812-.812v-6.333c0-.488.325-.812.811-.812.487 0 .81.324.81.812v6.331c-.001.489-.325.814-.81.814zm6.726 5.276V12.448c0-.487-.324-.811-.81-.811-.487 0-.811.324-.811.811v11.61h-5.106c-.486 0-.81.324-.81.812 0 .487.324.812.81.812h5.916c.487 0 .81-.406.81-.812zm-11.834 0V12.448c0-.487-.324-.811-.81-.811-.487 0-.811.324-.811.811V24.87c0 .487.324.812.81.812.487 0 .811-.406.811-.812zm24.152 0c0-.487-.324-.812-.81-.812H40.84c-.486 0-.81.325-.81.812 0 .487.324.812.81.812h6.321c.487 0 .892-.406.892-.812zm0 11.852v-5.925c0-.487-.324-.812-.81-.812H40.84c-.486 0-.81.325-.81.812v5.925c0 .488.324.812.81.812.486 0 .81-.324.81-.812V31.61h4.7v5.113c0 .488.325.812.811.812.487 0 .892-.406.892-.812zM17.986 24.87c0-.487-.324-.812-.81-.812h-6.324c-.486 0-.81.325-.81.812 0 .487.324.812.81.812h6.322a.813.813 0 0 0 .812-.812zm11.832 11.852v-5.925c0-.487-.324-.812-.81-.812H10.851c-.486 0-.81.325-.81.812 0 .487.324.812.81.812h17.345v5.113c0 .488.324.812.81.812.487 0 .81-.406.81-.812h.001zm-5.916 0c0-.487-.324-.812-.81-.812h-12.24c-.486 0-.81.325-.81.812 0 .488.324.812.81.812h12.24c.486 0 .81-.406.81-.812zm0 12.178v-6.25c0-.487-.324-.812-.81-.812-.487 0-.811.325-.811.812v6.25c0 .487.324.812.81.812a.815.815 0 0 0 .811-.812zm24.152 0c0-.487-.324-.812-.81-.812H40.84c-.486 0-.81.325-.81.812 0 .487.324.812.81.812h6.321c.487-.002.892-.408.892-.812zm0-6.252c0-.487-.324-.812-.81-.812H35.736v-11.04c0-.488-.324-.813-.81-.813-.487 0-.811.325-.811.812v11.853c0 .487.324.812.81.812h12.24c.484 0 .89-.406.89-.812zM35.736 48.9c0-.487-.324-.812-.81-.812H29.82V42.65c0-.487-.324-.812-.81-.812-.487 0-.811.325-.811.812v6.25c0 .487.324.812.81.812h5.916a.815.815 0 0 0 .81-.812zm-17.75 0v-6.25c0-.487-.324-.812-.81-.812l-6.324-.002c-.486 0-.81.325-.81.812v6.25c0 .487.324.812.81.812h6.322a.813.813 0 0 0 .812-.81zm-6.323-5.44h4.7v4.626l-4.7.002V43.46zm6.323-24.76v-6.252c0-.487-.324-.811-.81-.811l-6.324.001c-.484 0-.808.325-.808.81v6.25c0 .488.324.813.81.813h6.321a.81.81 0 0 0 .811-.81zm-6.323-5.44h4.7v4.627l-4.7.002V13.26zm36.391 5.44v-6.252c0-.487-.324-.811-.81-.811l-6.403.001c-.486 0-.81.325-.81.812v6.25c0 .488.324.812.81.812h6.321c.487 0 .892-.406.892-.812zm-6.402-5.44h4.7v4.627l-4.7.002V13.26z"/>
        <filter id="i" width="264%" height="263.7%" x="-55.7%" y="-55.6%" filterUnits="objectBoundingBox">
            <feMorphology in="SourceAlpha" operator="dilate" radius=".669" result="shadowSpreadOuter1"/>
            <feOffset dx="10" dy="10" in="shadowSpreadOuter1" result="shadowOffsetOuter1"/>
            <feGaussianBlur in="shadowOffsetOuter1" result="shadowBlurOuter1" stdDeviation="8.5"/>
            <feComposite in="shadowBlurOuter1" in2="SourceAlpha" operator="out" result="shadowBlurOuter1"/>
            <feColorMatrix in="shadowBlurOuter1" values="0 0 0 0 0.705882353 0 0 0 0 0.858823529 0 0 0 0 1 0 0 0 1 0"/>
        </filter>
    </defs>
    <g fill="none" fill-rule="evenodd">
        <ellipse cx="94.814" cy="141.908" fill="url(#a)" opacity=".2" rx="94.814" ry="94.927"/>
        <g transform="translate(48.056 5.37)">
            <use fill="#000" filter="url(#b)" xlink:href="#c"/>
            <use fill="url(#d)" xlink:href="#c"/>
        </g>
        <path fill-rule="nonzero" stroke="#D5D5D5" stroke-width="2" d="M127.971 193.236h-65.53c-7.407 0-13.44-6.042-13.44-13.477V18.846c0-7.427 6.025-13.477 13.44-13.477h65.53c7.407 0 13.44 6.042 13.44 13.477v160.913c-.008 7.435-6.033 13.477-13.44 13.477z"/>
        <ellipse cx="94.944" cy="120.834" fill="#BEDFFC" filter="url(#e)" rx="23.316" ry="11"/>
        <g transform="translate(66.63 64.838)">
            <use fill="#000" filter="url(#f)" xlink:href="#g"/>
            <use fill="url(#h)" xlink:href="#g"/>
        </g>
        <g fill-rule="nonzero" transform="translate(66.63 64.838)">
            <use fill="#000" filter="url(#i)" xlink:href="#j"/>
            <use fill="#5EB2FC" stroke="#34A0FF" stroke-width="1.338" xlink:href="#j"/>
        </g>
        <ellipse cx="80.202" cy="11.806" fill="#BFBFBF" rx="2.143" ry="2.146"/>
        <rect width="24.288" height="2.861" x="85.202" y="9.66" fill="#BFBFBF" rx="1.43"/>
        <rect width="32.86" height="2.861" x="79.488" y="178.448" fill="#D8D8D8" rx="1.43"/>
    </g>
</svg>
