<svg xmlns="http://www.w3.org/2000/svg" xmlns:xlink="http://www.w3.org/1999/xlink" width="307" height="306" viewBox="0 0 307 306">
    <defs>
        <linearGradient id="b" x1="50%" x2="50%" y1="0%" y2="100%">
            <stop offset="0%" stop-color="#EEE"/>
            <stop offset="100%" stop-color="#CBCFDA"/>
        </linearGradient>
        <ellipse id="a" cx="153.5" cy="153" rx="152.791" ry="153"/>
        <rect id="e" width="5.748" height="5.756" x="141.776" y="106.483" rx="1.44"/>
        <filter id="d" width="552.3%" height="551.7%" x="-208.8%" y="-139%" filterUnits="objectBoundingBox">
            <feOffset dx="1" dy="5" in="SourceAlpha" result="shadowOffsetOuter1"/>
            <feGaussianBlur in="shadowOffsetOuter1" result="shadowBlurOuter1" stdDeviation="3.5"/>
            <feColorMatrix in="shadowBlurOuter1" values="0 0 0 0 0.456878811 0 0 0 0 0.781686581 0 0 0 0 1 0 0 0 1 0"/>
        </filter>
        <path id="f" d="M14.609.107h22.683c-.117 4.198.013 8.008.389 11.43 3.037 7.502 9.94 18.954 12.376 41.066 2.806 42.79.812 92.005.812 104.246 0 12.24-50.758 12.24-50.758 0L14.609.107z"/>
        <linearGradient id="g" x1="97.995%" x2="97.995%" y1=".482%" y2="366.197%">
            <stop offset="0%" stop-color="#FFF"/>
            <stop offset="100%" stop-color="#F5F5F5"/>
        </linearGradient>
        <path id="i" d="M14.609.107h22.683c-.117 4.198.013 8.008.389 11.43 3.037 7.502 9.94 18.954 12.376 41.066 2.806 42.79.812 92.005.812 104.246 0 12.24-50.758 12.24-50.758 0L14.609.107z"/>
        <linearGradient id="j" x1="50%" x2="50%" y1="0%" y2="99.894%">
            <stop offset="0%" stop-color="#FFF"/>
            <stop offset="100%" stop-color="#F5F5F5"/>
        </linearGradient>
        <path id="l" d="M27.836.036h9.545l14.54 156.742c0 12.24-50.759 12.24-50.759 0 0-12.241-1.993-61.456.812-104.246C4.41 30.42 11.314 18.97 14.35 11.466c.376-3.422.668-7.232.876-11.43h12.61z"/>
        <linearGradient id="m" x1="2.323%" x2="2.323%" y1=".482%" y2="366.197%">
            <stop offset="0%" stop-color="#FFF"/>
            <stop offset="100%" stop-color="#F5F5F5"/>
        </linearGradient>
        <path id="o" d="M27.836.036h9.545l14.54 156.742c0 12.24-50.759 12.24-50.759 0 0-12.241-1.993-61.456.812-104.246C4.41 30.42 11.314 18.97 14.35 11.466c.376-3.422.668-7.232.876-11.43h12.61z"/>
        <linearGradient id="p" x1="50%" x2="50%" y1="0%" y2="99.894%">
            <stop offset="0%" stop-color="#FFF"/>
            <stop offset="100%" stop-color="#F5F5F5"/>
        </linearGradient>
        <path id="r" d="M-.765 83.088V-25.93h54.584v192.878H-.765V-.772h53.398v167.72H-.765"/>
        <path id="s" d="M6.33.51C8.526.248 10.482.116 12.198.116c.245 0 .486.003.721.008l-.005-.008h7.661c2.767 0 5.2 2.88 6.123 7.626.4 2.048.42 5.985.066 11.81l.581 1.092-26.823-.06c-.4-6.27-.4-10.47 0-12.595C1.4 3.334 3.723.82 6.33.509z"/>
    </defs>
    <g fill="none" fill-rule="evenodd">
        <mask id="c" fill="#fff">
            <use xlink:href="#a"/>
        </mask>
        <use fill="url(#b)" opacity=".2" xlink:href="#a"/>
        <g mask="url(#c)">
            <path fill="#FFF" stroke="#CBCBCC" stroke-width="1.44" d="M45.975 316.792h214.08l-4.469-231.207c-.144-7.45-6.225-13.416-13.677-13.416H64.639c-7.44 0-13.517 5.947-13.677 13.385l-4.987 231.238z"/>
            <path stroke="#CBCBCC" stroke-width="1.44" d="M62.413 67.852c-9.041 0-16.411 7.252-16.558 16.292l-9.91 611.436-.002.362c0 12.327 9.993 22.32 22.32 22.32H247.76c.133 0 .265-.001.398-.004 12.325-.22 22.138-10.39 21.918-22.714L259.174 84.117c-.16-9.03-7.526-16.265-16.557-16.265H62.413z"/>
            <path stroke="#CCC" stroke-linecap="round" stroke-linejoin="round" stroke-width=".95" d="M164.51 189.005l-.366 5.911-.091 1.478c-.03.493-.044.981-.158 1.463-.122.517-.299.85-.52 1.28-.273.532-.302.732-.302 1.38M163.093 201.122H153.742c-3.117 0-6.233-.002-9.35 0M144.392 200.517c0-.648-.03-.848-.302-1.38-.22-.43-.398-.763-.52-1.28-.115-.482-.128-.97-.158-1.463l-.092-1.478-.365-5.91M144.392 189.444a30.664 30.664 0 0 0 6.912 1.345c.794.063 1.591.094 2.387.094h.102a30.546 30.546 0 0 0 4.758-.371 30.655 30.655 0 0 0 4.542-1.068"/>
            <path stroke="#000" stroke-linecap="round" stroke-linejoin="round" stroke-width=".95" d="M203.309 116.057a4.314 4.314 0 0 0-4.311-4.317" opacity=".2"/>
            <path stroke="#CCC" stroke-linecap="round" stroke-linejoin="round" stroke-width=".95" d="M108.467 111.74a4.313 4.313 0 0 0-4.31 4.317M154.451 111.733l44.547.015M104.156 117.496v-1.439M154.451 111.748h-45.984M104.151 117.496l.005 28.742.004 23.695v5.122M121.4 183.688l1.284.322c7.236 1.811 14.58 3.678 21.816 5.49M186.065 183.688l-1.284.322-21.708 5.434"/>
            <path stroke="#000" stroke-linecap="round" stroke-linejoin="round" stroke-width=".95" d="M194.687 117.496H111.34M194.687 169.299v-51.803" opacity=".2"/>
            <path stroke="#000" stroke-linecap="round" stroke-linejoin="round" stroke-width=".72" d="M111.341 169.299h83.346" opacity=".2"/>
            <path stroke="#000" stroke-linecap="round" stroke-linejoin="round" stroke-width=".95" d="M112.778 117.496V169.3M203.309 116.29v-.466M203.309 117.843v-.694" opacity=".2"/>
            <path stroke="#CCC" stroke-linecap="round" stroke-linejoin="round" stroke-width=".95" d="M104.156 173.616v.108c0 .248.001.497.008.746.01.35.03.7.077 1.047a5.2 5.2 0 0 0 .38 1.409c.087.198.188.389.304.571.221.352.487.664.784.945.195.183.401.353.615.51.114.083.23.163.347.24.689.451 1.48.829 2.232 1.137.833.341 1.704.633 2.56.894l.112.034c.801.243 1.655.475 2.462.684.79.205 1.59.403 2.381.593.79.19 1.58.374 2.369.556.872.201 1.743.399 2.613.598"/>
            <path stroke="#000" stroke-linecap="round" stroke-linejoin="round" stroke-width=".95" d="M203.309 173.616v.108c0 .248-.001.497-.008.746-.01.35-.03.7-.077 1.047a5.194 5.194 0 0 1-.38 1.409 4.358 4.358 0 0 1-.304.571 4.879 4.879 0 0 1-.784.945 6.512 6.512 0 0 1-.615.51c-.114.083-.23.163-.347.24-.689.451-1.48.829-2.232 1.137-.833.341-1.704.633-2.56.894l-.112.034c-.801.243-1.655.475-2.462.684-.79.205-1.59.403-2.381.593-.79.19-1.58.374-2.369.556-.872.201-1.743.399-2.613.598" opacity=".2"/>
            <g opacity=".4" transform="translate(34.23 67.132)">
                <use fill="#000" filter="url(#d)" xlink:href="#e"/>
                <use fill="#0098FF" xlink:href="#e"/>
            </g>
            <path fill="#F3F3F5" d="M109.904 116.737h86.22v54h-86.22z"/>
        </g>
        <circle cx="178.5" cy="175.5" r="17.5" fill="#91D3FF" mask="url(#c)" opacity=".146"/>
        <path fill="#FFF" d="M196.672 160.8h19.188v30h-19.188z" mask="url(#c)"/>
        <g mask="url(#c)" opacity=".9">
            <g transform="rotate(1 -4074.667 11389.572)">
                <mask id="h" fill="#fff">
                    <use xlink:href="#f"/>
                </mask>
                <path fill="url(#g)" d="M-1.353 167.018H52.64V-.702H-1.353z" mask="url(#h)"/>
            </g>
            <g transform="rotate(1 -4074.667 11389.572)">
                <mask id="k" fill="#fff">
                    <use xlink:href="#i"/>
                </mask>
                <path fill="url(#j)" d="M14.609.107L.11 156.85c0 12.24 50.758 12.24 50.758 0 0-12.241 1.994-61.456-.812-104.246-2.436-22.112-9.34-33.564-12.376-41.066-.376-3.422-.506-7.232-.389-11.43H14.61z" mask="url(#k)"/>
            </g>
            <path fill="#9C9C9C" fill-rule="nonzero" d="M241.913 98.574c3.023 8.324 5.066 17.121 6.045 27.71.295 6.13.498 12.575.617 19.32.359 20.428-.024 40.741-.945 65.755-.102 2.764-.408 10.76-.438 11.589-.14 3.72-.212 6-.24 7.624-.23 13.135-52.325 12.226-52.096-.91l1.345.024c-.198 11.343 49.208 12.205 49.406.862.028-1.636.102-3.921.24-7.65.032-.83.337-8.826.44-11.588.92-24.992 1.302-45.284.943-65.683a637.575 637.575 0 0 0-.613-19.249c-.966-10.44-2.984-19.126-5.968-27.345-1.379-3.795-5.458-13.257-5.648-13.751l-.042-.18c-.302-3.27-.375-6.881-.22-10.836l-21.991-.384.023-1.344 23.372.408-.032.69c-.187 4.127-.127 7.875.178 11.245.428 1.038 4.278 9.988 5.624 13.693z"/>
            <g transform="rotate(1 -4078.143 11321.893)">
                <mask id="n" fill="#fff">
                    <use xlink:href="#l"/>
                </mask>
                <path fill="url(#m)" d="M-.765 166.947h53.398V-.773H-.765z" mask="url(#n)"/>
                <mask id="q" fill="#fff">
                    <use xlink:href="#o"/>
                </mask>
                <path fill="url(#p)" d="M27.836.036H15.227c-.208 4.198-.5 8.008-.876 11.43-3.038 7.503-9.94 18.954-12.377 41.066-2.805 42.79-.812 92.005-.812 104.246 0 12.24 50.758 12.24 50.758 0L37.38.036h-9.544z" mask="url(#q)"/>
            </g>
            <path fill="#9C9C9C" fill-rule="nonzero" d="M211.527 73.155l.042-.638 22.79.397-.023 1.345-21.511-.376c-.276 3.957-.622 7.561-1.036 10.815l-.049.178c-.207.487-4.614 9.801-6.124 13.545-3.27 8.11-5.589 16.72-6.916 27.091-.507 6.101-.934 12.523-1.287 19.245-1.071 20.374-1.397 40.667-1.35 65.676.006 2.764.032 10.766.034 11.596.009 3.732.003 6.018-.026 7.655l-1.344-.024c.028-1.624.034-3.905.025-7.627-.001-.83-.028-8.832-.033-11.598-.048-25.03.279-45.345 1.35-65.748.355-6.736.783-13.171 1.294-19.316 1.345-10.518 3.694-19.24 7.006-27.452 1.474-3.656 5.634-12.467 6.098-13.49.428-3.374.781-7.132 1.06-11.274z"/>
            <path fill="#9C9C9C" fill-rule="nonzero" d="M236.723 68.764l-.024 1.344-25.284-.441c-.512-.009-.95.58-1.009 1.43-.058.838.274 1.382.816 1.392l24.956.435-.023 1.345-24.956-.436c-1.453-.025-2.24-1.312-2.134-2.83.102-1.48 1.011-2.704 2.374-2.68l25.284.44z"/>
            <path stroke="#9C9C9C" stroke-width="1.345" d="M236.71 69.458l-25.283-.441c-2.04-.036-2.4 4.128-.217 4.166l.144.002"/>
            <path stroke="#9C9C9C" stroke-width="1.345" d="M210.229 68.996l25.283.44c2.04.037 2.255 4.21.072 4.172l-.144-.002"/>
            <g transform="rotate(1 -2664.728 12040.491)">
                <mask id="t" fill="#fff">
                    <use xlink:href="#s"/>
                </mask>
                <path fill="#E5E5E5" d="M-2.744 23.639h33.056V-2.879H-2.744z" mask="url(#t)"/>
            </g>
            <path fill="#9C9C9C" fill-rule="nonzero" d="M223.878 49.375l.023.038-1.283-.052c-1.847-.074-4.013.015-6.5.268-2.432.248-4.489 2.687-5.347 6.843-.408 1.976-.49 5.924-.235 11.798l25.066.494-.14-.272.016-.19c.452-5.763.499-9.658.148-11.639-.779-4.41-2.918-7.134-5.338-7.176l-6.41-.112zm-2.473-1.384l-.003-.004 8.91.156c3.2.056 5.76 3.316 6.639 8.286.372 2.106.33 6.02-.118 11.79l.987 1.933-28.57-.562-.029-.629c-.293-6.332-.219-10.569.233-12.76.965-4.676 3.426-7.594 6.528-7.91 2.003-.204 3.81-.304 5.423-.3z"/>
            <path fill="#9C9C9C" fill-rule="nonzero" d="M229.575 57.464l1.345.024-.192 10.998-1.345-.023z"/>
            <g>
                <path fill="#FFF" d="M129.865 321.138l55.238-145.833c.87-2.361 1.966-5.443 2.676-12.209l3.64-20.787c0-.86.77-1.516 1.617-1.372 2.772.474 3.533 2.492 5.24 10.097 2.214 9.868-4.985 28.764 7.42 27.53 14.15-1.408 46.46-15.77 56.353-20.29 2.574-1.177 7.619-3.51 8.858-1.836 2.825 3.815-7.555 10.099-9.538 11.186-11.881 6.516-27.582 13.943-31.783 15.835-.005.002-1.524 1.52 4.08.016 0 0 14.61-4.981 16.314-5.316 3.742-.736 4.377 5.894 3.327 8.44-1.765 4.28-13.888 6.852-19.992 10.099-.01.006-1.862.892 1.022.882l12.206-4.87c.694-.282 3.568-1.044 4.538-.755 1.54.457 2.526 2.84 2.406 4.274-.473 5.665-4.613 6.437-16.953 11.598-.959.402.006-.1.936-.362l12.288-4.75c1.805-1.322 2.765 4.92 1.39 7.666-1.979 3.955-4.873 5.657-39.395 23.423-22.004 11.324-33.166 89.748-33.166 89.748"/>
                <path stroke="#B3B3B3" stroke-width="1.002" d="M129.865 321.138l55.238-145.833c.87-2.361 1.966-5.443 2.676-12.209l3.64-20.787c0-.86.77-1.516 1.617-1.372 2.772.474 3.533 2.492 5.24 10.097 2.214 9.868-4.985 28.764 7.42 27.53 14.15-1.408 46.46-15.77 56.353-20.29 2.574-1.177 7.619-3.51 8.858-1.836 2.825 3.815-7.555 10.099-9.538 11.186-11.881 6.516-27.582 13.943-31.783 15.835-.005.002-1.524 1.52 4.08.016 0 0 14.61-4.981 16.314-5.316 3.742-.736 4.377 5.894 3.327 8.44-1.765 4.28-13.888 6.852-19.992 10.099-.01.006-1.862.892 1.022.882l12.206-4.87c.694-.282 3.568-1.044 4.538-.755 1.54.457 2.526 2.84 2.406 4.274-.473 5.665-4.613 6.437-16.953 11.598-.959.402.006-.1.936-.362l12.288-4.75c1.805-1.322 2.765 4.92 1.39 7.666-1.979 3.955-4.873 5.657-39.395 23.423-22.004 11.324-33.166 89.748-33.166 89.748"/>
            </g>
        </g>
    </g>
</svg>
