<svg id="Livello_1" data-name="Livello 1" xmlns="http://www.w3.org/2000/svg" viewBox="0 0 289.88 129.07"><title>sparkle</title><path d="M235.39,270.83a29,29,0,1,1,29-29A29,29,0,0,1,235.39,270.83Zm0-55.93a27,27,0,1,0,27,27A27,27,0,0,0,235.39,214.9Z" transform="translate(-111.07 -191.42)" fill="#9fbce1"/><path d="M317.15,257.29a14.91,14.91,0,1,1,14.9-14.91A14.93,14.93,0,0,1,317.15,257.29Zm0-27.81a12.91,12.91,0,1,0,12.9,12.9A12.92,12.92,0,0,0,317.15,229.48Z" transform="translate(-111.07 -191.42)" fill="#9fbce1"/><path d="M305,316.59a21.74,21.74,0,1,1,21.74-21.74A21.76,21.76,0,0,1,305,316.59Zm0-41.48a19.74,19.74,0,1,0,19.74,19.74A19.76,19.76,0,0,0,305,275.11Z" transform="translate(-111.07 -191.42)" fill="#9fbce1"/><path d="M184.2,312.26a19.58,19.58,0,1,1,19.58-19.58A19.6,19.6,0,0,1,184.2,312.26Zm0-37.15a17.58,17.58,0,1,0,17.58,17.57A17.59,17.59,0,0,0,184.2,275.11Z" transform="translate(-111.07 -191.42)" fill="#9fbce1"/><path d="M233.39,320.49a8.83,8.83,0,1,1,8.83-8.83A8.84,8.84,0,0,1,233.39,320.49Zm0-15.65a6.83,6.83,0,1,0,6.83,6.82A6.83,6.83,0,0,0,233.39,304.84Z" transform="translate(-111.07 -191.42)" fill="#9fbce1"/><path d="M262,291.56a7.19,7.19,0,1,1,7.19-7.18A7.19,7.19,0,0,1,262,291.56Zm0-12.37a5.19,5.19,0,1,0,5.19,5.19A5.19,5.19,0,0,0,262,279.19Z" transform="translate(-111.07 -191.42)" fill="#9fbce1"/><path d="M393.76,320.49a7.19,7.19,0,1,1,7.19-7.18A7.19,7.19,0,0,1,393.76,320.49Zm0-12.37a5.19,5.19,0,1,0,5.19,5.19A5.19,5.19,0,0,0,393.76,308.12Z" transform="translate(-111.07 -191.42)" fill="#9fbce1"/><path d="M154.68,208.49a6.28,6.28,0,1,1,6.28-6.28A6.29,6.29,0,0,1,154.68,208.49Zm0-10.56a4.28,4.28,0,1,0,4.28,4.28A4.28,4.28,0,0,0,154.68,197.93Z" transform="translate(-111.07 -191.42)" fill="#9fbce1"/><path d="M140.84,263.65a5.51,5.51,0,1,1,5.51-5.51A5.51,5.51,0,0,1,140.84,263.65Zm0-9a3.51,3.51,0,1,0,3.51,3.5A3.5,3.5,0,0,0,140.84,254.64Z" transform="translate(-111.07 -191.42)" fill="#9fbce1"/><path d="M164.47,234a5.51,5.51,0,1,1,5.5-5.51A5.51,5.51,0,0,1,164.47,234Zm0-9a3.51,3.51,0,1,0,3.5,3.51A3.51,3.51,0,0,0,164.47,225Z" transform="translate(-111.07 -191.42)" fill="#9fbce1"/><path d="M319.43,207a5.51,5.51,0,1,1,5.5-5.51A5.52,5.52,0,0,1,319.43,207Zm0-9a3.51,3.51,0,1,0,3.5,3.51A3.51,3.51,0,0,0,319.43,197.93Z" transform="translate(-111.07 -191.42)" fill="#9fbce1"/><path d="M353.35,225a5.51,5.51,0,1,1,5.5-5.5A5.51,5.51,0,0,1,353.35,225Zm0-9a3.51,3.51,0,1,0,3.5,3.51A3.51,3.51,0,0,0,353.35,216Z" transform="translate(-111.07 -191.42)" fill="#9fbce1"/><path d="M379.37,275.34a5.51,5.51,0,1,1,5.51-5.51A5.51,5.51,0,0,1,379.37,275.34Zm0-9a3.51,3.51,0,1,0,3.51,3.5A3.51,3.51,0,0,0,379.37,266.33Z" transform="translate(-111.07 -191.42)" fill="#9fbce1"/><path d="M255.84,197.93a3.26,3.26,0,1,1,3.25-3.25A3.26,3.26,0,0,1,255.84,197.93Zm0-4.51a1.26,1.26,0,1,0,0,2.51,1.26,1.26,0,0,0,0-2.51Z" transform="translate(-111.07 -191.42)" fill="#9fbce1"/><path d="M220.47,287.63a3.26,3.26,0,1,1,3.25-3.25A3.26,3.26,0,0,1,220.47,287.63Zm0-4.51a1.26,1.26,0,1,0,1.25,1.26A1.26,1.26,0,0,0,220.47,283.12Z" transform="translate(-111.07 -191.42)" fill="#9fbce1"/><path d="M201.63,217.15a4.36,4.36,0,1,1,4.37-4.36A4.36,4.36,0,0,1,201.63,217.15Zm0-6.72a2.36,2.36,0,1,0,2.37,2.36A2.36,2.36,0,0,0,201.63,210.43Z" transform="translate(-111.07 -191.42)" fill="#9fbce1"/><path d="M146.9,287.48a7.19,7.19,0,1,1,7.18-7.18A7.2,7.2,0,0,1,146.9,287.48Zm0-12.37a5.19,5.19,0,1,0,5.18,5.19A5.2,5.2,0,0,0,146.9,275.11Z" transform="translate(-111.07 -191.42)" fill="#9fbce1"/><path d="M118.26,317.21a7.19,7.19,0,1,1,7.19-7.19A7.2,7.2,0,0,1,118.26,317.21Zm0-12.37a5.19,5.19,0,1,0,5.19,5.18A5.19,5.19,0,0,0,118.26,304.84Z" transform="translate(-111.07 -191.42)" fill="#9fbce1"/><path d="M286.85,243.38a6.69,6.69,0,1,1,6.69-6.69A6.7,6.7,0,0,1,286.85,243.38Zm0-11.38a4.69,4.69,0,1,0,4.69,4.69A4.7,4.7,0,0,0,286.85,232Z" transform="translate(-111.07 -191.42)" fill="#9fbce1"/><path d="M349.43,306.72a9.42,9.42,0,1,1,9.42-9.42A9.43,9.43,0,0,1,349.43,306.72Zm0-16.84a7.42,7.42,0,1,0,7.42,7.42A7.43,7.43,0,0,0,349.43,289.88Z" transform="translate(-111.07 -191.42)" fill="#9fbce1"/><path d="M183.23,251.21a9.75,9.75,0,1,1,9.75-9.74A9.76,9.76,0,0,1,183.23,251.21Zm0-17.49a7.75,7.75,0,1,0,7.75,7.75A7.76,7.76,0,0,0,183.23,233.72Z" transform="translate(-111.07 -191.42)" fill="#9fbce1"/></svg>