<svg xmlns="http://www.w3.org/2000/svg" width="224" height="224" viewBox="0 0 224 224">
    <g fill="#FFF" fill-rule="evenodd">
        <g fill-rule="nonzero">
            <path d="M3 3h21.5V0H0v24.5h3zM221.5 3H200V0h24.5v24.5h-3zM3 221.5h21.5v3H0V200h3zM221.5 221.5H200v3h24.5V200h-3z"/>
        </g>
        <g opacity=".5">
            <path fill-rule="nonzero" d="M21 21h48.92v48.92H21V21zm6.382 6.367v36.187h36.157V27.367H27.382z"/>
            <path d="M36.238 35.436h19.196v19.248H36.238z"/>
        </g>
        <g opacity=".5">
            <path fill-rule="nonzero" d="M154.08 21H203v48.92h-48.92V21zm6.42 6.407v36.107h36.078V27.407h-36.077z"/>
            <path d="M169.317 36.238h18.446v18.446h-18.446z"/>
        </g>
        <g opacity=".5">
            <path fill-rule="nonzero" d="M155.08 155.08H204V204h-48.92v-48.92zm6.42 6.406v36.107h36.078v-36.107h-36.077z"/>
            <path d="M169.515 169.515h19.811v19.864h-19.81z"/>
        </g>
    </g>
</svg>
