<?xml version="1.0" encoding="UTF-8" standalone="no"?><!DOCTYPE svg PUBLIC "-//W3C//DTD SVG 1.1//EN" "http://www.w3.org/Graphics/SVG/1.1/DTD/svg11.dtd"><svg width="100%" height="100%" viewBox="0 0 258 258" version="1.1" xmlns="http://www.w3.org/2000/svg" xmlns:xlink="http://www.w3.org/1999/xlink" xml:space="preserve" xmlns:serif="http://www.serif.com/" style="fill-rule:evenodd;clip-rule:evenodd;stroke-linejoin:round;stroke-miterlimit:2;"><path d="M16.7,41.3l3.1,0l0,-21.5l21.5,0l0,-3.1l-24.6,0l0,24.6Z" style="fill:#fff;fill-rule:nonzero;"/><path d="M216.69,16.7l0,3.1l21.5,0l0,21.5l3.1,0l0,-24.6l-24.6,0Z" style="fill:#fff;fill-rule:nonzero;"/><path d="M19.8,216.71l-3.1,0l0,24.6l24.6,0l0,-3.1l-21.5,0l0,-21.5Z" style="fill:#fff;fill-rule:nonzero;"/><path d="M238.19,238.21l-21.5,0l0,3.1l24.6,0l0,-24.6l-3.1,0l0,21.5Z" style="fill:#fff;fill-rule:nonzero;"/><path d="M37.99,38l48.92,0l0,48.92l-48.92,0l0,-48.92Zm6.39,6.37l0,36.18l36.16,0l0,-36.17l-36.16,-0.01Z" style="fill:#c4c4c4;fill-rule:nonzero;"/><rect x="53.24" y="52.44" width="19.19" height="19.25" style="fill:#c4c4c4;"/><path d="M171.08,38l48.91,0l0,48.92l-48.91,0l0,-48.92Zm6.41,6.41l0,36.1l36.09,0l0,-36.1l-36.09,0Z" style="fill:#c4c4c4;fill-rule:nonzero;"/><rect x="186.32" y="53.25" width="18.44" height="18.44" style="fill:#c4c4c4;"/><path d="M172.08,172.09l48.91,0l0,48.91l-48.91,0l0,-48.91Zm6.41,6.41l0,36.09l36.09,0l0,-36.1l-36.09,0.01Z" style="fill:#c4c4c4;fill-rule:nonzero;"/><path d="M186.5,186.51l19.82,0l0,19.87l-19.8,0l-0.02,-19.87Z" style="fill:#c4c4c4;"/></svg>