<?xml version="1.0" encoding="UTF-8"?>
<svg width="40px" height="37px" viewBox="0 0 40 37" version="1.1" xmlns="http://www.w3.org/2000/svg" xmlns:xlink="http://www.w3.org/1999/xlink">
    <!-- Generator: Sketch 52.6 (67491) - http://www.bohemiancoding.com/sketch -->
    <title>antioxidant_icon</title>
    <desc>Created with Sketch.</desc>
    <g id="Page-1" stroke="none" stroke-width="1" fill="none" fill-rule="evenodd">
        <g id="Bobcat-Dispenser" transform="translate(-423.000000, -526.000000)" fill="#000000" fill-rule="nonzero">
            <g id="antioxidant_icon" transform="translate(423.000000, 526.000000)">
                <path d="M30.4307875,12.9846839 L30.0354036,12.9846839 C28.7798901,12.9846839 27.7185571,13.8576476 27.3856003,15.0461503 L24.7999912,15.0461503 L23.4178654,10.5109426 C23.3086156,10.1524277 22.989532,9.90505814 22.6253394,9.89610961 C22.2646363,9.87997656 21.9316795,10.1219751 21.8085743,10.4751026 L19.5576533,16.9139154 L17.4177178,11.591604 C17.2876561,11.2689429 16.9841815,11.0556099 16.6460128,11.0502408 C16.3217262,11.0538261 15.9974574,11.2492148 15.8587254,11.5682919 L14.3638827,14.9938817 L8.51627374,14.9508599 C8.05497322,14.9347269 7.6630609,15.338056 7.65959815,15.8238236 C7.65612962,16.3096142 8.03417452,16.7057817 8.50410972,16.7093611 L14.9048708,16.7559669 L14.9118074,16.7559669 C15.2465,16.7559669 15.5482432,16.5534043 15.6869752,16.2379158 L16.6026064,14.1388196 L18.8292437,19.679567 C18.9610413,20.0076064 19.2714503,20.2209302 19.6130684,20.2209302 L19.6338782,20.2209302 C19.9841753,20.2119675 20.2945976,19.9825184 20.4125087,19.6419373 L22.5524441,13.5183881 L23.3657465,16.1893184 C23.4767321,16.5550058 23.8044859,16.8041513 24.1755862,16.8041513 L27.3282874,16.8041513 C27.5797408,18.1127479 28.6982491,19.1022261 30.0353148,19.1022261 L30.4306987,19.1022261 C31.9532879,19.1022261 33.1914875,17.8223107 33.1914875,16.2484246 L33.1914875,15.8415096 C33.1932216,14.264044 31.9550192,12.9841286 30.4306987,12.9841286 L30.4307875,12.9846839 Z M31.4938075,16.2471809 C31.4938075,16.8512757 31.018656,17.3442251 30.4325189,17.3442251 L30.0371349,17.3442251 C29.4527292,17.3442251 28.9758463,16.8530654 28.9758463,16.2471809 L28.9758463,15.840266 C28.9758463,15.2361712 29.4509978,14.7432218 30.0371349,14.7432218 L30.4325189,14.7432218 C31.0169246,14.7432218 31.4938075,15.2361712 31.4938075,15.840266 L31.4938075,16.2471809 Z" id="Shape"></path>
                <path d="M19.9990889,36.5696823 C19.7820751,36.5696823 19.5633235,36.4856163 19.3983764,36.3174843 L3.34634077,20.1261522 C-1.11544692,15.6251474 -1.11544692,8.30087081 3.34634077,3.79986609 C5.49914555,1.62813916 8.37257416,0.431981131 11.4383588,0.431981131 C14.5025878,0.431981131 17.3774831,1.628184 19.5303767,3.79986609 L19.9991333,4.27274284 L20.4696233,3.79811752 C22.622428,1.62639059 25.4958567,0.430232558 28.5616412,0.430232558 C31.6258703,0.430232558 34.5007656,1.62643543 36.6536592,3.79811752 C41.1154469,8.29912224 41.1154469,15.6233989 36.6536592,20.1244036 L20.5998458,36.3193226 C20.4349165,36.4857015 20.2161649,36.5697674 19.9991333,36.5697674 L19.9990889,36.5696823 Z M11.4364032,2.14836187 C8.62564139,2.14836187 6.00572446,3.32878275 4.13772031,5.45320856 C0.698468219,9.36579625 1.03006896,15.3626822 4.69674377,19.0615854 L19.7003327,34.1970488 C19.8652619,34.3634277 20.1343603,34.3634277 20.2993118,34.1970488 L35.3011229,19.0615854 C38.9677977,15.3626822 39.2993984,9.36597559 35.858413,5.4518635 C33.9903644,3.3274377 31.370403,2.14701682 28.5597301,2.14701682 C25.9503466,2.14701682 23.5023856,3.16455145 21.6708259,5.01225447 L20.5996236,6.09287221 C20.2697606,6.42563451 19.7281105,6.42563451 19.3965098,6.09287221 L18.3253074,5.01225447 C16.4937033,3.16630003 14.0475201,2.14876539 11.4364032,2.14876539 L11.4364032,2.14836187 Z" id="Shape"></path>
            </g>
        </g>
    </g>
</svg>