<svg xmlns="http://www.w3.org/2000/svg" viewBox="0 0 114.55 69.11">
  <defs>
    <style>
      .cls-1 {
        fill: #093cb3;
      }

      .cls-2 {
        fill: #083bb2;
      }
    </style>
  </defs>
  <title>arrow_down</title>
  <g id="Livello_2" data-name="Livello 2">
    <g id="Livello_1-2" data-name="Livello 1">
      <g>
        <path class="cls-1" d="M22.81,32.24A9.47,9.47,0,0,1,32,22.93a9.33,9.33,0,1,1-9.18,9.31Z"/>
        <path class="cls-1" d="M59.49,69.11a9.36,9.36,0,0,1-9.24-9.2,9.34,9.34,0,0,1,18.67-.07A9.42,9.42,0,0,1,59.49,69.11Z"/>
        <path class="cls-1" d="M18.41,9.36A9,9,0,0,1,9,18.47,9.06,9.06,0,0,1,0,9.13,9.16,9.16,0,0,1,9.46,0,9.11,9.11,0,0,1,18.41,9.36Z"/>
        <path class="cls-2" d="M105.36,18.47a9,9,0,0,1-9.16-9.16A9,9,0,0,1,105.49,0a9.13,9.13,0,0,1,9.07,9.31A9,9,0,0,1,105.36,18.47Z"/>
        <path class="cls-1" d="M73.23,32.15a9.35,9.35,0,0,1,9.22-9.23,9.33,9.33,0,1,1-.2,18.66A9.34,9.34,0,0,1,73.23,32.15Z"/>
      </g>
    </g>
  </g>
</svg>
