<?xml version="1.0" encoding="utf-8"?>
<!-- Generator: Adobe Illustrator 21.1.0, SVG Export Plug-In . SVG Version: 6.00 Build 0)  -->
<svg version="1.1" id="Livello_1" xmlns="http://www.w3.org/2000/svg" xmlns:xlink="http://www.w3.org/1999/xlink" x="0px" y="0px"
	 viewBox="0 0 359 724" style="enable-background:new 0 0 359 724;" xml:space="preserve">
<style type="text/css">
	.st0{fill:#256BC0;}
</style>
<g transform="translate(0.000000,783.000000) scale(0.100000,-0.100000)">
	<path class="st0" d="M1463,7612.9c-20-10-40-32-53-58c-18-39-20-61-20-269v-227l-24-12c-29-13-37-28-29-57c4-18,13-21,52-21
		c56,0,71-12,71-59c0-31-14-48-158-190c-181-178-252-263-320-382c-89-157-82-21-82-1519c0-1050,3-1330,13-1338c6-6,26-12,42-14
		c18-2,30-9,30-18s-12-16-30-18c-55-7-55-8-55-223c0-186,1-199,19-209c11-5,29-10,41-10c20,0,38-25,26-37c-3-3-23-9-43-12l-38-6
		l-3-199c-1-114,2-204,7-209s24-12,43-16c42-9,44-35,3-39c-52-6-55-18-55-228c0-207,1-209,55-216c22-2,30-8,30-23c0-16-8-21-37-23
		c-30-3-39-8-44-26c-3-12-4-209-2-437c4-459,5-465,76-576c51-79,95-112,202-149c52-18,91-19,695-19c718,0,699-2,810,74
		c155,105,185,231,185,777c0,355,1,348-65,356c-45,5-42,40,5,49c57,12,60,24,60,219c0,197-5,216-63,222c-43,4-42,29,3,40
		c19,5,41,17,48,26c15,20,17,354,2,383c-7,11-21,19-38,19c-63,1-69,43-8,54c20,4,40,15,46,26c6,10,10,94,10,192c0,195-6,214-63,220
		c-20,2-32,8-32,18s12,16,32,18c67,7,63-88,63,1332c-1,1381,0,1347-52,1462c-63,138-256,370-461,554c-51,46-57,56-57,91
		c0,51,14,63,72,63c47,0,48,1,48,30c0,20-8,35-24,46l-25,16l-3,231c-3,252-7,271-61,311c-28,20-40,21-420,23
		C1544,7628.9,1491,7626.9,1463,7612.9z M2265,7533.9c24-23,25-29,25-157c0-73-4-139-8-146c-7-9-95-12-408-10l-399,3l-3,144
		c-2,137-1,145,19,168l22,23h364h364L2265,7533.9z M2284,7152.9c3-9,6-33,6-55c0-33-4-41-26-49c-34-13-734-13-768,0
		c-23,8-26,15-26,58c0,27,3,52,7,55c3,4,185,7,404,7C2234,7168.9,2279,7166.9,2284,7152.9z M2210,6949.9c5-11,10-42,10-69
		c0-49,0-49,86-127c147-134,179-167,276-285c110-135,152-199,179-272c18-51,19-92,19-1350v-1298l-35-15c-56-23-77-98-41-144
		c6-8,26-20,44-28l32-13v-140c0-139,0-140-24-146c-92-23-92-165,0-188c24-6,24-7,24-145v-139l-29-12c-16-6-36-19-44-28
		c-41-47-22-127,36-153l32-14l3-136l3-137l-38-19c-78-41-78-126,0-168l37-20v-370c-1-389-5-438-48-520c-39-76-102-122-212-156
		c-67-21-1212-20-1285,0c-70,20-124,48-163,85c-86,80-102,178-102,621v331l45,32c25,18,47,42,51,57c9,38-14,84-58,111l-38,24v124
		c0,130,5,147,48,160c10,3,26,20,36,37c31,53,7,113-62,148c-21,11-22,17-22,136c0,87,4,127,12,134c7,6,27,22,45,36
		c59,48,49,124-23,167l-34,20v129v129l38,24c77,48,77,124,0,172l-38,24v1278c0,1436-5,1341,75,1467c74,118,262,325,433,477l62,56v60
		c0,39,4,62,13,65c6,3,155,6,329,6C2186,6968.9,2200,6967.9,2210,6949.9z"/>
</g>
</svg>
