<svg xmlns="http://www.w3.org/2000/svg" viewBox="0 0 512.21 475.09">
  <title>Risorsa 1</title>
  <g id="Livello_2" data-name="Livello 2">
    <g id="Capa_1" data-name="Capa 1">
      <path d="M507.34,421.13l-219.26-402a36.42,36.42,0,0,0-13.43-14,36.05,36.05,0,0,0-37.11,0,36.45,36.45,0,0,0-13.42,14L4.86,421.13q-10,18,.57,36a36.56,36.56,0,0,0,31.41,18H475.37a36.56,36.56,0,0,0,31.41-18Q517.34,439.11,507.34,421.13ZM292.65,392.57a9.13,9.13,0,0,1-2.71,6.7,8.77,8.77,0,0,1-6.43,2.71H228.7a8.76,8.76,0,0,1-6.42-2.71,9.1,9.1,0,0,1-2.71-6.7V338.33a9.11,9.11,0,0,1,2.71-6.7,8.76,8.76,0,0,1,6.42-2.71h54.81a8.77,8.77,0,0,1,6.43,2.71,9.12,9.12,0,0,1,2.71,6.7v54.25h0Zm-.57-106.77a6.39,6.39,0,0,1-3,4.71,11.61,11.61,0,0,1-6.71,1.85H229.56a12.31,12.31,0,0,1-6.85-1.85,5.48,5.48,0,0,1-2.86-4.72L215,155.32a6.83,6.83,0,0,1,2.86-6q3.71-3.14,6.85-3.14h62.81q3.15,0,6.85,3.14a6.28,6.28,0,0,1,2.85,5.42Z"/>
    </g>
  </g>
</svg>
