<?xml version="1.0" encoding="UTF-8"?>
<svg width="27px" height="14px" viewBox="0 0 27 14" version="1.1" xmlns="http://www.w3.org/2000/svg" xmlns:xlink="http://www.w3.org/1999/xlink">
    <!-- Generator: Sketch 52.6 (67491) - http://www.bohemiancoding.com/sketch -->
    <title>flavor_icon</title>
    <desc>Created with Sketch.</desc>
    <g id="Page-1" stroke="none" stroke-width="1" fill="none" fill-rule="evenodd" opacity="0.800000012">
        <g id="Bobcat-Dispenser" transform="translate(-441.000000, -345.000000)" fill="#000000" fill-rule="nonzero">
            <g id="flavor_icon" transform="translate(454.263456, 347.736544) rotate(-315.000000) translate(-454.263456, -347.736544) translate(442.763456, 336.236544)">
                <path d="M22.8786797,9.99334933 C22.8786797,16.2330274 18.5365851,21.5408238 12.4911107,22.6400972 C8.19692289,23.4205609 4.40716513,22.282272 1.21380809,19.2830774 C0.762485424,18.8594438 0.771477549,18.6610999 1.21380809,18.2195278 C4.13202149,15.3039525 7.05100344,12.3904186 9.96921683,9.47484338 C12.7063068,6.73967349 15.4421158,4.0027174 18.1792058,1.26754751 C18.694575,0.753226354 18.8687045,0.745239525 19.3620673,1.26655056 C21.3134864,3.32585101 22.4552556,5.76290551 22.7954705,8.57666784 C22.8575161,9.08501801 22.8675228,9.59137785 22.8785311,9.99306686 L22.8786797,9.99334933 Z M18.8186458,10.0691043 C18.8306545,10.0920298 18.8346574,10.1079769 18.844664,10.1149558 C18.9777603,10.2026706 19.1148633,10.2854019 19.2459536,10.3770922 C20.1315882,10.9910829 20.51889,11.8313585 20.3897723,12.8998839 C20.2957034,13.6833331 19.9864845,14.3870416 19.5801737,15.0568635 C19.0397752,15.9459788 18.0460558,16.7044978 16.5999633,16.3287341 C16.3627915,16.2669344 16.2957426,16.3117893 16.3597891,16.5799186 C16.6309874,17.7311702 16.264721,18.6611382 15.31204,19.3569364 C14.7896514,19.7386966 14.2112349,20.0137957 13.5857827,20.1892252 C12.0816898,20.6118382 11.0899686,20.2410554 10.2433255,18.9383041 C10.2193081,18.9014244 10.1752774,18.8755093 10.1362475,18.8406224 C9.69591517,19.6569631 9.08147895,20.2310961 8.14481212,20.326785 C6.92992743,20.4493866 5.8821784,19.982892 4.92839836,19.2901558 C4.19086482,18.7528949 3.84560311,17.9973613 3.86463772,17.0783401 C3.37929356,17.5478023 2.93896127,18.0152997 2.45261799,18.4299514 C2.12739001,18.7070408 2.2084421,18.8515692 2.49364872,19.0808397 C5.79998372,21.728231 9.50878675,22.546562 13.5647217,21.3105939 C20.326748,19.2512934 23.6999476,11.7715644 20.8570528,5.31958471 C20.3787025,4.23312083 19.7462564,3.24533128 18.9676819,2.35016853 C18.8906263,2.26145604 18.8345857,2.06210683 18.6424539,2.26145604 C18.1700984,2.74987741 17.6807578,3.22132996 17.138361,3.75958609 C17.742806,3.756596 18.2491574,3.85427721 18.6544691,4.1752329 C19.8723511,5.13809232 20.453765,6.42690621 20.3887194,7.95787667 C20.3446887,8.96559501 19.701219,9.6304411 18.8185817,10.0690022 L18.8186458,10.0691043 Z M11.5314383,9.54480596 C13.2416841,9.54480596 15.0019885,9.56374419 16.761217,9.53483825 C17.3756532,9.52487053 17.9830955,9.36937565 18.5304879,9.06037469 C19.1179221,8.72844923 19.4521679,8.23306171 19.3831001,7.5462965 C19.2970371,6.68609207 18.9577803,5.91958616 18.380363,5.27369923 C17.9780743,4.82317064 17.4566848,4.70954333 16.8742718,4.85307659 C16.2468213,5.00757452 15.6874138,5.31358234 15.2390885,5.75913511 C13.9841876,7.0050804 12.7602852,8.2849123 11.5313103,9.54484092 L11.5314383,9.54480596 Z M10.6808244,11.4565925 C10.6808244,13.2617179 10.6588085,15.028976 10.6928331,16.7952644 C10.7038411,17.3943276 10.8719634,17.9833882 11.1861958,18.5156733 C11.4803997,19.0140463 11.8997248,19.326043 12.4911555,19.3160658 C13.4898705,19.299121 14.347504,18.9053948 15.0490178,18.2156441 C15.4122894,17.858814 15.5023387,17.3853456 15.3832635,16.87401 C15.2401607,16.2580035 14.9619659,15.6988234 14.5306513,15.2592671 C13.280746,13.9854062 11.9928227,12.7484429 10.680946,11.4567201 L10.6808244,11.4565925 Z M9.61706371,11.410741 C8.44019701,12.5749552 7.31139077,13.6873444 6.18955279,14.8047604 C5.69119439,15.3011431 5.2929022,15.8712955 5.04470931,16.5321354 C4.72048046,17.3963205 4.9436363,18.0621618 5.70718039,18.5904407 C5.95135628,18.7598891 6.21855303,18.8814879 6.4857549,19.0060875 C8.05489344,19.7387068 9.13061796,19.2223852 9.52104525,17.5478406 C9.52704947,17.5219255 9.52604881,17.494015 9.5330537,17.4680999 C9.64913921,17.0753674 9.61711598,16.6726832 9.61711598,16.2709942 L9.61711598,11.4107665 L9.61706371,11.410741 Z M11.5554686,10.6791168 C11.5234453,10.763841 11.5834902,10.7907538 11.6165126,10.824643 C12.799374,12.0137874 13.9762151,13.2098979 15.1721164,14.3850334 C15.6044301,14.8106574 16.1268187,15.1196431 16.7132282,15.3030594 C17.5088135,15.5512533 18.1312683,15.3439275 18.6085939,14.6571725 C18.9698672,14.13785 19.2240292,13.566728 19.3481256,12.9417395 C19.5072401,12.1423421 19.2220335,11.516384 18.5045055,11.1246466 C18.0151393,10.8575089 17.4807611,10.7089998 16.9293722,10.6820793 C15.1690934,10.5963575 13.4078411,10.6601505 11.6465632,10.6481902 C11.6135382,10.6481902 11.5795142,10.6711157 11.5554968,10.6790888 L11.5554686,10.6791168 Z" id="Shape"></path>
            </g>
        </g>
    </g>
</svg>