<svg xmlns="http://www.w3.org/2000/svg" viewBox="0 0 545.76 599.88">
  <defs>
    <style>
      .cls-1 {
        fill: #5983ce;
      }

      .cls-2 {
        fill: #073bab;
      }

      .cls-3 {
        fill: #0135a8;
      }

      .cls-4 {
        fill: #0639b2;
      }

      .cls-5 {
        fill: #a4c0ea;
      }
    </style>
  </defs>
  <title>Risorsa 1</title>
  <g id="Livello_2" data-name="Livello 2">
    <g id="Livello_1-2" data-name="Livello 1">
      <g>
        <path class="cls-1" d="M481.86.05c5.78-.24,11.11,1.22,16.52,2,3.69.53,7.36,1.16,11.06,1.63C520,5,530.13,7.19,537.46,15.84S547.36,34,544.83,45c-.62,2.72-.82,5.56-1.29,8.35-1.49,8.83-2.65,17.72-4.09,26.56A7,7,0,0,1,536.91,84c-5.06,4.33-8.12,9.77-8.46,16.59-.43,8.71,1,17.22,2.31,25.78,1.1,7.39,1.83,14.83,2.77,22.24.6,4.78,1.35,9.54,1.92,14.32.71,6,1.23,12.06,2,18.08a319.86,319.86,0,0,1,2.49,48.29c-.34,11.63-1.26,23.22-2.59,34.79-.88,7.67-2.1,15.3-2.93,23-.64,5.93-2,11.78-2.89,17.68-1.05,6.64-2,13.29-3,19.93-.91,5.82-1.91,11.62-2.83,17.44-1.08,6.8-2.08,13.62-3.17,20.42-1,6.14-2.08,12.26-3.07,18.39s-1.9,12.29-2.87,18.44c-1,6.55-2.11,13.1-3.15,19.65-1,6-1.88,12-2.83,18-.7,4.42-1.63,8.82-2.08,13.27-.89,9-2.48,17.9-3.91,26.82-1.36,8.5-2.49,17-4.4,25.46-.95,4.19-1,8.58-1.63,12.85-.85,5.48-2,10.91-2.89,16.38-1.12,6.8-2.07,13.62-3.17,20.42A57.91,57.91,0,0,1,481.15,579a54.27,54.27,0,0,1-51,20.22c-11.79-1.92-23.63-3.51-35.42-5.46-6.46-1.07-13.05-1.63-19.32-3.56a54.42,54.42,0,0,1-31.14-23.81c-4.42-7.1-6.71-14.86-8-23.1-.91-5.92.08-11.64,1-17.33,1.19-7.53,2.25-15.09,3.54-22.61,1-6,2.06-12.09,3-18.14,1-6.39,1.9-12.8,3-19.18s1.87-12.79,3.11-19.15c1.2-6.18,1.86-12.47,2.89-18.68,1.08-6.46,1.92-13,3.13-19.4,1.19-6.27,1.89-12.63,2.88-18.93s2.07-12.43,3.05-18.65c.69-4.34,1.26-8.69,1.93-13,1.17-7.63,2.17-15.28,3.62-22.86,1.17-6.11,2-12.27,3-18.4,1.08-6.28,1.92-12.63,2.94-18.93s1.6-12.5,3.09-18.64c.59-2.42.59-4.92,1-7.39,1.13-6.44,2.72-12.78,4-19.19s3-12.74,4.53-19.09c1.24-5.07,2.47-10.15,3.84-15.18,2.05-7.52,4.23-15,6.91-22.33,3.85-10.51,8.45-20.71,12.71-31,2.34-5.66,5.22-11.1,7.74-16.69,4.91-10.87,10.56-21.37,16.08-31.92A196.12,196.12,0,0,0,443.59,94.7c2.65-7,4.11-14.18,2.7-21.69a7.22,7.22,0,0,0-1-2.52c-2.46-3.82-1.32-7.82-.7-11.8.59-3.76,1.15-7.52,1.78-11.28.68-4.09,1.46-8.15,2.1-12.24.45-2.86.77-5.73,1.35-8.59A32.32,32.32,0,0,1,465.32,4.5,27.77,27.77,0,0,1,481.86.05Zm.66.87a33.43,33.43,0,0,0-16.67,4.86c-9,5.32-13.54,13.56-15.23,23.6-.66,3.89-1.31,7.79-1.82,11.7-.43,3.27-1.23,6.5-1.6,9.75-.48,4.2-1.14,8.37-1.84,12.52a8.65,8.65,0,0,0,1,6.17,12.45,12.45,0,0,1,1.79,5.08c.42,4.75-.3,5.82,5.8,6.12a6.55,6.55,0,0,1,.73.16c4.48.75,9,1.56,13.44,2.24,6.3,1,12.67,1.53,18.9,2.81s12.59,1.89,18.85,3.12c7.06,1.39,14.22,2.24,21.33,3.36.95.15,1.64.35,2.24-.8,1.84-3.55,3.87-7,7.34-9.28a2.35,2.35,0,0,0,1.06-1.9c.12-2.57,1.05-5,1.35-7.55.58-5.08,1.47-10.12,2.26-15.17.53-3.36,1-6.74,1.6-10.07,1.21-6.67,1.76-13.22-.21-19.81a29.92,29.92,0,0,0-7.88-12.76c-5.63-5.55-12.76-8-20.43-9.2-6.37-1-12.77-1.71-19.09-2.9C490.9,2.13,486.32,2.05,482.51.92Zm-41,482.45a4.05,4.05,0,0,0-4.42,3.46c-1.09,5.6-2.38,11.17-3.29,16.8-.82,5.09-.66,6.74,4.57,7.77q14.86,2.93,29.77,5.63c3.64.65,5.57-1.12,6.06-5.13.07-.58,0-1.18.08-1.75.71-3.83,3-6.64,7.26-5.11a19.92,19.92,0,0,0,3.63.9,3.82,3.82,0,0,0,4.51-2.66,38.49,38.49,0,0,0,1.13-4.59c1-4.1-.23-6-4.28-6.74-5.45-1-10.9-2-16.35-3-3.45-.63-4.78.24-5.8,3.66a22,22,0,0,0-.87,4.13,5.14,5.14,0,0,1-5.52,4.55A26.59,26.59,0,0,1,452.2,500a4.1,4.1,0,0,1-3-4.13A18.91,18.91,0,0,1,450,491c.88-3.07,0-6-2.15-6.35S443.7,483.37,441.52,483.37Zm44.74-29.21c0-2.77-1-4.34-3.32-4.66a35.28,35.28,0,0,1-3.88-.87c-3.24-.84-5.44.78-6,4.16-.47,2.86-1.3,5.67-1.65,8.54-.46,3.79-2,7.38-1.88,11.27.06,1.83.77,3.07,2.59,3.43,6.09,1.22,12.18,2.44,18.29,3.53,3.13.56,4.67,2.18,4.64,5.33a20.29,20.29,0,0,1-.85,4.39c-.86,3.75.4,5.73,4.06,6.62,1.43.35,2.17,0,2.39-1.56.73-5.32,1.44-10.65,2.38-15.93,1.26-7.09,1.82-14.3,3.5-21.33.24-1,.61-2.35-.64-2.91a3.39,3.39,0,0,0-3.94.6,4.45,4.45,0,0,0-1.28,2.11c-.41,1.61-.81,3.22-1.07,4.86-.52,3.29-2.23,4.67-5.54,4.68-1.65,0-3-1-4.59-1.08-2.67-.13-4.13-2-4.29-4.75C485.08,458.28,486.6,456.28,486.26,454.17Zm-42.18-2.41c-.13,2-.17,4.11,2.54,4.77,1.85.45,3.73.8,5.6,1.15,3.08.57,4.92-.69,5.47-3.83.3-1.72.85-3.36,1.16-5.08a3.74,3.74,0,0,1,3.85-3.25,30.88,30.88,0,0,1,6.41.79c2.66.5,4.55-.55,5.3-3.18a52.2,52.2,0,0,0,1.17-5.09c.54-3-1.13-5.08-4.21-5.61s-5.81-1.33-8.75-1.72c-3.53-.47-6.92-1.71-10.53-1.82a3.94,3.94,0,0,0-4.44,3.41,64.85,64.85,0,0,0-1.74,8.26C445.54,444.28,444,447.79,444.08,451.76Zm8.51,31.4c0,3.74,2.89,5.42,9.21,5.47,3.58,0,4.75-2.17,5.37-9.17.32-3.59-3.27-5.61-9.47-5.52C454.38,474,453.26,476.56,452.59,483.16Zm42.74-45.78c-3.54-.05-4.79.58-5.16,2.9-.22,1.41-.63,2.75-1,4.11-.67,2.77.2,5.43,2.23,5.93a33.08,33.08,0,0,0,6.06,1.33c3.72.21,4.69-1.2,5.52-4.4a21.54,21.54,0,0,0,.66-4.92c0-1.86-.64-3.37-2.72-3.95A18.14,18.14,0,0,0,495.33,437.39Zm-7.68,78.84c-.09,4,1,5,5.52,6.11,2,.51,3.07-.11,3.36-2.05a85.45,85.45,0,0,1,1.56-9.3c.24-.9.33-2.14-1-2.42a27.54,27.54,0,0,0-4.42-.58,3.44,3.44,0,0,0-3.65,2.47C488.33,512.58,488,514.8,487.65,516.23Z"/>
        <path class="cls-2" d="M70.11,534c-10.14.28-17.89.75-25.23-2.61-8.84-4-14.75-10.66-17.46-20-2.82-9.68-2.77-19.74-3.52-29.68-1.14-15-2.33-30.05-3.23-45.1-.47-8-1.09-16-1.64-23.93-1.06-15.53-2.22-31.06-3.29-46.6-.63-9.14-1-18.29-1.75-27.42-1.33-17.1-2.4-34.22-3.63-51.33-.47-6.56-.82-13.13-1.37-19.69A5.29,5.29,0,0,0,7.68,264c-.84-.8-.62-1.84-.69-2.82q-.91-12.71-1.82-25.41a3.78,3.78,0,0,1,.18-2c1.5-3.24.83-6.23-.47-9.46s-1.05-6.72-1.28-10.11c-.33-5-.33-10-1.06-14.95-.37-2.5.46-4.85.78-7.27.47-3.49.81-7.62-.63-10.6-2.4-5-1.24-10.12-2.37-15.05a3,3,0,0,1-.13-1.48c2.34-7,.39-14,0-20.94-.61-10.43,0-20.52,6.7-29.2A31.21,31.21,0,0,1,27.7,102.71c16-2.35,32.17-2.8,48.28-3.91q25.55-1.76,51.09-3.56c14.7-1,29.39-2.21,44.1-3.22,8-.55,16-.39,23.43,3.33a30.64,30.64,0,0,1,16.18,19c2.76,8.85,2.76,18.06,3.46,27.16,1.14,14.86,2.12,29.73,3.18,44.6,0,.65.07,1.55.47,1.88,2.42,2,2.07,4.74,2.24,7.35q1.33,19.82,2.62,39.63c.1,1.54.43,3.1-1.1,4.35-.72.59-.33,1.75-.27,2.64.67,10.05,1.37,20.11,2,30.16.62,9.31,1.18,18.62,1.82,27.92q1.79,26.17,3.64,52.34c1.3,18.44,2.66,36.88,4,55.32q1.79,25.42,3.5,50.84c.7,10.72,2.14,21.4,1.9,32.16-.31,14-6.43,24.57-19.45,30.51-5.29,2.41-11.06,3-16.78,3.46-8.55.71-17.1,1.29-25.66,1.9q-23.42,1.68-46.85,3.32c-9.14.63-18.29,1.12-27.42,1.76C90.64,532.47,79.18,533.36,70.11,534ZM61.6,520.59c.9,0,1.15,0,1.4,0,15.85-1.11,31.7-2.26,47.55-3.32,12-.8,24.07-1.77,36.11-2.48,14.46-.85,28.88-2.14,43.34-2.91,6.86-.36,13.78-.68,20.57-2.2S223.65,501.91,225,495a47.55,47.55,0,0,0,.36-13.16c-.73-9.54-1.15-19.1-1.8-28.65-.7-10.38-1.52-20.74-2.26-31.12-.48-6.72-.89-13.45-1.37-20.17-.71-10-1.47-20.08-2.17-30.12-.54-7.8-1-15.62-1.56-23.42-1.08-14.77-2.25-29.53-3.31-44.3-.83-11.62-1.52-23.25-2.33-34.87-1.06-15.27-2.21-30.54-3.26-45.81-.64-9.38-1-18.79-1.78-28.15-1.36-15.67-2.21-31.37-3.37-47.05-.63-8.55-1.07-17.12-2.17-25.61-1.37-10.62-9.37-18-20.51-17.85-6.67.07-13.3.55-19.95,1-2.4.16-3.06.74-2.67,3.3,1.2,7.88-2,12.42-9.1,13.17-10.26,1.09-20.57,1.58-30.87,2.21-7.48.46-14.94,1.09-22.41,1.59-10,.67-19.91,1.45-29.88,2-7.5.42-10.36-3.11-11.55-9.29a13.51,13.51,0,0,1-.18-3.23c.09-1.65-.6-2.23-2.22-2.12-5.06.36-10.13.61-15.18,1.15-3.48.38-7,.55-10.22,2-8.07,3.64-12.19,9.92-12.28,18.84-.11,10.84,1.31,21.59,1.93,32.39.54,9.39,1.2,18.77,1.86,28.15,1.09,15.44,2.24,30.87,3.32,46.31.92,13,1.75,26.07,2.67,39.1,1.08,15.35,2.23,30.7,3.3,46.06.61,8.8,1.07,17.61,1.69,26.41C28.81,368.89,30.11,384,31,399.1c.49,8.31,1.26,16.6,1.71,24.91.78,14.28,2.27,28.53,3.17,42.8.76,12,1.23,24.11,2.71,36.09a19.38,19.38,0,0,0,10.33,15.29A23,23,0,0,0,61.6,520.59Z"/>
        <path class="cls-3" d="M482.51.92c3.81,1.13,8.38,1.21,12.86,2,6.32,1.18,12.72,1.94,19.09,2.9,7.67,1.15,14.81,3.65,20.43,9.2a29.92,29.92,0,0,1,7.88,12.76c2,6.59,1.42,13.14.21,19.81-.6,3.33-1.08,6.71-1.6,10.07-.79,5.05-1.68,10.09-2.26,15.17-.29,2.56-1.22,5-1.35,7.55a2.35,2.35,0,0,1-1.06,1.9c-3.47,2.29-5.49,5.73-7.34,9.28-.6,1.16-1.29,1-2.24.8-7.11-1.12-14.27-2-21.33-3.36-6.26-1.23-12.6-1.83-18.85-3.12s-12.6-1.85-18.9-2.81c-4.49-.68-9-1.49-13.44-2.24a6.55,6.55,0,0,0-.73-.16c-6.09-.3-5.38-1.37-5.8-6.12a12.45,12.45,0,0,0-1.79-5.08,8.65,8.65,0,0,1-1-6.17c.7-4.15,1.35-8.33,1.84-12.52.37-3.25,1.17-6.47,1.6-9.75.51-3.91,1.17-7.81,1.82-11.7,1.69-10,6.26-18.27,15.23-23.6A33.43,33.43,0,0,1,482.51.92Z"/>
        <path class="cls-4" d="M441.52,483.37c2.18,0,4.18.93,6.3,1.29s3,3.28,2.15,6.35a18.91,18.91,0,0,0-.78,4.9,4.1,4.1,0,0,0,3,4.13,26.59,26.59,0,0,0,5.81,1.28,5.14,5.14,0,0,0,5.52-4.55,22,22,0,0,1,.87-4.13c1-3.42,2.35-4.29,5.8-3.66,5.45,1,10.9,2,16.35,3,4.06.75,5.24,2.64,4.28,6.74a38.49,38.49,0,0,1-1.13,4.59,3.82,3.82,0,0,1-4.51,2.66,19.92,19.92,0,0,1-3.63-.9c-4.26-1.53-6.55,1.28-7.26,5.11-.1.57,0,1.17-.08,1.75-.49,4-2.42,5.79-6.06,5.13q-14.91-2.68-29.77-5.63c-5.23-1-5.39-2.68-4.57-7.77.9-5.63,2.2-11.2,3.29-16.8A4.05,4.05,0,0,1,441.52,483.37Z"/>
        <path class="cls-4" d="M486.26,454.17c.33,2.12-1.19,4.11-1.06,6.42.16,2.73,1.61,4.62,4.29,4.75,1.62.08,2.93,1.08,4.59,1.08,3.31,0,5-1.39,5.54-4.68.26-1.64.66-3.25,1.07-4.86a4.45,4.45,0,0,1,1.28-2.11,3.39,3.39,0,0,1,3.94-.6c1.25.56.88,1.92.64,2.91-1.67,7-2.24,14.23-3.5,21.33-.94,5.29-1.65,10.61-2.38,15.93-.22,1.6-1,1.9-2.39,1.56-3.67-.89-4.92-2.87-4.06-6.62a20.29,20.29,0,0,0,.85-4.39c0-3.15-1.51-4.77-4.64-5.33-6.11-1.09-12.2-2.31-18.29-3.53-1.81-.36-2.53-1.6-2.59-3.43-.13-3.89,1.42-7.48,1.88-11.27.35-2.87,1.17-5.68,1.65-8.54.56-3.38,2.76-5,6-4.16a35.28,35.28,0,0,0,3.88.87C485.21,449.83,486.28,451.4,486.26,454.17Z"/>
        <path class="cls-4" d="M444.08,451.76c-.1-4,1.46-7.48,1.83-11.21a64.85,64.85,0,0,1,1.74-8.26,3.94,3.94,0,0,1,4.44-3.41c3.61.11,7,1.35,10.53,1.82,2.94.39,5.82,1.22,8.75,1.72s4.74,2.61,4.21,5.61a52.2,52.2,0,0,1-1.17,5.09c-.75,2.63-2.63,3.67-5.3,3.18a30.88,30.88,0,0,0-6.41-.79,3.74,3.74,0,0,0-3.85,3.25c-.31,1.72-.86,3.37-1.16,5.08-.54,3.14-2.39,4.4-5.47,3.83-1.87-.35-3.75-.7-5.6-1.15C443.91,455.87,444,453.73,444.08,451.76Z"/>
        <path class="cls-4" d="M452.59,483.16c.66-6.6,1.78-9.18,5.1-9.23,6.2-.09,9.79,1.93,9.47,5.52-.62,7-1.79,9.2-5.37,9.17C455.48,488.59,452.56,486.9,452.59,483.16Z"/>
        <path class="cls-4" d="M495.33,437.39a18.14,18.14,0,0,1,5.64,1c2.07.58,2.76,2.08,2.72,3.95a21.54,21.54,0,0,1-.66,4.92c-.83,3.2-1.8,4.61-5.52,4.4a33.08,33.08,0,0,1-6.06-1.33c-2-.5-2.9-3.16-2.23-5.93.33-1.37.73-2.71,1-4.11C490.54,438,491.79,437.34,495.33,437.39Z"/>
        <path class="cls-4" d="M487.65,516.23c.32-1.43.68-3.65,1.32-5.78a3.44,3.44,0,0,1,3.65-2.47,27.54,27.54,0,0,1,4.42.58c1.37.28,1.29,1.52,1,2.42a85.45,85.45,0,0,0-1.56,9.3c-.3,1.94-1.34,2.56-3.36,2.05C488.65,521.2,487.56,520.27,487.65,516.23Z"/>
        <path class="cls-5" d="M61.6,520.59a23,23,0,0,1-12.68-2.41A19.38,19.38,0,0,1,38.59,502.9c-1.48-12-2-24-2.71-36.09-.9-14.28-2.4-28.52-3.17-42.8-.45-8.31-1.22-16.6-1.71-24.91-.89-15.11-2.19-30.2-3.26-45.31-.62-8.8-1.08-17.61-1.69-26.41-1.07-15.35-2.22-30.7-3.3-46.06-.91-13-1.75-26.07-2.67-39.1-1.08-15.44-2.23-30.87-3.32-46.31-.66-9.38-1.32-18.76-1.86-28.15-.62-10.8-2-21.55-1.93-32.39.09-8.92,4.21-15.21,12.28-18.84,3.21-1.45,6.74-1.62,10.22-2,5.05-.55,10.12-.8,15.18-1.15,1.62-.11,2.3.47,2.22,2.12a13.51,13.51,0,0,0,.18,3.23c1.19,6.18,4.05,9.71,11.55,9.29,10-.56,19.92-1.35,29.88-2,7.47-.5,14.94-1.13,22.41-1.59,10.3-.63,20.61-1.12,30.87-2.21,7.09-.75,10.31-5.29,9.1-13.17-.39-2.56.27-3.14,2.67-3.3,6.65-.43,13.28-.91,19.95-1,11.13-.11,19.13,7.23,20.51,17.85,1.1,8.49,1.54,17.07,2.17,25.61,1.16,15.68,2,31.38,3.37,47.05.81,9.36,1.14,18.77,1.78,28.15,1,15.27,2.2,30.54,3.26,45.81.81,11.62,1.5,23.25,2.33,34.87,1.06,14.77,2.23,29.53,3.31,44.3.57,7.8,1,15.61,1.56,23.42.7,10,1.46,20.08,2.17,30.12.47,6.72.89,13.45,1.37,20.17.74,10.37,1.56,20.74,2.26,31.12.64,9.55,1.07,19.11,1.8,28.65A47.55,47.55,0,0,1,225,495c-1.38,6.86-7.57,13.1-14.46,14.63s-13.71,1.83-20.57,2.2c-14.46.77-28.89,2.07-43.34,2.91-12,.71-24.07,1.67-36.11,2.48-15.85,1.06-31.7,2.21-47.55,3.32C62.75,520.61,62.5,520.59,61.6,520.59Zm47.94-190.73.25.25a69.12,69.12,0,0,0,.34,7.71,4,4,0,0,1-3.57,4.6c-1.55.27-3.14.3-4.71.47a4.15,4.15,0,0,1-4.9-3.17c-.65-1.94-.4-4-.6-5.94-.27-2.59-1.66-4.43-3.83-4.57a18.36,18.36,0,0,0-7.41.68,4.5,4.5,0,0,0-2.66,2.42c-.93,1.81-.29,3.57-.16,5.38.38,5.22.64,10.46,1.05,15.68.33,4.18,2.27,5.73,6.44,5.36,1.16-.1,2.31-.38,3.46-.41,8.82-.24,17.57-1.45,26.39-1.63,4.29-.08,6-2.17,5.6-6.4-.11-1.33-.14-2.66-.15-4,0-3.06,1.55-4.76,4.63-5,1.41-.1,2.84,0,4.24-.16a4.77,4.77,0,0,0,4.38-4.11,23,23,0,0,0-.8-7.65,3.55,3.55,0,0,0-3.83-2.88c-1.83,0-3.66,0-5.49.1a86.78,86.78,0,0,0-16.53,1.77c-1.33.31-1.06-.62-1.07-1.33,0-2.16,0-4.33-.13-6.49a4.83,4.83,0,0,0-5.25-4.81,38.67,38.67,0,0,0-5.21.45c-3,.48-4.53,2.34-4.41,5.38.07,1.66.22,3.32.42,5,.38,3.13,2.55,5,5.68,4.57A40.33,40.33,0,0,0,109.54,329.87Zm-1.38-34.66c-.13,4.52,1.17,8.94,1,13.43-.2,6.85,3.39,7.6,8.22,7,5.1-.66,10.27-.87,15.42-1.14,3-.16,4.23.91,4.77,3.91.33,1.88.42,3.8.61,5.7.25,2.47,1.57,3.78,4,3.83,1.75,0,3.5,0,5.25-.08,3-.16,4.57-1.7,4.62-4.74,0-1.91-.18-3.83-.18-5.74,0-2.73,1-4,3.68-4.48,1.71-.3,3.47-.36,5.21-.52A4.2,4.2,0,0,0,165,308c0-1,0-2,0-3-.13-6.13-1.66-7.85-7.61-7.19-6.58.73-6.94-1.43-7.25-6.7,0-.25,0-.5,0-.75-.3-4.57-1.73-6-6.34-5.92-6.67.15-8.38,1-7.93,8.34.36,5.83-.44,6.56-6.21,7.18a20.08,20.08,0,0,1-2.74.09,4.22,4.22,0,0,1-4.22-4c-.09-1.16-.06-2.33-.14-3.49-.37-5.19-2.24-6.68-7.43-6-.91.12-1.83.09-2.74.19-3,.32-4.1,1.55-4.13,4.53C108.15,292.54,108.16,293.87,108.16,295.21Zm-29.85-13c.54,4.5,1,10.21,1.13,16,.08,3.54,2.15,5.26,5.7,5.15,1.57,0,3.14-.3,4.71-.46,3.3-.35,4.81-2.26,4.47-5.61-.16-1.57-.32-3.15-.33-4.72a4.08,4.08,0,0,1,3.8-4.43c1.48-.22,3-.17,4.48-.3,4-.37,5.45-2,5.3-6-.06-1.58-.24-3.15-.42-4.72-.34-2.88-2.39-4.76-5.31-4.3-5.78.91-11.63.6-17.41,1.28C79.19,274.67,78.11,275.81,78.31,282.23ZM167,332.77c-.26-7.66-2.17-9.39-9.29-8.4-4.87.68-6.05,2.13-5.9,7.07a24.51,24.51,0,0,0,.73,4.91,4.17,4.17,0,0,0,2.3,2.75c2.22,1.26,4.42.22,6.59.08C165.94,338.87,167.16,337.34,167,332.77Zm-19.1-57c0,5.75,1.41,9.86,8.94,8.06a23.79,23.79,0,0,1,2.47-.32,3.9,3.9,0,0,0,3.68-4.26c0-2.16-.33-4.31-.43-6.47a4,4,0,0,0-2.09-3.18c-2-1.43-4.2-.57-6.31-.47C149.25,269.39,147.82,270.94,147.91,275.79ZM147,339.68c-1.41.13-2.82.2-4.22.39a4.75,4.75,0,0,0-4.41,5.08,24.9,24.9,0,0,0,.22,3.73c.81,5.32,2.17,6.34,7.48,5.7,7.7-.92,8.06-1.37,7.32-9.17C153,340.87,151.66,339.69,147,339.68Zm-18.41-53.92c1.08,0,2.17.08,3.24,0,2.49-.21,4.34-1.76,4.43-4.19a50.25,50.25,0,0,0-.49-7.68,2.81,2.81,0,0,0-2-2.41c-3.42-.61-6.95-1-10.23.48-3.05,1.39-2.24,4.32-2.2,6.82C121.48,284.66,122.83,286,128.62,285.76Z"/>
        <path class="cls-4" d="M109.54,329.87a40.33,40.33,0,0,1-7.84,1.3c-3.12.39-5.3-1.44-5.68-4.57-.2-1.65-.36-3.31-.42-5-.12-3,1.39-4.91,4.41-5.38a38.67,38.67,0,0,1,5.21-.45,4.83,4.83,0,0,1,5.25,4.81c.14,2.16.09,4.33.13,6.49,0,.71-.26,1.63,1.07,1.33a86.78,86.78,0,0,1,16.53-1.77c1.83-.06,3.66-.06,5.49-.1a3.55,3.55,0,0,1,3.83,2.88,23,23,0,0,1,.8,7.65,4.77,4.77,0,0,1-4.38,4.11c-1.4.15-2.83.06-4.24.16-3.08.22-4.65,1.92-4.63,5,0,1.33,0,2.67.15,4,.36,4.22-1.31,6.31-5.6,6.4-8.82.17-17.58,1.39-26.39,1.63-1.16,0-2.31.31-3.46.41-4.17.37-6.11-1.18-6.44-5.36-.42-5.22-.67-10.45-1.05-15.68-.13-1.8-.77-3.57.16-5.38a4.5,4.5,0,0,1,2.66-2.42,18.36,18.36,0,0,1,7.41-.68c2.17.14,3.56,2,3.83,4.57.21,2,0,4,.6,5.94a4.15,4.15,0,0,0,4.9,3.17c1.57-.17,3.16-.2,4.71-.47a4,4,0,0,0,3.57-4.6,69.44,69.44,0,0,1-.34-7.72,2.44,2.44,0,0,0,.2-.47C109.75,329.47,109.63,329.66,109.54,329.87Z"/>
        <path class="cls-4" d="M108.16,295.21c0-1.33,0-2.66,0-4,0-3,1.16-4.21,4.13-4.53.91-.1,1.83-.07,2.74-.19,5.2-.67,7.07.82,7.43,6,.08,1.16,0,2.33.14,3.49a4.22,4.22,0,0,0,4.22,4,20.08,20.08,0,0,0,2.74-.09c5.77-.62,6.57-1.35,6.21-7.18-.45-7.3,1.27-8.19,7.93-8.34,4.62-.1,6,1.35,6.34,5.92,0,.25,0,.5,0,.75.32,5.28.67,7.44,7.25,6.7,6-.67,7.48,1.06,7.61,7.19,0,1,.07,2,0,3a4.2,4.2,0,0,1-4.19,4.37c-1.74.16-3.5.22-5.21.52-2.68.48-3.69,1.76-3.68,4.48,0,1.91.22,3.83.18,5.74-.05,3-1.58,4.58-4.62,4.74-1.75.09-3.5.12-5.25.08-2.44-.05-3.77-1.36-4-3.83-.19-1.9-.27-3.83-.61-5.7-.54-3-1.79-4.07-4.77-3.91-5.15.27-10.32.48-15.42,1.14-4.84.63-8.42-.13-8.22-7C109.33,304.15,108,299.72,108.16,295.21Z"/>
        <path class="cls-4" d="M78.31,282.23c-.2-6.42.88-7.55,6.12-8.17,5.79-.68,11.63-.36,17.41-1.28,2.92-.46,5,1.42,5.31,4.3.19,1.57.36,3.14.42,4.72.15,4-1.27,5.62-5.3,6-1.49.14-3,.08-4.48.3a4.08,4.08,0,0,0-3.8,4.43c0,1.58.17,3.15.33,4.72.33,3.35-1.17,5.26-4.47,5.61-1.57.17-3.14.41-4.71.46-3.55.11-5.62-1.6-5.7-5.15C79.31,292.44,78.85,286.72,78.31,282.23Z"/>
        <path class="cls-4" d="M167,332.77c.15,4.57-1.07,6.11-5.57,6.41-2.17.15-4.37,1.18-6.59-.08a4.17,4.17,0,0,1-2.3-2.75,24.51,24.51,0,0,1-.73-4.91c-.16-4.94,1-6.39,5.9-7.07C164.84,323.38,166.75,325.1,167,332.77Z"/>
        <path class="cls-4" d="M147.91,275.79c-.09-4.84,1.34-6.4,6.26-6.64,2.11-.1,4.28-1,6.31.47a4,4,0,0,1,2.09,3.18c.1,2.16.44,4.32.43,6.47a3.9,3.9,0,0,1-3.68,4.26,23.79,23.79,0,0,0-2.47.32C149.32,285.65,147.88,281.54,147.91,275.79Z"/>
        <path class="cls-4" d="M147,339.68c4.63,0,6,1.19,6.4,5.73.73,7.8.37,8.25-7.32,9.17-5.31.63-6.67-.38-7.48-5.7a24.9,24.9,0,0,1-.22-3.73,4.75,4.75,0,0,1,4.41-5.08C144.2,339.89,145.62,339.81,147,339.68Z"/>
        <path class="cls-4" d="M128.62,285.76c-5.79.19-7.14-1.1-7.22-7,0-2.5-.85-5.43,2.2-6.82,3.28-1.49,6.81-1.09,10.23-.48a2.81,2.81,0,0,1,2,2.41,50.25,50.25,0,0,1,.49,7.68c-.09,2.43-1.94,4-4.43,4.19C130.79,285.83,129.7,285.76,128.62,285.76Z"/>
        <path class="cls-5" d="M109.54,329.87c.09-.21.21-.4.45-.22a2.44,2.44,0,0,1-.2.47Z"/>
      </g>
    </g>
  </g>
</svg>
