<svg xmlns="http://www.w3.org/2000/svg" xmlns:xlink="http://www.w3.org/1999/xlink" width="262" height="261" viewBox="0 0 262 261">
    <defs>
        <linearGradient id="b" x1="50%" x2="50%" y1="0%" y2="100%">
            <stop offset="0%" stop-color="#EEE"/>
            <stop offset="100%" stop-color="#CBCFDA"/>
        </linearGradient>
        <circle id="a" cx="131" cy="130.055" r="130.055"/>
        <filter id="d" width="157.8%" height="133.6%" x="-28.9%" y="-16.8%" filterUnits="objectBoundingBox">
            <feOffset dx="1" dy="2" in="SourceAlpha" result="shadowOffsetOuter1"/>
            <feGaussianBlur in="shadowOffsetOuter1" result="shadowBlurOuter1" stdDeviation="3.5"/>
            <feColorMatrix in="shadowBlurOuter1" result="shadowMatrixOuter1" values="0 0 0 0 0.333333333 0 0 0 0 0.670588235 0 0 0 0 0.984313725 0 0 0 0.445175918 0"/>
            <feMerge>
                <feMergeNode in="shadowMatrixOuter1"/>
                <feMergeNode in="SourceGraphic"/>
            </feMerge>
        </filter>
        <filter id="e" width="157.8%" height="133.6%" x="-28.9%" y="-16.8%" filterUnits="objectBoundingBox">
            <feOffset dx="1" dy="2" in="SourceAlpha" result="shadowOffsetOuter1"/>
            <feGaussianBlur in="shadowOffsetOuter1" result="shadowBlurOuter1" stdDeviation="3.5"/>
            <feColorMatrix in="shadowBlurOuter1" result="shadowMatrixOuter1" values="0 0 0 0 0.333333333 0 0 0 0 0.670588235 0 0 0 0 0.984313725 0 0 0 0.445175918 0"/>
            <feMerge>
                <feMergeNode in="shadowMatrixOuter1"/>
                <feMergeNode in="SourceGraphic"/>
            </feMerge>
        </filter>
        <rect id="g" width="103.427" height="65.599" x="3.278" y="3.717" rx="5.417"/>
        <filter id="f" width="204.4%" height="264.6%" x="-46.4%" y="-54.9%" filterUnits="objectBoundingBox">
            <feOffset dx="6" dy="18" in="SourceAlpha" result="shadowOffsetOuter1"/>
            <feGaussianBlur in="shadowOffsetOuter1" result="shadowBlurOuter1" stdDeviation="15"/>
            <feComposite in="shadowBlurOuter1" in2="SourceAlpha" operator="out" result="shadowBlurOuter1"/>
            <feColorMatrix in="shadowBlurOuter1" values="0 0 0 0 0.639884361 0 0 0 0 0.646707329 0 0 0 0 0.651466259 0 0 0 0.2 0"/>
        </filter>
    </defs>
    <g fill="none" fill-rule="evenodd">
        <mask id="c" fill="#fff">
            <use xlink:href="#a"/>
        </mask>
        <use fill="url(#b)" opacity=".2" xlink:href="#a"/>
        <g stroke="#40A2FF" stroke-linecap="round" stroke-width="2" mask="url(#c)">
            <g filter="url(#d)" transform="rotate(180 63.5 90)">
                <path stroke-linejoin="round" d="M52.5 1l.33-.005C58.905.9 63.905 5.749 64 11.824a11 11 0 0 1 .001.17v75.978c0 6.075-4.925 11-11 11H.155l10.457 10.477"/>
                <path stroke-dasharray="0,7" d="M10.155 1h40"/>
            </g>
            <g filter="url(#e)" transform="translate(136 81)">
                <path stroke-linejoin="round" d="M52.5 1l.33-.005C58.905.9 63.905 5.749 64 11.824a11 11 0 0 1 .001.17v75.978c0 6.075-4.925 11-11 11H.155l10.457 10.477"/>
                <path stroke-dasharray="0,7" d="M10.155 1h40"/>
            </g>
        </g>
        <g mask="url(#c)">
            <g transform="translate(76 93)">
                <use fill="#000" filter="url(#f)" xlink:href="#g"/>
                <rect width="102.818" height="64.989" x="3.583" y="4.022" fill="#FFF" fill-opacity=".98" stroke="#CCC" stroke-linejoin="square" stroke-width=".609" rx="5.417"/>
                <path fill="#D6D6D8" d="M3.278 11.294h103.499v10.978H3.278z"/>
                <rect width="53.261" height="2.091" x="47.193" y="48.997" fill="#D6D6D8" rx=".903"/>
                <rect width="31.33" height="2.091" x="68.749" y="58.407" fill="#D6D6D8" rx="1.003"/>
                <g fill="#D8D8D9" transform="matrix(-1 0 0 1 31.528 46.906)">
                    <path d="M10.026.885A7.275 7.275 0 0 0 7.213 6.63c0 2.33 1.1 4.406 2.813 5.745a6.699 6.699 0 0 1-3.34.885C2.993 13.26 0 10.292 0 6.63S2.993 0 6.686 0c1.217 0 2.357.322 3.34.885z"/>
                    <ellipse cx="15.111" cy="6.63" rx="6.686" ry="6.63"/>
                </g>
            </g>
        </g>
    </g>
</svg>
