<svg xmlns="http://www.w3.org/2000/svg" xmlns:xlink="http://www.w3.org/1999/xlink" width="260" height="261" viewBox="0 0 260 261">
    <defs>
        <linearGradient id="b" x1="50%" x2="50%" y1="0%" y2="100%">
            <stop offset="0%" stop-color="#EEE"/>
            <stop offset="100%" stop-color="#CBCFDA"/>
        </linearGradient>
        <ellipse id="a" cx="129.047" cy="130.056" rx="128.081" ry="129.06"/>
        <path id="d" d="M36.709 20.851l-23.118.043-.038 6.457a24 24 0 0 1-2.991 11.465c-4.438 8.034-7.44 19.614-9.006 34.74-1.858 17.942-2.052 48.465-.582 91.57a8 8 0 0 0 2.24 5.284c4.215 4.365 11.667 6.548 22.359 6.548 10.704 0 18.167-2.188 22.39-6.563a8 8 0 0 0 2.238-5.264c1.57-43.033 1.157-73.558-1.24-91.574-2.046-15.383-5.157-27.075-9.33-35.076a24 24 0 0 1-2.71-10.398l-.212-7.232z"/>
        <filter id="e" width="409%" height="201.2%" x="-136.9%" y="-34%" filterUnits="objectBoundingBox">
            <feOffset dx="9" dy="26" in="SourceAlpha" result="shadowOffsetOuter1"/>
            <feGaussianBlur in="shadowOffsetOuter1" result="shadowBlurOuter1" stdDeviation="22"/>
            <feComposite in="shadowBlurOuter1" in2="SourceAlpha" operator="out" result="shadowBlurOuter1"/>
            <feColorMatrix in="shadowBlurOuter1" values="0 0 0 0 0.639884361 0 0 0 0 0.646707329 0 0 0 0 0.651466259 0 0 0 0.2 0"/>
        </filter>
        <path id="g" d="M5.862 5.198c4.918.46 12.155 2.359 16.604 2.358 0 0-3.766 1.092-6.84 3.486s-8.458 4.716-12.583 1.816c-4.125-2.9-2.099-8.12 2.82-7.66z"/>
        <filter id="f" width="862.5%" height="1925.5%" x="-339.6%" y="-614%" filterUnits="objectBoundingBox">
            <feOffset dx="9" dy="27" in="SourceAlpha" result="shadowOffsetOuter1"/>
            <feGaussianBlur in="shadowOffsetOuter1" result="shadowBlurOuter1" stdDeviation="23"/>
            <feColorMatrix in="shadowBlurOuter1" values="0 0 0 0 0.639884361 0 0 0 0 0.646707329 0 0 0 0 0.651466259 0 0 0 0.2 0"/>
        </filter>
        <linearGradient id="j" x1="8.719%" x2="50%" y1="0%" y2="100%">
            <stop offset="0%" stop-color="#FF3950"/>
            <stop offset="100%" stop-color="#FF313E"/>
        </linearGradient>
        <path id="i" d="M18 0C8.07 0 0 8.07 0 18c0 9.931 8.07 18 18 18s18-8.07 18-18c.078-9.93-7.991-18-18-18z"/>
        <filter id="h" width="213.9%" height="213.9%" x="-48.6%" y="-34.7%" filterUnits="objectBoundingBox">
            <feOffset dx="3" dy="8" in="SourceAlpha" result="shadowOffsetOuter1"/>
            <feGaussianBlur in="shadowOffsetOuter1" result="shadowBlurOuter1" stdDeviation="5.5"/>
            <feColorMatrix in="shadowBlurOuter1" values="0 0 0 0 1 0 0 0 0 0.192156863 0 0 0 0 0.243137255 0 0 0 0.5 0"/>
        </filter>
    </defs>
    <g fill="none" fill-rule="evenodd">
        <g transform="translate(.996)">
            <mask id="c" fill="#fff">
                <use xlink:href="#a"/>
            </mask>
            <use fill="url(#b)" opacity=".2" xlink:href="#a"/>
            <g mask="url(#c)">
                <g transform="matrix(-1 0 0 1 154.237 33.732)">
                    <use fill="#000" filter="url(#e)" xlink:href="#d"/>
                    <path fill="#FFF" fill-opacity=".98" stroke="#CBCBCC" stroke-linejoin="square" stroke-width="1.1" d="M36.175 21.402l-22.038.04-.034 5.912a24.55 24.55 0 0 1-3.06 11.728c-4.396 7.96-7.38 19.472-8.94 34.531-1.855 17.91-2.048 48.413-.58 91.495a7.45 7.45 0 0 0 2.087 4.92c4.09 4.238 11.406 6.38 21.963 6.38 10.57 0 17.895-2.147 21.994-6.395a7.45 7.45 0 0 0 2.085-4.902c1.569-43.004 1.156-73.504-1.236-91.482-2.039-15.324-5.134-26.959-9.273-34.894a24.55 24.55 0 0 1-2.772-10.636l-.196-6.697z"/>
                </g>
                <path fill="#EFEFF1" stroke="#CBCBCC" d="M140.29 52.086H117.38V41.572a7.34 7.34 0 0 1 7.34-7.34h8.228a7.34 7.34 0 0 1 7.34 7.34v10.514z"/>
                <path fill="#FFF" stroke="#CBCBCC" d="M118.01 51.606h21.613a1.9 1.9 0 1 1 0 3.8H118.01a1.9 1.9 0 1 1 0-3.8z"/>
                <path stroke="#FFF" stroke-linecap="round" stroke-linejoin="round" stroke-width=".9" d="M136.395 40.23v1.026M136.395 43.2v5.551"/>
            </g>
            <g mask="url(#c)">
                <path fill="#CBCBCC" d="M117.398 54.598h22.651v8.93c-14.004-.585-21.339-1.211-22.003-1.878.332-1.333.116-3.684-.648-7.052z"/>
                <g transform="scale(-1 1) rotate(-2 1505.245 4067.048)">
                    <use fill="#000" filter="url(#f)" xlink:href="#g"/>
                    <use fill="#F1F2F3" xlink:href="#g"/>
                </g>
            </g>
            <g mask="url(#c)">
                <path fill="#CBCBCC" d="M130.06 172.104c.672.594 2.293 2.029 2.831 2.523.228.21.455.415.681.619l.404.366c2.49 2.266 4.932 4.714 4.91 9.358-.011 2.524-1.105 4.934-3.079 6.786-1.883 1.767-4.362 2.778-6.806 2.778h-.041c-2.458-.012-4.945-1.047-6.822-2.841-1.957-1.87-3.028-4.29-3.017-6.816.022-4.856 2.643-7.205 5.418-9.692l.457-.41 2.408-2.177.533-.482a1.591 1.591 0 0 1 2.124-.012z"/>
                <path fill="#FFF" fill-rule="nonzero" d="M126.378 188.91c-.528.269-1.145-.165-1.044-.734l.501-2.829-2.124-2.003c-.428-.403-.192-1.105.398-1.188l2.936-.412 1.313-2.574c.264-.517 1.027-.517 1.291 0l1.313 2.574 2.936.412c.59.083.826.785.4 1.188l-2.125 2.003.501 2.83c.1.568-.516 1.002-1.044.733l-2.626-1.335-2.626 1.335z"/>
            </g>
        </g>
        <g fill-rule="nonzero">
            <g transform="translate(25 20)">
                <use fill="#000" filter="url(#h)" xlink:href="#i"/>
                <use fill="url(#j)" xlink:href="#i"/>
            </g>
            <path fill="#FFF" d="M44.547 46.344h-3.094V43.25h3.094zM44.547 40.25h-3.092L41.453 29h3.092z"/>
        </g>
    </g>
</svg>
