<svg xmlns="http://www.w3.org/2000/svg" xmlns:xlink="http://www.w3.org/1999/xlink" width="260" height="260" viewBox="0 0 260 260">
    <defs>
        <linearGradient id="b" x1="50%" x2="50%" y1="0%" y2="100%">
            <stop offset="0%" stop-color="#EEE"/>
            <stop offset="100%" stop-color="#CBCFDA"/>
        </linearGradient>
        <circle id="a" cx="129.557" cy="129.557" r="129.557"/>
        <linearGradient id="e" x1="8.719%" x2="50%" y1="0%" y2="100%">
            <stop offset="0%" stop-color="#FF3950"/>
            <stop offset="100%" stop-color="#FF313E"/>
        </linearGradient>
        <path id="d" d="M18 0C8.07 0 0 8.07 0 18c0 9.931 8.07 18 18 18s18-8.07 18-18c.078-9.93-7.991-18-18-18z"/>
        <filter id="c" width="213.9%" height="213.9%" x="-48.6%" y="-34.7%" filterUnits="objectBoundingBox">
            <feOffset dx="3" dy="8" in="SourceAlpha" result="shadowOffsetOuter1"/>
            <feGaussianBlur in="shadowOffsetOuter1" result="shadowBlurOuter1" stdDeviation="5.5"/>
            <feColorMatrix in="shadowBlurOuter1" values="0 0 0 0 1 0 0 0 0 0.192156863 0 0 0 0 0.243137255 0 0 0 0.5 0"/>
        </filter>
        <path id="g" d="M208.18 92.347a15.434 15.434 0 0 0-15.446-14.148 15.478 15.478 0 0 0-14.467 9.922c-.9-.202-1.832-.306-2.77-.306-7.004 0-12.698 5.695-12.698 12.688v.133h-.347c-6.286 0-11.398 5.113-11.398 11.395 0 6.281 5.112 11.391 11.398 11.391h46.894c8.584 0 15.572-6.98 15.572-15.563 0-8.574-6.99-15.557-15.572-15.557-.394 0-.784.012-1.167.045z"/>
        <filter id="f" width="215.1%" height="288%" x="-57.5%" y="-67.4%" filterUnits="objectBoundingBox">
            <feMorphology in="SourceAlpha" operator="dilate" radius=".5" result="shadowSpreadOuter1"/>
            <feOffset dy="3" in="shadowSpreadOuter1" result="shadowOffsetOuter1"/>
            <feGaussianBlur in="shadowOffsetOuter1" result="shadowBlurOuter1" stdDeviation="3.5"/>
            <feComposite in="shadowBlurOuter1" in2="SourceAlpha" operator="out" result="shadowBlurOuter1"/>
            <feColorMatrix in="shadowBlurOuter1" result="shadowMatrixOuter1" values="0 0 0 0 1 0 0 0 0 1 0 0 0 0 1 0 0 0 0.1 0"/>
            <feMorphology in="SourceAlpha" operator="dilate" radius=".5" result="shadowSpreadOuter2"/>
            <feOffset dy="12" in="shadowSpreadOuter2" result="shadowOffsetOuter2"/>
            <feGaussianBlur in="shadowOffsetOuter2" result="shadowBlurOuter2" stdDeviation="12"/>
            <feComposite in="shadowBlurOuter2" in2="SourceAlpha" operator="out" result="shadowBlurOuter2"/>
            <feColorMatrix in="shadowBlurOuter2" result="shadowMatrixOuter2" values="0 0 0 0 0.2 0 0 0 0 0.219607843 0 0 0 0 0.28627451 0 0 0 0.1 0"/>
            <feMerge>
                <feMergeNode in="shadowMatrixOuter1"/>
                <feMergeNode in="shadowMatrixOuter2"/>
            </feMerge>
        </filter>
    </defs>
    <g fill="none" fill-rule="evenodd">
        <use fill="url(#b)" opacity=".2" xlink:href="#a"/>
        <g transform="translate(69.025 89.655)">
            <rect width="113.545" height="71.39" x="4.096" y="4.566" fill="#EEE" stroke="#D6D6D8" stroke-width=".935" rx="6"/>
            <path fill="#D6D6D8" d="M3.629 12.452h114.559v12.104H3.629z"/>
        </g>
        <rect width="58.7" height="1.992" x="122.677" y="143.707" fill="#D6D6D8" rx=".996"/>
        <rect width="30.323" height="1.992" x="151.054" y="152.234" fill="#D6D6D8" rx=".996"/>
        <path fill="#D8D8D9" d="M93.668 144.74a8.022 8.022 0 0 1 3.066 6.316 8.022 8.022 0 0 1-3.066 6.315 7.289 7.289 0 1 0 0-12.631z"/>
        <circle cx="88.124" cy="151.056" r="7.289" fill="#D8D8D9" transform="matrix(-1 0 0 1 176.248 0)"/>
        <g fill-rule="nonzero">
            <g transform="translate(26.921 18.927)">
                <use fill="#000" filter="url(#c)" xlink:href="#d"/>
                <use fill="url(#e)" xlink:href="#d"/>
            </g>
            <path fill="#FFF" d="M46.468 45.271h-3.094v-3.094h3.094zM46.468 39.177h-3.092l-.002-11.25h3.093z"/>
        </g>
        <g transform="matrix(-1 0 0 1 375.972 0)">
            <use fill="#000" filter="url(#f)" xlink:href="#g"/>
            <use fill="#FFF" stroke="#D6D6D8" xlink:href="#g"/>
        </g>
    </g>
</svg>
